M48
INCH,TZ
T1C0.0157
T2C0.0394
%
G90
G05
T1
X50500Y-37250
X50750Y-41250
X50750Y-46000
X50750Y-50000
X51750Y-36750
X51750Y-44750
X51750Y-48750
X52750Y-36750
X52750Y-44750
X52750Y-48750
X53000Y-50250
X53500Y-34000
X53500Y-42000
X53500Y-46000
X54000Y-29000
X54250Y-32000
X54250Y-42250
X54250Y-49500
X54500Y-45000
X54500Y-50000
X54750Y-40750
X55500Y-47000
X64000Y-43000
X64250Y-44500
X64500Y-32250
X65250Y-36000
X65250Y-44500
X65500Y-32250
X65500Y-47750
X65500Y-52750
X66000Y-32750
X66000Y-40250
X66250Y-44250
X67000Y-52250
X67250Y-40500
X67250Y-42500
X67250Y-45000
X67250Y-48500
X67500Y-52250
X67750Y-28250
X67750Y-38250
X67750Y-43000
X68250Y-44250
X68750Y-33000
X68750Y-37500
X68750Y-44250
X68750Y-52500
X69000Y-28500
X69000Y-40000
X69000Y-47750
X69000Y-48250
T2
X48750Y-31250
X48750Y-32250
X48750Y-33250
X48750Y-34250
X48750Y-35250
X48750Y-36250
X48750Y-37250
X48750Y-38250
X48750Y-39250
X48750Y-40250
X48750Y-41250
X48750Y-42250
X48750Y-43250
X48750Y-44250
X48750Y-45250
X48750Y-46250
X48750Y-47250
X48750Y-48250
X48750Y-49250
X48750Y-50250
X48750Y-51250
X48750Y-52250
X48750Y-53250
X48750Y-54250
X48750Y-55250
X49750Y-31250
X49750Y-32250
X49750Y-33250
X49750Y-34250
X49750Y-35250
X49750Y-36250
X49750Y-37250
X49750Y-38250
X49750Y-39250
X49750Y-40250
X49750Y-41250
X49750Y-42250
X49750Y-43250
X49750Y-44250
X49750Y-45250
X49750Y-46250
X49750Y-47250
X49750Y-48250
X49750Y-49250
X49750Y-50250
X49750Y-51250
X49750Y-52250
X49750Y-53250
X49750Y-54250
X49750Y-55250
X50750Y-56250
X50750Y-57250
X51744Y-54250
X51750Y-29500
X51750Y-56250
X51750Y-57250
X52744Y-54250
X52750Y-29500
X52750Y-56250
X52750Y-57250
X53744Y-54250
X53750Y-56250
X53750Y-57250
X54750Y-56250
X54750Y-57250
X56750Y-29250
X56750Y-30250
X56750Y-31250
X56750Y-32250
X56750Y-33250
X56750Y-34250
X56750Y-35250
X56750Y-36250
X56750Y-41250
X56750Y-42250
X56750Y-43250
X56750Y-44250
X56750Y-45250
X56750Y-46250
X56750Y-47250
X56750Y-48250
X58750Y-35250
X58750Y-36250
X58750Y-37250
X58750Y-38250
X58750Y-39250
X58750Y-40250
X58750Y-41250
X58750Y-42250
X58750Y-47250
X58750Y-48250
X58750Y-49250
X58750Y-50250
X58750Y-51250
X58750Y-52250
X58750Y-53250
X58750Y-54250
X61750Y-29250
X61750Y-30250
X61750Y-31250
X61750Y-32250
X61750Y-33250
X61750Y-34250
X61750Y-35250
X61750Y-36250
X61750Y-41250
X61750Y-42250
X61750Y-43250
X61750Y-44250
X61750Y-45250
X61750Y-46250
X61750Y-47250
X61750Y-48250
X63750Y-29250
X63750Y-30250
X63750Y-35250
X63750Y-36250
X63750Y-37250
X63750Y-38250
X63750Y-39250
X63750Y-40250
X63750Y-41250
X63750Y-42250
X63750Y-47250
X63750Y-48250
X63750Y-49250
X63750Y-50250
X63750Y-51250
X63750Y-52250
X63750Y-53250
X63750Y-54250
X64748Y-56250
X64750Y-29250
X64750Y-30250
X65748Y-56250
X65750Y-29250
X65750Y-30250
X66750Y-29250
X66750Y-30250
X67750Y-29250
X67750Y-30250
X69750Y-31250
X69750Y-32250
X69750Y-33250
X69750Y-34250
X69750Y-35250
X69750Y-36250
X69750Y-37250
X69750Y-38250
X69750Y-39250
X69750Y-40250
X69750Y-41250
X69750Y-42250
X69750Y-43250
X69750Y-44250
X69750Y-45250
X69750Y-46250
X69750Y-47250
X69750Y-48250
X69750Y-49250
X69750Y-50250
X69750Y-51250
X69750Y-52250
X69750Y-53250
X69750Y-54250
X69750Y-55250
X70750Y-31250
X70750Y-32250
X70750Y-33250
X70750Y-34250
X70750Y-35250
X70750Y-36250
X70750Y-37250
X70750Y-38250
X70750Y-39250
X70750Y-40250
X70750Y-41250
X70750Y-42250
X70750Y-43250
X70750Y-44250
X70750Y-45250
X70750Y-46250
X70750Y-47250
X70750Y-48250
X70750Y-49250
X70750Y-50250
X70750Y-51250
X70750Y-52250
X70750Y-53250
X70750Y-54250
X70750Y-55250
T0
M30
