G04 #@! TF.GenerationSoftware,KiCad,Pcbnew,7.0.1*
G04 #@! TF.CreationDate,2023-04-30T12:50:43-04:00*
G04 #@! TF.ProjectId,5v levelshifter board,3576206c-6576-4656-9c73-686966746572,rev?*
G04 #@! TF.SameCoordinates,Original*
G04 #@! TF.FileFunction,Soldermask,Bot*
G04 #@! TF.FilePolarity,Negative*
%FSLAX46Y46*%
G04 Gerber Fmt 4.6, Leading zero omitted, Abs format (unit mm)*
G04 Created by KiCad (PCBNEW 7.0.1) date 2023-04-30 12:50:43*
%MOMM*%
%LPD*%
G01*
G04 APERTURE LIST*
%ADD10R,1.700000X1.700000*%
%ADD11O,1.700000X1.700000*%
%ADD12C,4.200000*%
%ADD13C,1.700000*%
%ADD14R,1.475000X0.450000*%
G04 APERTURE END LIST*
D10*
X156845000Y-92075000D03*
D11*
X156845000Y-89535000D03*
X156845000Y-86995000D03*
X156845000Y-84455000D03*
X156845000Y-81915000D03*
X156845000Y-79375000D03*
X156845000Y-76835000D03*
X156845000Y-74295000D03*
D10*
X128905000Y-145415000D03*
D11*
X128905000Y-142875000D03*
X131445000Y-145415000D03*
X131445000Y-142875000D03*
X133985000Y-145415000D03*
X133985000Y-142875000D03*
X136525000Y-145415000D03*
X136525000Y-142875000D03*
X139065000Y-145415000D03*
X139065000Y-142875000D03*
D10*
X131445000Y-74930000D03*
D11*
X133985000Y-74930000D03*
D10*
X161925000Y-107315000D03*
D11*
X161925000Y-104775000D03*
X161925000Y-102235000D03*
X161925000Y-99695000D03*
X161925000Y-97155000D03*
X161925000Y-94615000D03*
X161925000Y-92075000D03*
X161925000Y-89535000D03*
D10*
X136510000Y-137795000D03*
D11*
X133970000Y-137795000D03*
X131430000Y-137795000D03*
D12*
X179705000Y-74295000D03*
X123825000Y-74295000D03*
X179705000Y-145425000D03*
X123825000Y-145425000D03*
D13*
X177165000Y-81915000D03*
X123825000Y-81915000D03*
X177165000Y-120015000D03*
X179705000Y-120015000D03*
X177165000Y-117475000D03*
X179705000Y-117475000D03*
X177165000Y-114935000D03*
X179705000Y-114935000D03*
X177165000Y-112395000D03*
X179705000Y-112395000D03*
X177165000Y-109855000D03*
X179705000Y-109855000D03*
X177165000Y-107315000D03*
X179705000Y-107315000D03*
X177165000Y-104775000D03*
X179705000Y-104775000D03*
X177165000Y-102235000D03*
X179705000Y-102235000D03*
X177165000Y-99695000D03*
X179705000Y-99695000D03*
X177165000Y-97155000D03*
X179705000Y-97155000D03*
X177165000Y-94615000D03*
X179705000Y-94615000D03*
X177165000Y-92075000D03*
X179705000Y-92075000D03*
X177165000Y-89535000D03*
X179705000Y-89535000D03*
X177165000Y-86995000D03*
X179705000Y-86995000D03*
X177165000Y-84455000D03*
X179705000Y-84455000D03*
X123825000Y-86995000D03*
X126365000Y-86995000D03*
X123825000Y-89535000D03*
X126365000Y-89535000D03*
X123825000Y-92075000D03*
X126365000Y-92075000D03*
X123825000Y-94615000D03*
X126365000Y-94615000D03*
X123825000Y-97155000D03*
X126365000Y-97155000D03*
X123825000Y-99695000D03*
X126365000Y-99695000D03*
X123825000Y-102235000D03*
X126365000Y-102235000D03*
X123825000Y-104775000D03*
X126365000Y-104775000D03*
X123825000Y-107315000D03*
X126365000Y-107315000D03*
X123825000Y-109855000D03*
X126365000Y-109855000D03*
X123825000Y-112395000D03*
X126365000Y-112395000D03*
X123825000Y-114935000D03*
X126365000Y-114935000D03*
X123825000Y-117475000D03*
X126365000Y-117475000D03*
X123825000Y-120015000D03*
X126365000Y-120015000D03*
X123825000Y-122555000D03*
X126365000Y-122555000D03*
X123825000Y-125095000D03*
X126365000Y-125095000D03*
X123825000Y-127635000D03*
X126365000Y-127635000D03*
X123825000Y-130175000D03*
X126365000Y-130175000D03*
X123825000Y-132715000D03*
X126365000Y-132715000D03*
X177165000Y-140335000D03*
X179705000Y-140335000D03*
X177165000Y-137795000D03*
X179705000Y-137795000D03*
X177165000Y-135255000D03*
X179705000Y-135255000D03*
X177165000Y-132715000D03*
X179705000Y-132715000D03*
X177165000Y-130175000D03*
X179705000Y-130175000D03*
X177165000Y-127635000D03*
X179705000Y-127635000D03*
X177165000Y-125095000D03*
X179705000Y-125095000D03*
X177165000Y-122555000D03*
X179705000Y-122555000D03*
X161925000Y-76835000D03*
X161925000Y-74295000D03*
X164465000Y-76835000D03*
X164465000Y-74295000D03*
X167005000Y-76835000D03*
X167005000Y-74295000D03*
X169545000Y-76835000D03*
X169545000Y-74295000D03*
X172085000Y-74295000D03*
X123825000Y-84455000D03*
X172085000Y-76835000D03*
X179705000Y-79375000D03*
X126365000Y-79375000D03*
X179705000Y-81915000D03*
X126365000Y-81915000D03*
X123825000Y-140335000D03*
X177165000Y-79375000D03*
X123825000Y-79375000D03*
X126365000Y-140335000D03*
X126365000Y-84455000D03*
X123825000Y-137795000D03*
X126365000Y-137795000D03*
X123825000Y-135255000D03*
X126365000Y-135255000D03*
D10*
X144145000Y-122555000D03*
D11*
X144145000Y-120015000D03*
X144145000Y-117475000D03*
X144145000Y-114935000D03*
X144145000Y-112395000D03*
X144145000Y-109855000D03*
X144145000Y-107315000D03*
X144145000Y-104775000D03*
D10*
X144145000Y-92075000D03*
D11*
X144145000Y-89535000D03*
X144145000Y-86995000D03*
X144145000Y-84455000D03*
X144145000Y-81915000D03*
X144145000Y-79375000D03*
X144145000Y-76835000D03*
X144145000Y-74295000D03*
D10*
X161925000Y-137795000D03*
D11*
X161925000Y-135255000D03*
X161925000Y-132715000D03*
X161925000Y-130175000D03*
X161925000Y-127635000D03*
X161925000Y-125095000D03*
X161925000Y-122555000D03*
X161925000Y-120015000D03*
D10*
X156845000Y-122555000D03*
D11*
X156845000Y-120015000D03*
X156845000Y-117475000D03*
X156845000Y-114935000D03*
X156845000Y-112395000D03*
X156845000Y-109855000D03*
X156845000Y-107315000D03*
X156845000Y-104775000D03*
D10*
X149225000Y-137795000D03*
D11*
X149225000Y-135255000D03*
X149225000Y-132715000D03*
X149225000Y-130175000D03*
X149225000Y-127635000D03*
X149225000Y-125095000D03*
X149225000Y-122555000D03*
X149225000Y-120015000D03*
D10*
X149225000Y-89535000D03*
D11*
X149225000Y-92075000D03*
X149225000Y-94615000D03*
X149225000Y-97155000D03*
X149225000Y-99695000D03*
X149225000Y-102235000D03*
X149225000Y-104775000D03*
X149225000Y-107315000D03*
D10*
X164460000Y-142875000D03*
D11*
X167000000Y-142875000D03*
D14*
X129777000Y-124210000D03*
X129777000Y-123560000D03*
X129777000Y-122910000D03*
X129777000Y-122260000D03*
X129777000Y-121610000D03*
X129777000Y-120960000D03*
X129777000Y-120310000D03*
X129777000Y-119660000D03*
X129777000Y-119010000D03*
X129777000Y-118360000D03*
X135653000Y-118360000D03*
X135653000Y-119010000D03*
X135653000Y-119660000D03*
X135653000Y-120310000D03*
X135653000Y-120960000D03*
X135653000Y-121610000D03*
X135653000Y-122260000D03*
X135653000Y-122910000D03*
X135653000Y-123560000D03*
X135653000Y-124210000D03*
X129777000Y-114050000D03*
X129777000Y-113400000D03*
X129777000Y-112750000D03*
X129777000Y-112100000D03*
X129777000Y-111450000D03*
X129777000Y-110800000D03*
X129777000Y-110150000D03*
X129777000Y-109500000D03*
X129777000Y-108850000D03*
X129777000Y-108200000D03*
X135653000Y-108200000D03*
X135653000Y-108850000D03*
X135653000Y-109500000D03*
X135653000Y-110150000D03*
X135653000Y-110800000D03*
X135653000Y-111450000D03*
X135653000Y-112100000D03*
X135653000Y-112750000D03*
X135653000Y-113400000D03*
X135653000Y-114050000D03*
X129777000Y-93730000D03*
X129777000Y-93080000D03*
X129777000Y-92430000D03*
X129777000Y-91780000D03*
X129777000Y-91130000D03*
X129777000Y-90480000D03*
X129777000Y-89830000D03*
X129777000Y-89180000D03*
X129777000Y-88530000D03*
X129777000Y-87880000D03*
X135653000Y-87880000D03*
X135653000Y-88530000D03*
X135653000Y-89180000D03*
X135653000Y-89830000D03*
X135653000Y-90480000D03*
X135653000Y-91130000D03*
X135653000Y-91780000D03*
X135653000Y-92430000D03*
X135653000Y-93080000D03*
X135653000Y-93730000D03*
M02*
