G04 #@! TF.GenerationSoftware,KiCad,Pcbnew,7.0.1*
G04 #@! TF.CreationDate,2023-04-30T12:50:43-04:00*
G04 #@! TF.ProjectId,5v levelshifter board,3576206c-6576-4656-9c73-686966746572,rev?*
G04 #@! TF.SameCoordinates,Original*
G04 #@! TF.FileFunction,Paste,Bot*
G04 #@! TF.FilePolarity,Positive*
%FSLAX46Y46*%
G04 Gerber Fmt 4.6, Leading zero omitted, Abs format (unit mm)*
G04 Created by KiCad (PCBNEW 7.0.1) date 2023-04-30 12:50:43*
%MOMM*%
%LPD*%
G01*
G04 APERTURE LIST*
%ADD10R,1.475000X0.450000*%
G04 APERTURE END LIST*
D10*
X129777000Y-124210000D03*
X129777000Y-123560000D03*
X129777000Y-122910000D03*
X129777000Y-122260000D03*
X129777000Y-121610000D03*
X129777000Y-120960000D03*
X129777000Y-120310000D03*
X129777000Y-119660000D03*
X129777000Y-119010000D03*
X129777000Y-118360000D03*
X135653000Y-118360000D03*
X135653000Y-119010000D03*
X135653000Y-119660000D03*
X135653000Y-120310000D03*
X135653000Y-120960000D03*
X135653000Y-121610000D03*
X135653000Y-122260000D03*
X135653000Y-122910000D03*
X135653000Y-123560000D03*
X135653000Y-124210000D03*
X129777000Y-114050000D03*
X129777000Y-113400000D03*
X129777000Y-112750000D03*
X129777000Y-112100000D03*
X129777000Y-111450000D03*
X129777000Y-110800000D03*
X129777000Y-110150000D03*
X129777000Y-109500000D03*
X129777000Y-108850000D03*
X129777000Y-108200000D03*
X135653000Y-108200000D03*
X135653000Y-108850000D03*
X135653000Y-109500000D03*
X135653000Y-110150000D03*
X135653000Y-110800000D03*
X135653000Y-111450000D03*
X135653000Y-112100000D03*
X135653000Y-112750000D03*
X135653000Y-113400000D03*
X135653000Y-114050000D03*
X129777000Y-93730000D03*
X129777000Y-93080000D03*
X129777000Y-92430000D03*
X129777000Y-91780000D03*
X129777000Y-91130000D03*
X129777000Y-90480000D03*
X129777000Y-89830000D03*
X129777000Y-89180000D03*
X129777000Y-88530000D03*
X129777000Y-87880000D03*
X135653000Y-87880000D03*
X135653000Y-88530000D03*
X135653000Y-89180000D03*
X135653000Y-89830000D03*
X135653000Y-90480000D03*
X135653000Y-91130000D03*
X135653000Y-91780000D03*
X135653000Y-92430000D03*
X135653000Y-93080000D03*
X135653000Y-93730000D03*
M02*
