G04 #@! TF.GenerationSoftware,KiCad,Pcbnew,7.0.1*
G04 #@! TF.CreationDate,2023-04-30T12:50:43-04:00*
G04 #@! TF.ProjectId,5v levelshifter board,3576206c-6576-4656-9c73-686966746572,rev?*
G04 #@! TF.SameCoordinates,Original*
G04 #@! TF.FileFunction,Legend,Bot*
G04 #@! TF.FilePolarity,Positive*
%FSLAX46Y46*%
G04 Gerber Fmt 4.6, Leading zero omitted, Abs format (unit mm)*
G04 Created by KiCad (PCBNEW 7.0.1) date 2023-04-30 12:50:43*
%MOMM*%
%LPD*%
G01*
G04 APERTURE LIST*
%ADD10C,0.150000*%
%ADD11C,0.200000*%
G04 APERTURE END LIST*
D10*
X128417619Y-146526238D02*
X128417619Y-147097666D01*
X129417619Y-146811952D02*
X128417619Y-146811952D01*
X129322380Y-148002428D02*
X129370000Y-147954809D01*
X129370000Y-147954809D02*
X129417619Y-147811952D01*
X129417619Y-147811952D02*
X129417619Y-147716714D01*
X129417619Y-147716714D02*
X129370000Y-147573857D01*
X129370000Y-147573857D02*
X129274761Y-147478619D01*
X129274761Y-147478619D02*
X129179523Y-147431000D01*
X129179523Y-147431000D02*
X128989047Y-147383381D01*
X128989047Y-147383381D02*
X128846190Y-147383381D01*
X128846190Y-147383381D02*
X128655714Y-147431000D01*
X128655714Y-147431000D02*
X128560476Y-147478619D01*
X128560476Y-147478619D02*
X128465238Y-147573857D01*
X128465238Y-147573857D02*
X128417619Y-147716714D01*
X128417619Y-147716714D02*
X128417619Y-147811952D01*
X128417619Y-147811952D02*
X128465238Y-147954809D01*
X128465238Y-147954809D02*
X128512857Y-148002428D01*
X129417619Y-148431000D02*
X128417619Y-148431000D01*
X129417619Y-149002428D02*
X128846190Y-148573857D01*
X128417619Y-149002428D02*
X128989047Y-148431000D01*
X130957619Y-146526238D02*
X130957619Y-147097666D01*
X131957619Y-146811952D02*
X130957619Y-146811952D01*
X131957619Y-147431000D02*
X130957619Y-147431000D01*
X130957619Y-147431000D02*
X130957619Y-147669095D01*
X130957619Y-147669095D02*
X131005238Y-147811952D01*
X131005238Y-147811952D02*
X131100476Y-147907190D01*
X131100476Y-147907190D02*
X131195714Y-147954809D01*
X131195714Y-147954809D02*
X131386190Y-148002428D01*
X131386190Y-148002428D02*
X131529047Y-148002428D01*
X131529047Y-148002428D02*
X131719523Y-147954809D01*
X131719523Y-147954809D02*
X131814761Y-147907190D01*
X131814761Y-147907190D02*
X131910000Y-147811952D01*
X131910000Y-147811952D02*
X131957619Y-147669095D01*
X131957619Y-147669095D02*
X131957619Y-147431000D01*
X130957619Y-148621476D02*
X130957619Y-148811952D01*
X130957619Y-148811952D02*
X131005238Y-148907190D01*
X131005238Y-148907190D02*
X131100476Y-149002428D01*
X131100476Y-149002428D02*
X131290952Y-149050047D01*
X131290952Y-149050047D02*
X131624285Y-149050047D01*
X131624285Y-149050047D02*
X131814761Y-149002428D01*
X131814761Y-149002428D02*
X131910000Y-148907190D01*
X131910000Y-148907190D02*
X131957619Y-148811952D01*
X131957619Y-148811952D02*
X131957619Y-148621476D01*
X131957619Y-148621476D02*
X131910000Y-148526238D01*
X131910000Y-148526238D02*
X131814761Y-148431000D01*
X131814761Y-148431000D02*
X131624285Y-148383381D01*
X131624285Y-148383381D02*
X131290952Y-148383381D01*
X131290952Y-148383381D02*
X131100476Y-148431000D01*
X131100476Y-148431000D02*
X131005238Y-148526238D01*
X131005238Y-148526238D02*
X130957619Y-148621476D01*
X133497619Y-146526238D02*
X133497619Y-147097666D01*
X134497619Y-146811952D02*
X133497619Y-146811952D01*
X134497619Y-147431000D02*
X133497619Y-147431000D01*
X133497619Y-147431000D02*
X134211904Y-147764333D01*
X134211904Y-147764333D02*
X133497619Y-148097666D01*
X133497619Y-148097666D02*
X134497619Y-148097666D01*
X134450000Y-148526238D02*
X134497619Y-148669095D01*
X134497619Y-148669095D02*
X134497619Y-148907190D01*
X134497619Y-148907190D02*
X134450000Y-149002428D01*
X134450000Y-149002428D02*
X134402380Y-149050047D01*
X134402380Y-149050047D02*
X134307142Y-149097666D01*
X134307142Y-149097666D02*
X134211904Y-149097666D01*
X134211904Y-149097666D02*
X134116666Y-149050047D01*
X134116666Y-149050047D02*
X134069047Y-149002428D01*
X134069047Y-149002428D02*
X134021428Y-148907190D01*
X134021428Y-148907190D02*
X133973809Y-148716714D01*
X133973809Y-148716714D02*
X133926190Y-148621476D01*
X133926190Y-148621476D02*
X133878571Y-148573857D01*
X133878571Y-148573857D02*
X133783333Y-148526238D01*
X133783333Y-148526238D02*
X133688095Y-148526238D01*
X133688095Y-148526238D02*
X133592857Y-148573857D01*
X133592857Y-148573857D02*
X133545238Y-148621476D01*
X133545238Y-148621476D02*
X133497619Y-148716714D01*
X133497619Y-148716714D02*
X133497619Y-148954809D01*
X133497619Y-148954809D02*
X133545238Y-149097666D01*
X138577619Y-146780238D02*
X138577619Y-147351666D01*
X139577619Y-147065952D02*
X138577619Y-147065952D01*
X139577619Y-147685000D02*
X138577619Y-147685000D01*
X138577619Y-147685000D02*
X138577619Y-147923095D01*
X138577619Y-147923095D02*
X138625238Y-148065952D01*
X138625238Y-148065952D02*
X138720476Y-148161190D01*
X138720476Y-148161190D02*
X138815714Y-148208809D01*
X138815714Y-148208809D02*
X139006190Y-148256428D01*
X139006190Y-148256428D02*
X139149047Y-148256428D01*
X139149047Y-148256428D02*
X139339523Y-148208809D01*
X139339523Y-148208809D02*
X139434761Y-148161190D01*
X139434761Y-148161190D02*
X139530000Y-148065952D01*
X139530000Y-148065952D02*
X139577619Y-147923095D01*
X139577619Y-147923095D02*
X139577619Y-147685000D01*
X139577619Y-148685000D02*
X138577619Y-148685000D01*
X138625238Y-139572904D02*
X138577619Y-139477666D01*
X138577619Y-139477666D02*
X138577619Y-139334809D01*
X138577619Y-139334809D02*
X138625238Y-139191952D01*
X138625238Y-139191952D02*
X138720476Y-139096714D01*
X138720476Y-139096714D02*
X138815714Y-139049095D01*
X138815714Y-139049095D02*
X139006190Y-139001476D01*
X139006190Y-139001476D02*
X139149047Y-139001476D01*
X139149047Y-139001476D02*
X139339523Y-139049095D01*
X139339523Y-139049095D02*
X139434761Y-139096714D01*
X139434761Y-139096714D02*
X139530000Y-139191952D01*
X139530000Y-139191952D02*
X139577619Y-139334809D01*
X139577619Y-139334809D02*
X139577619Y-139430047D01*
X139577619Y-139430047D02*
X139530000Y-139572904D01*
X139530000Y-139572904D02*
X139482380Y-139620523D01*
X139482380Y-139620523D02*
X139149047Y-139620523D01*
X139149047Y-139620523D02*
X139149047Y-139430047D01*
X139577619Y-140049095D02*
X138577619Y-140049095D01*
X138577619Y-140049095D02*
X139577619Y-140620523D01*
X139577619Y-140620523D02*
X138577619Y-140620523D01*
X139577619Y-141096714D02*
X138577619Y-141096714D01*
X138577619Y-141096714D02*
X138577619Y-141334809D01*
X138577619Y-141334809D02*
X138625238Y-141477666D01*
X138625238Y-141477666D02*
X138720476Y-141572904D01*
X138720476Y-141572904D02*
X138815714Y-141620523D01*
X138815714Y-141620523D02*
X139006190Y-141668142D01*
X139006190Y-141668142D02*
X139149047Y-141668142D01*
X139149047Y-141668142D02*
X139339523Y-141620523D01*
X139339523Y-141620523D02*
X139434761Y-141572904D01*
X139434761Y-141572904D02*
X139530000Y-141477666D01*
X139530000Y-141477666D02*
X139577619Y-141334809D01*
X139577619Y-141334809D02*
X139577619Y-141096714D01*
X134497619Y-139874523D02*
X134021428Y-139541190D01*
X134497619Y-139303095D02*
X133497619Y-139303095D01*
X133497619Y-139303095D02*
X133497619Y-139684047D01*
X133497619Y-139684047D02*
X133545238Y-139779285D01*
X133545238Y-139779285D02*
X133592857Y-139826904D01*
X133592857Y-139826904D02*
X133688095Y-139874523D01*
X133688095Y-139874523D02*
X133830952Y-139874523D01*
X133830952Y-139874523D02*
X133926190Y-139826904D01*
X133926190Y-139826904D02*
X133973809Y-139779285D01*
X133973809Y-139779285D02*
X134021428Y-139684047D01*
X134021428Y-139684047D02*
X134021428Y-139303095D01*
X134450000Y-140255476D02*
X134497619Y-140398333D01*
X134497619Y-140398333D02*
X134497619Y-140636428D01*
X134497619Y-140636428D02*
X134450000Y-140731666D01*
X134450000Y-140731666D02*
X134402380Y-140779285D01*
X134402380Y-140779285D02*
X134307142Y-140826904D01*
X134307142Y-140826904D02*
X134211904Y-140826904D01*
X134211904Y-140826904D02*
X134116666Y-140779285D01*
X134116666Y-140779285D02*
X134069047Y-140731666D01*
X134069047Y-140731666D02*
X134021428Y-140636428D01*
X134021428Y-140636428D02*
X133973809Y-140445952D01*
X133973809Y-140445952D02*
X133926190Y-140350714D01*
X133926190Y-140350714D02*
X133878571Y-140303095D01*
X133878571Y-140303095D02*
X133783333Y-140255476D01*
X133783333Y-140255476D02*
X133688095Y-140255476D01*
X133688095Y-140255476D02*
X133592857Y-140303095D01*
X133592857Y-140303095D02*
X133545238Y-140350714D01*
X133545238Y-140350714D02*
X133497619Y-140445952D01*
X133497619Y-140445952D02*
X133497619Y-140684047D01*
X133497619Y-140684047D02*
X133545238Y-140826904D01*
X133497619Y-141112619D02*
X133497619Y-141684047D01*
X134497619Y-141398333D02*
X133497619Y-141398333D01*
X129687619Y-138525238D02*
X130687619Y-138858571D01*
X130687619Y-138858571D02*
X129687619Y-139191904D01*
X130020952Y-139525238D02*
X130878095Y-139525238D01*
X130878095Y-139525238D02*
X130973333Y-139477619D01*
X130973333Y-139477619D02*
X131020952Y-139382381D01*
X131020952Y-139382381D02*
X131020952Y-139334762D01*
X129687619Y-139525238D02*
X129735238Y-139477619D01*
X129735238Y-139477619D02*
X129782857Y-139525238D01*
X129782857Y-139525238D02*
X129735238Y-139572857D01*
X129735238Y-139572857D02*
X129687619Y-139525238D01*
X129687619Y-139525238D02*
X129782857Y-139525238D01*
X130020952Y-139858571D02*
X130020952Y-140239523D01*
X129687619Y-140001428D02*
X130544761Y-140001428D01*
X130544761Y-140001428D02*
X130640000Y-140049047D01*
X130640000Y-140049047D02*
X130687619Y-140144285D01*
X130687619Y-140144285D02*
X130687619Y-140239523D01*
X130687619Y-141001428D02*
X130163809Y-141001428D01*
X130163809Y-141001428D02*
X130068571Y-140953809D01*
X130068571Y-140953809D02*
X130020952Y-140858571D01*
X130020952Y-140858571D02*
X130020952Y-140668095D01*
X130020952Y-140668095D02*
X130068571Y-140572857D01*
X130640000Y-141001428D02*
X130687619Y-140906190D01*
X130687619Y-140906190D02*
X130687619Y-140668095D01*
X130687619Y-140668095D02*
X130640000Y-140572857D01*
X130640000Y-140572857D02*
X130544761Y-140525238D01*
X130544761Y-140525238D02*
X130449523Y-140525238D01*
X130449523Y-140525238D02*
X130354285Y-140572857D01*
X130354285Y-140572857D02*
X130306666Y-140668095D01*
X130306666Y-140668095D02*
X130306666Y-140906190D01*
X130306666Y-140906190D02*
X130259047Y-141001428D01*
X130020952Y-141906190D02*
X130830476Y-141906190D01*
X130830476Y-141906190D02*
X130925714Y-141858571D01*
X130925714Y-141858571D02*
X130973333Y-141810952D01*
X130973333Y-141810952D02*
X131020952Y-141715714D01*
X131020952Y-141715714D02*
X131020952Y-141572857D01*
X131020952Y-141572857D02*
X130973333Y-141477619D01*
X130640000Y-141906190D02*
X130687619Y-141810952D01*
X130687619Y-141810952D02*
X130687619Y-141620476D01*
X130687619Y-141620476D02*
X130640000Y-141525238D01*
X130640000Y-141525238D02*
X130592380Y-141477619D01*
X130592380Y-141477619D02*
X130497142Y-141430000D01*
X130497142Y-141430000D02*
X130211428Y-141430000D01*
X130211428Y-141430000D02*
X130116190Y-141477619D01*
X130116190Y-141477619D02*
X130068571Y-141525238D01*
X130068571Y-141525238D02*
X130020952Y-141620476D01*
X130020952Y-141620476D02*
X130020952Y-141810952D01*
X130020952Y-141810952D02*
X130068571Y-141906190D01*
D11*
X129040000Y-124785000D02*
X130515000Y-124785000D01*
X130865000Y-118035000D02*
X130865000Y-124535000D01*
X130865000Y-124535000D02*
X134565000Y-124535000D01*
X134565000Y-118035000D02*
X130865000Y-118035000D01*
X134565000Y-124535000D02*
X134565000Y-118035000D01*
X129040000Y-114625000D02*
X130515000Y-114625000D01*
X130865000Y-107875000D02*
X130865000Y-114375000D01*
X130865000Y-114375000D02*
X134565000Y-114375000D01*
X134565000Y-107875000D02*
X130865000Y-107875000D01*
X134565000Y-114375000D02*
X134565000Y-107875000D01*
X129040000Y-94305000D02*
X130515000Y-94305000D01*
X130865000Y-87555000D02*
X130865000Y-94055000D01*
X130865000Y-94055000D02*
X134565000Y-94055000D01*
X134565000Y-87555000D02*
X130865000Y-87555000D01*
X134565000Y-94055000D02*
X134565000Y-87555000D01*
G36*
X140302677Y-134075800D02*
G01*
X140344860Y-134086756D01*
X140382837Y-134108210D01*
X140404705Y-134124889D01*
X140404705Y-134080492D01*
X140504729Y-134080492D01*
X140504729Y-134574364D01*
X140404705Y-134574364D01*
X140404695Y-134410261D01*
X140404662Y-134377446D01*
X140404441Y-134333757D01*
X140403930Y-134300000D01*
X140403036Y-134274591D01*
X140401665Y-134255944D01*
X140399723Y-134242474D01*
X140397118Y-134232595D01*
X140393755Y-134224722D01*
X140383847Y-134209290D01*
X140360113Y-134188292D01*
X140331121Y-134176753D01*
X140299599Y-134175525D01*
X140268272Y-134185462D01*
X140243794Y-134198221D01*
X140207699Y-134154346D01*
X140206920Y-134153397D01*
X140189951Y-134131992D01*
X140180510Y-134117879D01*
X140177623Y-134109283D01*
X140180315Y-134104426D01*
X140216343Y-134085579D01*
X140258950Y-134075391D01*
X140302677Y-134075800D01*
G37*
G36*
X142311188Y-134075965D02*
G01*
X142351323Y-134087909D01*
X142386490Y-134110115D01*
X142411448Y-134131479D01*
X142411448Y-134080492D01*
X142511473Y-134080492D01*
X142511473Y-134574364D01*
X142411448Y-134574364D01*
X142411448Y-134413148D01*
X142411443Y-134391833D01*
X142411343Y-134347135D01*
X142411020Y-134312579D01*
X142410349Y-134286483D01*
X142409203Y-134267165D01*
X142407459Y-134252943D01*
X142404991Y-134242136D01*
X142401674Y-134233062D01*
X142397382Y-134224039D01*
X142383404Y-134203807D01*
X142358789Y-134184808D01*
X142329661Y-134175030D01*
X142298927Y-134175323D01*
X142269490Y-134186539D01*
X142249436Y-134198766D01*
X142214789Y-134157025D01*
X142208301Y-134149116D01*
X142193896Y-134130800D01*
X142183890Y-134116956D01*
X142180141Y-134110103D01*
X142183363Y-134106371D01*
X142195279Y-134098697D01*
X142212962Y-134089643D01*
X142226396Y-134084084D01*
X142268680Y-134074588D01*
X142311188Y-134075965D01*
G37*
G36*
X140210005Y-133298593D02*
G01*
X140242825Y-133313131D01*
X140268031Y-133334542D01*
X140268815Y-133335481D01*
X140274088Y-133339819D01*
X140277196Y-133335413D01*
X140279674Y-133320400D01*
X140282800Y-133295924D01*
X140334375Y-133294108D01*
X140385950Y-133292293D01*
X140385950Y-133793427D01*
X140334375Y-133791611D01*
X140282800Y-133789796D01*
X140279674Y-133617878D01*
X140279187Y-133591424D01*
X140278170Y-133543364D01*
X140276942Y-133505612D01*
X140275209Y-133476674D01*
X140272680Y-133455055D01*
X140269060Y-133439263D01*
X140264057Y-133427801D01*
X140257378Y-133419178D01*
X140248730Y-133411898D01*
X140237820Y-133404468D01*
X140221225Y-133397232D01*
X140194115Y-133393181D01*
X140165425Y-133395096D01*
X140140488Y-133403054D01*
X140120703Y-133413286D01*
X140096691Y-133385863D01*
X140086917Y-133374505D01*
X140071626Y-133356055D01*
X140060480Y-133341784D01*
X140048280Y-133325129D01*
X140068842Y-133312421D01*
X140096317Y-133299594D01*
X140133705Y-133291486D01*
X140172616Y-133291265D01*
X140210005Y-133298593D01*
G37*
G36*
X140837908Y-133294113D02*
G01*
X140889199Y-133295924D01*
X140889167Y-133480344D01*
X140889165Y-133486771D01*
X140889114Y-133538487D01*
X140888920Y-133579436D01*
X140888477Y-133611183D01*
X140887682Y-133635292D01*
X140886431Y-133653328D01*
X140884617Y-133666855D01*
X140882138Y-133677436D01*
X140878889Y-133686638D01*
X140874765Y-133696022D01*
X140865605Y-133713573D01*
X140837353Y-133749845D01*
X140801198Y-133776638D01*
X140757917Y-133793307D01*
X140748313Y-133795289D01*
X140706678Y-133796291D01*
X140664252Y-133785917D01*
X140623301Y-133764650D01*
X140592251Y-133743754D01*
X140592251Y-133792921D01*
X140492226Y-133792921D01*
X140492226Y-133292798D01*
X140592251Y-133292798D01*
X140592251Y-133454014D01*
X140592256Y-133475468D01*
X140592356Y-133520131D01*
X140592679Y-133554655D01*
X140593351Y-133580721D01*
X140594496Y-133600008D01*
X140596241Y-133614197D01*
X140598709Y-133624969D01*
X140602026Y-133634003D01*
X140606317Y-133642980D01*
X140610968Y-133651387D01*
X140631686Y-133675627D01*
X140658805Y-133689554D01*
X140693485Y-133693845D01*
X140698369Y-133693738D01*
X140726247Y-133689097D01*
X140748879Y-133676186D01*
X140770033Y-133652994D01*
X140772169Y-133649993D01*
X140775555Y-133643882D01*
X140778186Y-133635918D01*
X140780181Y-133624580D01*
X140781658Y-133608346D01*
X140782737Y-133585694D01*
X140783537Y-133555104D01*
X140784174Y-133515054D01*
X140784770Y-133464023D01*
X140786616Y-133292302D01*
X140837908Y-133294113D01*
G37*
G36*
X142346162Y-133295800D02*
G01*
X142379466Y-133308183D01*
X142405345Y-133327339D01*
X142414651Y-133336500D01*
X142424149Y-133341696D01*
X142428904Y-133335629D01*
X142430203Y-133317804D01*
X142430203Y-133292798D01*
X142530228Y-133292798D01*
X142530228Y-133792921D01*
X142431110Y-133792921D01*
X142429094Y-133625693D01*
X142428639Y-133589193D01*
X142428001Y-133546886D01*
X142427245Y-133514355D01*
X142426232Y-133490000D01*
X142424821Y-133472222D01*
X142422873Y-133459420D01*
X142420248Y-133449994D01*
X142416807Y-133442343D01*
X142412408Y-133434869D01*
X142409596Y-133430537D01*
X142389343Y-133408786D01*
X142363559Y-133396614D01*
X142329891Y-133392823D01*
X142297499Y-133396765D01*
X142271129Y-133409841D01*
X142251319Y-133432742D01*
X142247962Y-133439182D01*
X142245067Y-133447755D01*
X142242791Y-133459551D01*
X142241011Y-133476116D01*
X142239606Y-133498997D01*
X142238451Y-133529741D01*
X142237425Y-133569895D01*
X142236405Y-133621004D01*
X142233280Y-133789796D01*
X142181213Y-133791619D01*
X142129147Y-133793443D01*
X142131201Y-133607199D01*
X142131230Y-133604587D01*
X142131854Y-133551735D01*
X142132503Y-133509759D01*
X142133296Y-133477104D01*
X142134349Y-133452211D01*
X142135782Y-133433524D01*
X142137711Y-133419486D01*
X142140255Y-133408541D01*
X142143530Y-133399130D01*
X142147656Y-133389697D01*
X142166194Y-133357025D01*
X142192145Y-133329184D01*
X142227028Y-133306819D01*
X142234898Y-133303112D01*
X142270558Y-133292882D01*
X142308753Y-133290572D01*
X142346162Y-133295800D01*
G37*
G36*
X143019271Y-133499099D02*
G01*
X143020636Y-133507424D01*
X143022203Y-133559975D01*
X143016932Y-133611625D01*
X143004793Y-133660000D01*
X142985756Y-133702730D01*
X142959791Y-133737443D01*
X142936627Y-133756949D01*
X142897548Y-133778874D01*
X142854484Y-133792715D01*
X142826693Y-133795811D01*
X142788059Y-133794766D01*
X142748420Y-133789114D01*
X142713299Y-133779376D01*
X142699327Y-133773062D01*
X142674128Y-133758007D01*
X142652143Y-133740966D01*
X142623651Y-133714777D01*
X142659512Y-133685185D01*
X142667670Y-133678494D01*
X142683416Y-133666362D01*
X142693562Y-133660842D01*
X142700879Y-133660788D01*
X142708136Y-133665052D01*
X142711204Y-133667275D01*
X142748821Y-133687592D01*
X142788693Y-133697834D01*
X142828191Y-133697639D01*
X142864686Y-133686645D01*
X142889884Y-133668031D01*
X142909138Y-133639670D01*
X142920468Y-133603812D01*
X142924641Y-133580369D01*
X142611498Y-133580369D01*
X142611545Y-133541297D01*
X142612040Y-133516930D01*
X142613854Y-133499099D01*
X142717774Y-133499099D01*
X142923762Y-133499099D01*
X142920094Y-133478781D01*
X142913204Y-133453361D01*
X142896984Y-133422597D01*
X142874701Y-133400720D01*
X142858629Y-133392794D01*
X142828501Y-133386741D01*
X142796586Y-133388494D01*
X142767844Y-133398170D01*
X142752805Y-133409653D01*
X142735333Y-133431635D01*
X142722661Y-133457179D01*
X142717774Y-133481328D01*
X142717774Y-133499099D01*
X142613854Y-133499099D01*
X142617486Y-133463407D01*
X142629400Y-133418594D01*
X142648352Y-133380759D01*
X142674910Y-133348165D01*
X142702283Y-133325489D01*
X142743213Y-133304044D01*
X142787552Y-133292312D01*
X142833093Y-133290332D01*
X142877628Y-133298143D01*
X142918948Y-133315782D01*
X142954848Y-133343288D01*
X142975202Y-133368073D01*
X142997106Y-133409101D01*
X143012260Y-133456342D01*
X143019271Y-133499099D01*
G37*
G36*
X140167129Y-134280541D02*
G01*
X140167285Y-134281349D01*
X140168331Y-134292044D01*
X140169412Y-134347588D01*
X140163479Y-134400463D01*
X140151012Y-134447828D01*
X140132494Y-134486842D01*
X140117636Y-134508242D01*
X140091727Y-134535475D01*
X140060432Y-134555912D01*
X140020235Y-134572229D01*
X139998192Y-134577181D01*
X139962098Y-134579604D01*
X139922906Y-134577480D01*
X139885380Y-134571135D01*
X139854284Y-134560895D01*
X139848193Y-134557955D01*
X139827075Y-134545974D01*
X139806587Y-134532124D01*
X139789302Y-134518394D01*
X139777791Y-134506774D01*
X139774626Y-134499256D01*
X139774699Y-134499097D01*
X139780529Y-134492625D01*
X139793223Y-134480762D01*
X139810172Y-134465952D01*
X139843920Y-134437278D01*
X139862163Y-134452629D01*
X139883700Y-134466108D01*
X139913946Y-134477553D01*
X139945689Y-134483929D01*
X139973433Y-134483702D01*
X140006551Y-134472814D01*
X140034754Y-134452784D01*
X140055044Y-134425845D01*
X140065277Y-134394091D01*
X140068768Y-134368063D01*
X139759223Y-134368063D01*
X139761949Y-134296836D01*
X139762147Y-134291763D01*
X139762719Y-134280541D01*
X139861133Y-134280541D01*
X140068768Y-134280541D01*
X140065277Y-134254513D01*
X140056081Y-134223679D01*
X140036720Y-134197012D01*
X140009121Y-134178467D01*
X139974917Y-134169577D01*
X139956192Y-134169240D01*
X139923592Y-134177018D01*
X139896900Y-134195292D01*
X139877057Y-134223287D01*
X139865005Y-134260224D01*
X139861133Y-134280541D01*
X139762719Y-134280541D01*
X139763720Y-134260901D01*
X139766051Y-134238369D01*
X139769895Y-134220495D01*
X139776006Y-134203609D01*
X139785140Y-134184040D01*
X139807066Y-134148225D01*
X139840135Y-134114336D01*
X139880076Y-134090766D01*
X139926448Y-134077762D01*
X139978808Y-134075572D01*
X139985076Y-134076027D01*
X140033579Y-134085742D01*
X140075299Y-134105773D01*
X140109883Y-134135736D01*
X140136977Y-134175243D01*
X140156229Y-134223909D01*
X140167129Y-134280541D01*
G37*
G36*
X139628722Y-133499099D02*
G01*
X139628762Y-133499472D01*
X139630054Y-133535519D01*
X139629451Y-133573025D01*
X139626988Y-133607379D01*
X139622700Y-133633969D01*
X139610097Y-133672741D01*
X139585702Y-133716724D01*
X139552952Y-133751624D01*
X139512212Y-133777074D01*
X139463848Y-133792708D01*
X139460870Y-133793295D01*
X139406895Y-133797426D01*
X139353548Y-133789787D01*
X139303082Y-133770941D01*
X139257750Y-133741447D01*
X139251269Y-133735882D01*
X139240090Y-133724868D01*
X139235667Y-133718207D01*
X139235698Y-133717966D01*
X139240789Y-133711179D01*
X139252907Y-133699098D01*
X139269612Y-133684170D01*
X139303557Y-133655169D01*
X139326184Y-133670524D01*
X139329735Y-133672850D01*
X139350897Y-133684624D01*
X139371045Y-133693217D01*
X139380905Y-133695786D01*
X139408319Y-133698513D01*
X139437851Y-133696956D01*
X139464746Y-133691555D01*
X139484250Y-133682748D01*
X139499816Y-133666790D01*
X139514510Y-133643823D01*
X139525297Y-133619144D01*
X139529489Y-133597799D01*
X139529489Y-133580369D01*
X139221814Y-133580369D01*
X139224378Y-133510039D01*
X139225152Y-133499099D01*
X139321797Y-133499099D01*
X139529489Y-133499099D01*
X139529489Y-133481328D01*
X139526450Y-133462786D01*
X139515235Y-133437124D01*
X139498563Y-133413933D01*
X139479419Y-133398170D01*
X139478520Y-133397698D01*
X139454303Y-133389620D01*
X139425798Y-133386571D01*
X139418949Y-133386768D01*
X139385333Y-133394359D01*
X139357972Y-133412311D01*
X139337886Y-133439713D01*
X139326091Y-133475656D01*
X139321797Y-133499099D01*
X139225152Y-133499099D01*
X139227583Y-133464718D01*
X139234361Y-133427731D01*
X139245730Y-133397451D01*
X139262751Y-133371071D01*
X139286484Y-133345789D01*
X139324084Y-133317394D01*
X139368904Y-133297477D01*
X139416608Y-133289200D01*
X139465733Y-133292995D01*
X139508329Y-133306291D01*
X139548831Y-133330633D01*
X139581761Y-133364780D01*
X139606894Y-133408495D01*
X139624006Y-133461537D01*
X139625540Y-133469494D01*
X139628722Y-133499099D01*
G37*
G36*
X139868871Y-133292238D02*
G01*
X139906992Y-133301047D01*
X139953834Y-133321097D01*
X139992027Y-133350091D01*
X140021702Y-133388168D01*
X140042990Y-133435468D01*
X140056022Y-133492132D01*
X140059813Y-133546952D01*
X140055257Y-133601558D01*
X140042680Y-133652106D01*
X140022645Y-133696354D01*
X139995717Y-133732062D01*
X139989313Y-133738200D01*
X139956202Y-133762577D01*
X139917916Y-133781771D01*
X139880003Y-133792867D01*
X139856022Y-133796394D01*
X139828330Y-133797908D01*
X139803099Y-133795074D01*
X139774799Y-133787619D01*
X139762987Y-133783538D01*
X139727908Y-133767273D01*
X139695545Y-133746747D01*
X139670743Y-133724882D01*
X139663316Y-133715808D01*
X139662768Y-133708513D01*
X139670743Y-133698459D01*
X139674378Y-133694658D01*
X139688995Y-133681044D01*
X139705962Y-133666782D01*
X139729272Y-133648296D01*
X139751727Y-133665423D01*
X139756668Y-133669027D01*
X139790678Y-133686417D01*
X139826569Y-133693831D01*
X139862033Y-133691672D01*
X139894765Y-133680349D01*
X139922459Y-133660264D01*
X139942808Y-133631825D01*
X139943576Y-133630244D01*
X139950531Y-133613391D01*
X139954699Y-133595822D01*
X139956716Y-133573618D01*
X139957216Y-133542860D01*
X139957177Y-133533915D01*
X139956349Y-133506334D01*
X139953925Y-133486228D01*
X139949215Y-133469631D01*
X139941532Y-133452574D01*
X139924896Y-133427155D01*
X139900032Y-133406800D01*
X139868211Y-133395986D01*
X139828239Y-133394096D01*
X139816983Y-133394829D01*
X139794422Y-133398086D01*
X139776471Y-133404754D01*
X139757473Y-133416636D01*
X139728664Y-133436942D01*
X139705658Y-133418697D01*
X139699917Y-133414039D01*
X139683153Y-133399426D01*
X139670684Y-133387195D01*
X139668840Y-133385144D01*
X139662560Y-133376479D01*
X139663929Y-133369261D01*
X139673449Y-133358254D01*
X139676187Y-133355425D01*
X139706986Y-133330751D01*
X139745070Y-133309886D01*
X139785764Y-133295443D01*
X139795832Y-133292973D01*
X139819491Y-133288847D01*
X139841570Y-133288690D01*
X139868871Y-133292238D01*
G37*
G36*
X143980584Y-133542860D02*
G01*
X143980576Y-133546846D01*
X143978389Y-133600644D01*
X143971887Y-133644692D01*
X143960432Y-133681065D01*
X143943383Y-133711840D01*
X143920101Y-133739091D01*
X143904543Y-133753032D01*
X143863530Y-133778863D01*
X143818542Y-133793036D01*
X143783314Y-133795788D01*
X143742745Y-133793121D01*
X143705517Y-133785277D01*
X143679930Y-133774783D01*
X143642903Y-133749732D01*
X143611822Y-133716289D01*
X143589305Y-133676896D01*
X143584959Y-133663802D01*
X143578969Y-133632798D01*
X143575166Y-133594595D01*
X143573555Y-133552443D01*
X143573688Y-133542622D01*
X143674396Y-133542622D01*
X143675009Y-133571827D01*
X143678610Y-133611015D01*
X143685818Y-133640494D01*
X143697071Y-133661791D01*
X143712807Y-133676431D01*
X143712842Y-133676454D01*
X143742699Y-133689496D01*
X143775910Y-133693697D01*
X143808383Y-133689083D01*
X143836031Y-133675678D01*
X143845491Y-133668094D01*
X143858977Y-133653574D01*
X143868170Y-133636180D01*
X143873813Y-133613524D01*
X143876653Y-133583214D01*
X143877434Y-133542860D01*
X143877432Y-133539198D01*
X143877118Y-133506228D01*
X143876024Y-133482807D01*
X143873802Y-133466236D01*
X143870107Y-133453818D01*
X143864593Y-133442856D01*
X143849118Y-133422609D01*
X143823291Y-133403528D01*
X143793772Y-133393446D01*
X143763039Y-133392361D01*
X143733569Y-133400271D01*
X143707838Y-133417171D01*
X143688325Y-133443059D01*
X143682672Y-133455271D01*
X143678343Y-133469273D01*
X143675811Y-133486421D01*
X143674641Y-133509832D01*
X143674396Y-133542622D01*
X143573688Y-133542622D01*
X143574137Y-133509595D01*
X143576916Y-133469300D01*
X143581894Y-133434811D01*
X143589074Y-133409377D01*
X143598503Y-133389878D01*
X143625757Y-133352228D01*
X143660129Y-133322967D01*
X143699824Y-133302456D01*
X143743045Y-133291056D01*
X143787997Y-133289129D01*
X143832884Y-133297034D01*
X143875911Y-133315134D01*
X143915281Y-133343789D01*
X143924752Y-133352975D01*
X143946751Y-133379849D01*
X143962622Y-133410103D01*
X143973076Y-133445908D01*
X143978826Y-133489437D01*
X143980584Y-133542860D01*
G37*
G36*
X141381386Y-133542622D02*
G01*
X141380888Y-133573596D01*
X141377346Y-133616582D01*
X141371019Y-133654055D01*
X141361937Y-133682669D01*
X141338952Y-133720762D01*
X141305511Y-133754331D01*
X141264831Y-133778832D01*
X141218744Y-133792858D01*
X141208955Y-133794265D01*
X141169030Y-133795441D01*
X141128786Y-133790546D01*
X141094142Y-133780182D01*
X141068385Y-133765797D01*
X141036608Y-133739539D01*
X141009630Y-133708013D01*
X140991189Y-133675035D01*
X140987326Y-133664799D01*
X140982857Y-133649735D01*
X140979882Y-133633039D01*
X140978102Y-133611993D01*
X140977216Y-133583881D01*
X140976924Y-133545986D01*
X140976927Y-133542860D01*
X141076745Y-133542860D01*
X141076952Y-133565778D01*
X141078744Y-133600510D01*
X141082992Y-133626462D01*
X141090436Y-133646017D01*
X141101813Y-133661558D01*
X141117864Y-133675466D01*
X141136824Y-133686316D01*
X141169867Y-133693735D01*
X141206407Y-133689881D01*
X141206645Y-133689820D01*
X141232325Y-133680895D01*
X141251516Y-133667919D01*
X141265038Y-133649248D01*
X141273710Y-133623237D01*
X141278352Y-133588243D01*
X141279783Y-133542622D01*
X141279607Y-133513170D01*
X141278570Y-133488809D01*
X141276222Y-133471081D01*
X141272129Y-133456870D01*
X141265854Y-133443059D01*
X141261791Y-133435788D01*
X141240656Y-133411670D01*
X141212357Y-133397473D01*
X141176229Y-133392823D01*
X141175513Y-133392825D01*
X141140830Y-133398568D01*
X141112112Y-133415289D01*
X141089586Y-133442856D01*
X141088985Y-133443891D01*
X141083655Y-133454874D01*
X141080112Y-133467566D01*
X141078011Y-133484662D01*
X141077004Y-133508861D01*
X141076745Y-133542860D01*
X140976927Y-133542860D01*
X140976939Y-133532509D01*
X140978012Y-133487476D01*
X140981176Y-133451867D01*
X140987068Y-133423289D01*
X140996324Y-133399350D01*
X141009579Y-133377655D01*
X141027471Y-133355813D01*
X141059808Y-133326796D01*
X141100034Y-133304438D01*
X141143285Y-133291922D01*
X141187743Y-133288968D01*
X141231586Y-133295294D01*
X141272998Y-133310621D01*
X141310157Y-133334667D01*
X141341246Y-133367152D01*
X141364445Y-133407796D01*
X141366595Y-133413404D01*
X141374498Y-133445000D01*
X141379494Y-133484460D01*
X141381614Y-133528440D01*
X141381386Y-133542622D01*
G37*
G36*
X142170722Y-134357486D02*
G01*
X142170604Y-134387999D01*
X142170114Y-134417442D01*
X142169103Y-134439143D01*
X142167385Y-134455095D01*
X142164777Y-134467291D01*
X142161093Y-134477724D01*
X142156149Y-134488388D01*
X142152195Y-134495791D01*
X142128698Y-134527005D01*
X142098343Y-134553135D01*
X142065205Y-134570505D01*
X142059798Y-134572243D01*
X142034846Y-134577683D01*
X142010022Y-134580122D01*
X141998513Y-134579651D01*
X141970922Y-134574859D01*
X141942695Y-134566148D01*
X141918205Y-134555019D01*
X141901829Y-134542975D01*
X141897352Y-134538290D01*
X141887225Y-134531470D01*
X141881726Y-134536086D01*
X141880068Y-134552483D01*
X141880068Y-134574364D01*
X141780043Y-134574364D01*
X141780043Y-134327428D01*
X141883195Y-134327428D01*
X141883196Y-134329233D01*
X141884024Y-134371573D01*
X141886879Y-134403550D01*
X141892463Y-134427164D01*
X141901481Y-134444413D01*
X141914637Y-134457296D01*
X141932635Y-134467811D01*
X141952996Y-134475832D01*
X141983773Y-134479449D01*
X142016549Y-134472097D01*
X142022719Y-134469566D01*
X142043569Y-134454740D01*
X142058700Y-134431685D01*
X142068397Y-134399552D01*
X142072944Y-134357486D01*
X142072628Y-134304638D01*
X142070138Y-134269000D01*
X142065555Y-134238902D01*
X142058972Y-134219312D01*
X142048224Y-134203578D01*
X142025335Y-134185411D01*
X141997788Y-134175724D01*
X141968338Y-134174486D01*
X141939741Y-134181665D01*
X141914751Y-134197231D01*
X141896125Y-134221152D01*
X141895206Y-134222958D01*
X141889997Y-134235206D01*
X141886524Y-134249052D01*
X141884453Y-134267222D01*
X141883454Y-134292439D01*
X141883195Y-134327428D01*
X141780043Y-134327428D01*
X141780043Y-133873665D01*
X141828492Y-133875491D01*
X141876942Y-133877317D01*
X141878637Y-134000785D01*
X141878732Y-134007201D01*
X141879580Y-134044317D01*
X141880807Y-134076464D01*
X141882305Y-134101758D01*
X141883967Y-134118315D01*
X141885686Y-134124253D01*
X141890460Y-134122273D01*
X141899620Y-134113881D01*
X141902474Y-134110796D01*
X141921595Y-134097342D01*
X141947867Y-134085674D01*
X141976917Y-134077443D01*
X142004373Y-134074302D01*
X142013717Y-134074433D01*
X142052895Y-134079481D01*
X142086270Y-134092925D01*
X142117812Y-134116230D01*
X142133726Y-134131443D01*
X142146296Y-134146465D01*
X142155678Y-134162877D01*
X142162329Y-134182528D01*
X142166705Y-134207270D01*
X142169265Y-134238955D01*
X142170466Y-134279432D01*
X142170764Y-134330554D01*
X142170756Y-134348820D01*
X142170722Y-134357486D01*
G37*
G36*
X141676034Y-133289672D02*
G01*
X141703052Y-133294969D01*
X141748806Y-133310908D01*
X141784404Y-133334083D01*
X141809811Y-133364461D01*
X141824994Y-133402007D01*
X141829918Y-133446686D01*
X141829589Y-133454215D01*
X141825491Y-133479819D01*
X141818240Y-133502225D01*
X141812293Y-133513849D01*
X141794563Y-133537793D01*
X141770917Y-133556253D01*
X141739764Y-133570022D01*
X141699509Y-133579892D01*
X141648561Y-133586656D01*
X141630634Y-133588527D01*
X141596289Y-133593525D01*
X141572082Y-133599940D01*
X141556351Y-133608542D01*
X141547435Y-133620105D01*
X141543673Y-133635399D01*
X141543821Y-133651094D01*
X141552321Y-133672300D01*
X141571313Y-133687297D01*
X141600985Y-133696206D01*
X141641522Y-133699148D01*
X141643223Y-133699144D01*
X141687636Y-133695304D01*
X141726468Y-133683264D01*
X141764541Y-133661552D01*
X141792662Y-133642204D01*
X141826908Y-133672239D01*
X141828980Y-133674063D01*
X141845281Y-133688995D01*
X141856828Y-133700578D01*
X141861234Y-133706437D01*
X141860980Y-133707685D01*
X141853841Y-133716242D01*
X141838832Y-133728355D01*
X141818578Y-133742200D01*
X141795705Y-133755956D01*
X141772836Y-133767800D01*
X141751866Y-133776572D01*
X141723345Y-133786252D01*
X141698773Y-133792356D01*
X141686179Y-133794276D01*
X141635867Y-133796589D01*
X141587437Y-133790800D01*
X141542848Y-133777634D01*
X141504057Y-133757812D01*
X141473021Y-133732060D01*
X141451698Y-133701098D01*
X141443237Y-133673604D01*
X141440599Y-133637819D01*
X141444934Y-133601406D01*
X141456076Y-133569383D01*
X141457275Y-133567092D01*
X141472337Y-133544241D01*
X141491404Y-133526351D01*
X141516162Y-133512699D01*
X141548295Y-133502565D01*
X141589489Y-133495225D01*
X141641428Y-133489958D01*
X141641530Y-133489950D01*
X141667059Y-133486876D01*
X141690007Y-133482231D01*
X141705415Y-133477017D01*
X141718646Y-133467077D01*
X141728031Y-133449409D01*
X141727530Y-133429678D01*
X141717407Y-133410755D01*
X141697926Y-133395511D01*
X141678901Y-133389058D01*
X141647701Y-133386109D01*
X141612712Y-133388912D01*
X141577846Y-133397083D01*
X141547016Y-133410241D01*
X141512313Y-133429826D01*
X141483638Y-133396261D01*
X141482762Y-133395233D01*
X141468730Y-133378032D01*
X141458776Y-133364483D01*
X141455006Y-133357442D01*
X141455502Y-133355712D01*
X141463643Y-133347151D01*
X141479678Y-133335807D01*
X141500883Y-133323462D01*
X141524536Y-133311902D01*
X141547332Y-133303958D01*
X141580363Y-133296275D01*
X141616007Y-133290866D01*
X141649489Y-133288432D01*
X141676034Y-133289672D01*
G37*
G36*
X143018499Y-134427599D02*
G01*
X143019678Y-134441167D01*
X143014277Y-134475740D01*
X143005922Y-134495757D01*
X142982580Y-134527802D01*
X142949911Y-134553586D01*
X142909545Y-134571616D01*
X142884158Y-134577020D01*
X142849418Y-134579812D01*
X142814401Y-134578875D01*
X142785172Y-134574088D01*
X142783691Y-134573657D01*
X142762317Y-134564380D01*
X142742974Y-134551687D01*
X142724025Y-134535743D01*
X142724025Y-134574364D01*
X142616651Y-134574364D01*
X142618978Y-134402272D01*
X142724025Y-134402272D01*
X142724604Y-134416452D01*
X142729725Y-134444494D01*
X142739335Y-134465439D01*
X142752451Y-134476712D01*
X142755155Y-134477600D01*
X142773169Y-134480827D01*
X142798171Y-134482946D01*
X142825707Y-134483796D01*
X142851328Y-134483214D01*
X142870582Y-134481036D01*
X142878641Y-134478911D01*
X142901465Y-134466711D01*
X142916844Y-134448733D01*
X142923743Y-134427599D01*
X142921127Y-134405929D01*
X142907961Y-134386344D01*
X142901341Y-134380676D01*
X142893387Y-134376213D01*
X142882449Y-134373238D01*
X142866148Y-134371340D01*
X142842103Y-134370111D01*
X142807937Y-134369141D01*
X142724025Y-134367094D01*
X142724025Y-134402272D01*
X142618978Y-134402272D01*
X142619208Y-134385255D01*
X142619247Y-134382355D01*
X142620275Y-134321620D01*
X142621548Y-134272473D01*
X142623113Y-134234040D01*
X142625012Y-134205444D01*
X142627292Y-134185811D01*
X142629998Y-134174265D01*
X142643443Y-134146681D01*
X142668282Y-134117763D01*
X142702901Y-134095477D01*
X142712053Y-134091171D01*
X142729787Y-134084373D01*
X142748670Y-134079986D01*
X142772486Y-134077268D01*
X142805020Y-134075479D01*
X142831432Y-134074870D01*
X142875015Y-134077008D01*
X142910425Y-134084034D01*
X142940091Y-134096543D01*
X142966440Y-134115132D01*
X142977170Y-134124729D01*
X142988461Y-134136123D01*
X142992841Y-134142491D01*
X142992693Y-134143031D01*
X142986611Y-134149955D01*
X142973396Y-134161767D01*
X142955504Y-134176248D01*
X142918166Y-134205244D01*
X142902277Y-134190518D01*
X142893270Y-134183351D01*
X142874153Y-134174342D01*
X142848587Y-134169474D01*
X142813690Y-134168014D01*
X142798294Y-134168657D01*
X142768148Y-134174125D01*
X142744732Y-134184349D01*
X142730780Y-134198331D01*
X142728340Y-134205205D01*
X142725238Y-134223354D01*
X142724025Y-134245065D01*
X142724025Y-134279179D01*
X142816235Y-134281805D01*
X142859004Y-134283565D01*
X142893830Y-134286623D01*
X142920680Y-134291508D01*
X142941863Y-134298814D01*
X142959688Y-134309137D01*
X142976462Y-134323071D01*
X142987949Y-134335966D01*
X143005503Y-134367197D01*
X143016417Y-134403625D01*
X143018499Y-134427599D01*
G37*
G36*
X141013982Y-134425890D02*
G01*
X141014489Y-134448767D01*
X141004104Y-134487519D01*
X140983170Y-134521522D01*
X140952454Y-134549309D01*
X140912723Y-134569415D01*
X140912225Y-134569592D01*
X140881950Y-134576670D01*
X140845665Y-134579914D01*
X140809211Y-134579122D01*
X140778428Y-134574088D01*
X140776948Y-134573657D01*
X140755574Y-134564380D01*
X140736230Y-134551687D01*
X140717282Y-134535743D01*
X140717282Y-134574364D01*
X140617257Y-134574364D01*
X140617290Y-134398914D01*
X140717282Y-134398914D01*
X140717292Y-134401370D01*
X140720254Y-134433220D01*
X140728993Y-134455765D01*
X140744273Y-134471041D01*
X140745103Y-134471552D01*
X140760408Y-134477004D01*
X140783263Y-134481400D01*
X140809125Y-134484227D01*
X140833449Y-134484973D01*
X140851690Y-134483129D01*
X140860981Y-134480948D01*
X140878418Y-134477062D01*
X140897570Y-134468436D01*
X140912057Y-134450406D01*
X140917132Y-134425890D01*
X140917006Y-134420813D01*
X140914113Y-134401719D01*
X140906296Y-134387699D01*
X140892058Y-134378037D01*
X140869900Y-134372020D01*
X140838326Y-134368933D01*
X140795837Y-134368063D01*
X140717282Y-134368063D01*
X140717282Y-134398914D01*
X140617290Y-134398914D01*
X140617292Y-134388380D01*
X140617382Y-134353627D01*
X140617913Y-134299609D01*
X140618890Y-134253939D01*
X140620281Y-134217654D01*
X140622052Y-134191792D01*
X140624168Y-134177391D01*
X140625314Y-134173610D01*
X140640105Y-134145853D01*
X140664012Y-134120037D01*
X140694090Y-134098802D01*
X140727397Y-134084788D01*
X140747901Y-134080206D01*
X140787569Y-134075574D01*
X140830106Y-134074642D01*
X140870581Y-134077434D01*
X140904066Y-134083971D01*
X140908677Y-134085500D01*
X140928408Y-134094593D01*
X140949069Y-134107137D01*
X140967605Y-134120921D01*
X140980966Y-134133735D01*
X140986098Y-134143369D01*
X140985993Y-134143840D01*
X140980122Y-134150775D01*
X140967043Y-134162545D01*
X140949241Y-134176889D01*
X140943737Y-134181106D01*
X140926575Y-134193615D01*
X140915906Y-134199431D01*
X140909197Y-134199568D01*
X140903917Y-134195041D01*
X140893209Y-134185698D01*
X140868983Y-134174890D01*
X140838858Y-134168970D01*
X140806278Y-134167950D01*
X140774683Y-134171843D01*
X140747517Y-134180661D01*
X140728222Y-134194416D01*
X140724920Y-134198986D01*
X140719094Y-134216354D01*
X140717282Y-134243151D01*
X140717282Y-134279395D01*
X140809492Y-134281639D01*
X140819728Y-134281901D01*
X140855375Y-134283178D01*
X140881670Y-134284992D01*
X140901151Y-134287665D01*
X140916359Y-134291518D01*
X140929834Y-134296873D01*
X140964530Y-134318461D01*
X140991796Y-134348661D01*
X141008840Y-134385731D01*
X141013558Y-134406733D01*
X141013982Y-134425890D01*
G37*
G36*
X141375161Y-134081764D02*
G01*
X141413541Y-134083618D01*
X141467073Y-134250724D01*
X141469243Y-134257491D01*
X141483064Y-134300207D01*
X141495670Y-134338542D01*
X141506551Y-134370989D01*
X141515195Y-134396040D01*
X141521092Y-134412185D01*
X141523730Y-134417917D01*
X141525299Y-134414573D01*
X141529835Y-134400741D01*
X141536742Y-134377694D01*
X141545544Y-134347062D01*
X141555767Y-134310475D01*
X141566935Y-134269565D01*
X141574697Y-134240819D01*
X141585638Y-134200316D01*
X141595418Y-134164124D01*
X141603514Y-134134182D01*
X141609400Y-134112430D01*
X141612552Y-134100810D01*
X141618091Y-134080492D01*
X141670935Y-134080492D01*
X141680474Y-134080550D01*
X141702613Y-134081203D01*
X141718008Y-134082426D01*
X141723779Y-134084029D01*
X141723748Y-134084205D01*
X141721472Y-134091929D01*
X141715944Y-134109824D01*
X141707652Y-134136349D01*
X141697086Y-134169962D01*
X141684735Y-134209123D01*
X141671087Y-134252290D01*
X141656631Y-134297923D01*
X141641857Y-134344480D01*
X141627253Y-134390421D01*
X141613308Y-134434204D01*
X141600512Y-134474289D01*
X141589352Y-134509135D01*
X141580319Y-134537200D01*
X141573901Y-134556944D01*
X141570587Y-134566825D01*
X141570417Y-134567237D01*
X141563905Y-134571492D01*
X141548421Y-134573366D01*
X141522274Y-134573076D01*
X141476877Y-134571238D01*
X141427357Y-134404291D01*
X141425537Y-134398166D01*
X141412663Y-134355454D01*
X141400845Y-134317276D01*
X141390569Y-134285128D01*
X141382321Y-134260504D01*
X141376588Y-134244899D01*
X141373855Y-134239806D01*
X141373726Y-134239938D01*
X141370634Y-134247492D01*
X141364564Y-134265325D01*
X141356008Y-134291880D01*
X141345463Y-134325601D01*
X141333420Y-134364932D01*
X141320375Y-134408315D01*
X141270876Y-134574364D01*
X141180728Y-134574364D01*
X141140176Y-134447770D01*
X141128145Y-134410180D01*
X141111415Y-134357832D01*
X141094160Y-134303767D01*
X141077827Y-134252526D01*
X141063867Y-134208649D01*
X141063752Y-134208288D01*
X141052362Y-134172513D01*
X141042164Y-134140618D01*
X141033806Y-134114612D01*
X141027932Y-134096505D01*
X141025190Y-134088306D01*
X141025443Y-134085595D01*
X141032278Y-134082595D01*
X141048403Y-134080977D01*
X141075407Y-134080492D01*
X141077737Y-134080495D01*
X141106858Y-134081390D01*
X141124500Y-134083953D01*
X141131537Y-134088306D01*
X141133478Y-134094707D01*
X141138336Y-134111867D01*
X141145566Y-134137913D01*
X141154700Y-134171149D01*
X141165270Y-134209880D01*
X141176808Y-134252409D01*
X141187133Y-134290260D01*
X141197930Y-134329124D01*
X141207419Y-134362524D01*
X141215121Y-134388806D01*
X141220559Y-134406314D01*
X141223256Y-134413395D01*
X141223566Y-134413400D01*
X141227187Y-134406638D01*
X141233952Y-134389696D01*
X141243342Y-134364018D01*
X141254842Y-134331047D01*
X141267934Y-134292228D01*
X141282103Y-134249002D01*
X141336781Y-134079911D01*
X141375161Y-134081764D01*
G37*
G36*
X143486713Y-133555623D02*
G01*
X143486713Y-134574364D01*
X143387434Y-134574364D01*
X143385498Y-134407135D01*
X143385145Y-134377512D01*
X143384519Y-134333597D01*
X143383783Y-134299697D01*
X143382805Y-134274222D01*
X143381451Y-134255577D01*
X143379587Y-134242172D01*
X143377080Y-134232412D01*
X143373797Y-134224706D01*
X143369603Y-134217461D01*
X143368992Y-134216494D01*
X143348149Y-134194799D01*
X143320512Y-134180771D01*
X143289521Y-134175062D01*
X143258620Y-134178325D01*
X143231249Y-134191214D01*
X143220982Y-134199294D01*
X143212244Y-134208344D01*
X143205528Y-134219322D01*
X143200571Y-134233738D01*
X143197107Y-134253103D01*
X143194873Y-134278927D01*
X143193603Y-134312721D01*
X143193034Y-134355995D01*
X143192900Y-134410261D01*
X143192891Y-134574364D01*
X143092354Y-134574364D01*
X143094173Y-134382129D01*
X143094271Y-134371827D01*
X143094871Y-134316085D01*
X143095686Y-134271100D01*
X143096998Y-134235373D01*
X143099088Y-134207404D01*
X143102240Y-134185694D01*
X143106735Y-134168744D01*
X143112855Y-134155054D01*
X143120884Y-134143126D01*
X143131103Y-134131460D01*
X143143794Y-134118557D01*
X143158956Y-134105508D01*
X143194671Y-134085927D01*
X143234792Y-134075566D01*
X143276391Y-134074657D01*
X143316538Y-134083430D01*
X143352305Y-134102116D01*
X143354334Y-134103586D01*
X143368775Y-134113746D01*
X143378874Y-134120376D01*
X143379701Y-134120602D01*
X143381820Y-134117698D01*
X143383492Y-134108631D01*
X143384761Y-134092346D01*
X143385671Y-134067785D01*
X143386266Y-134033893D01*
X143386590Y-133989612D01*
X143386688Y-133933886D01*
X143386688Y-133742781D01*
X143353868Y-133764443D01*
X143338662Y-133773433D01*
X143313440Y-133785327D01*
X143291229Y-133792693D01*
X143260194Y-133796451D01*
X143218136Y-133791887D01*
X143179242Y-133776972D01*
X143145504Y-133752870D01*
X143118914Y-133720746D01*
X143101464Y-133681763D01*
X143100652Y-133678742D01*
X143096495Y-133654146D01*
X143093559Y-133620661D01*
X143091844Y-133581333D01*
X143091429Y-133545986D01*
X143196016Y-133545986D01*
X143196498Y-133584380D01*
X143198482Y-133616556D01*
X143202532Y-133640193D01*
X143209210Y-133657347D01*
X143219076Y-133670073D01*
X143232691Y-133680429D01*
X143249756Y-133688480D01*
X143279223Y-133694127D01*
X143309651Y-133692293D01*
X143337119Y-133683372D01*
X143357704Y-133667764D01*
X143363699Y-133659379D01*
X143375967Y-133631046D01*
X143383757Y-133595414D01*
X143387088Y-133555623D01*
X143385979Y-133514815D01*
X143380449Y-133476130D01*
X143370516Y-133442709D01*
X143356200Y-133417694D01*
X143347345Y-133407959D01*
X143336478Y-133400372D01*
X143321875Y-133396336D01*
X143299153Y-133394032D01*
X143276858Y-133393596D01*
X143246395Y-133399064D01*
X143223702Y-133412914D01*
X143207286Y-133435828D01*
X143202575Y-133447489D01*
X143199331Y-133461916D01*
X143197323Y-133481514D01*
X143196301Y-133508724D01*
X143196016Y-133545986D01*
X143091429Y-133545986D01*
X143091349Y-133539209D01*
X143092072Y-133497334D01*
X143094014Y-133458754D01*
X143097173Y-133426517D01*
X143101548Y-133403668D01*
X143108244Y-133384939D01*
X143129648Y-133349125D01*
X143158730Y-133321222D01*
X143193672Y-133301821D01*
X143232654Y-133291514D01*
X143273855Y-133290892D01*
X143315457Y-133300547D01*
X143355638Y-133321070D01*
X143386688Y-133341965D01*
X143386688Y-133292798D01*
X143486713Y-133292798D01*
X143486713Y-133555623D01*
G37*
G36*
X141634369Y-129579388D02*
G01*
X141690570Y-129579442D01*
X141736038Y-129579603D01*
X141771952Y-129579928D01*
X141799490Y-129580476D01*
X141819834Y-129581302D01*
X141834163Y-129582464D01*
X141843655Y-129584019D01*
X141849491Y-129586024D01*
X141852851Y-129588535D01*
X141854913Y-129591610D01*
X141855182Y-129592217D01*
X141858094Y-129602783D01*
X141862909Y-129624002D01*
X141869341Y-129654450D01*
X141877099Y-129692706D01*
X141885894Y-129737349D01*
X141895438Y-129786957D01*
X141905441Y-129840108D01*
X141907182Y-129849436D01*
X141917164Y-129901856D01*
X141926712Y-129950320D01*
X141935530Y-129993436D01*
X141943320Y-130029812D01*
X141949787Y-130058058D01*
X141954633Y-130076782D01*
X141957563Y-130084591D01*
X141959658Y-130086118D01*
X141972227Y-130092716D01*
X141993847Y-130102748D01*
X142022660Y-130115451D01*
X142056810Y-130130066D01*
X142094439Y-130145832D01*
X142133689Y-130161987D01*
X142172702Y-130177772D01*
X142209621Y-130192425D01*
X142242588Y-130205186D01*
X142269746Y-130215293D01*
X142289236Y-130221986D01*
X142299203Y-130224505D01*
X142302560Y-130223922D01*
X142315228Y-130218311D01*
X142335948Y-130206554D01*
X142365122Y-130188396D01*
X142403152Y-130163582D01*
X142450442Y-130131858D01*
X142507394Y-130092970D01*
X142524748Y-130081042D01*
X142574170Y-130047091D01*
X142614576Y-130019409D01*
X142646953Y-129997381D01*
X142672288Y-129980393D01*
X142691566Y-129967831D01*
X142705776Y-129959079D01*
X142715904Y-129953523D01*
X142722935Y-129950549D01*
X142727857Y-129949541D01*
X142731656Y-129949885D01*
X142735318Y-129950967D01*
X142740804Y-129954512D01*
X142754480Y-129966125D01*
X142774484Y-129984557D01*
X142799641Y-130008611D01*
X142828776Y-130037093D01*
X142860713Y-130068804D01*
X142894278Y-130102550D01*
X142928294Y-130137134D01*
X142961588Y-130171359D01*
X142992984Y-130204030D01*
X143021307Y-130233950D01*
X143045381Y-130259924D01*
X143064032Y-130280754D01*
X143076084Y-130295244D01*
X143080363Y-130302199D01*
X143080303Y-130302667D01*
X143075995Y-130311787D01*
X143065427Y-130329805D01*
X143049378Y-130355510D01*
X143028628Y-130387693D01*
X143003955Y-130425143D01*
X142976137Y-130466652D01*
X142945955Y-130511009D01*
X142943078Y-130515208D01*
X142903190Y-130573896D01*
X142870392Y-130623116D01*
X142844756Y-130662756D01*
X142826355Y-130692699D01*
X142815261Y-130712831D01*
X142811547Y-130723039D01*
X142812603Y-130729070D01*
X142818022Y-130746357D01*
X142827352Y-130771753D01*
X142839817Y-130803465D01*
X142854640Y-130839699D01*
X142871045Y-130878663D01*
X142888256Y-130918564D01*
X142905496Y-130957609D01*
X142921988Y-130994004D01*
X142936956Y-131025958D01*
X142949623Y-131051676D01*
X142959213Y-131069366D01*
X142964949Y-131077235D01*
X142972881Y-131080017D01*
X142991930Y-131084846D01*
X143020433Y-131091271D01*
X143056910Y-131098982D01*
X143099880Y-131107665D01*
X143147864Y-131117008D01*
X143199382Y-131126699D01*
X143247241Y-131135626D01*
X143295653Y-131144820D01*
X143339213Y-131153264D01*
X143376432Y-131160660D01*
X143405819Y-131166713D01*
X143425884Y-131171125D01*
X143435138Y-131173600D01*
X143449204Y-131179510D01*
X143449204Y-131429037D01*
X143449203Y-131437380D01*
X143449163Y-131498530D01*
X143449021Y-131548474D01*
X143448728Y-131588368D01*
X143448234Y-131619366D01*
X143447489Y-131642623D01*
X143446444Y-131659295D01*
X143445048Y-131670537D01*
X143443253Y-131677504D01*
X143441008Y-131681351D01*
X143438264Y-131683233D01*
X143429961Y-131685385D01*
X143410765Y-131689547D01*
X143382157Y-131695416D01*
X143345589Y-131702702D01*
X143302512Y-131711116D01*
X143254377Y-131720369D01*
X143202634Y-131730173D01*
X143173245Y-131735726D01*
X143115864Y-131746767D01*
X143069477Y-131756034D01*
X143033161Y-131763736D01*
X143005993Y-131770085D01*
X142987050Y-131775289D01*
X142975409Y-131779560D01*
X142970147Y-131783108D01*
X142969256Y-131784600D01*
X142963683Y-131796358D01*
X142954362Y-131817708D01*
X142941938Y-131847110D01*
X142927058Y-131883027D01*
X142910365Y-131923920D01*
X142892505Y-131968250D01*
X142876714Y-132008008D01*
X142857031Y-132058836D01*
X142842214Y-132098990D01*
X142832111Y-132128911D01*
X142826565Y-132149039D01*
X142825424Y-132159813D01*
X142828652Y-132167173D01*
X142838347Y-132184078D01*
X142853649Y-132208802D01*
X142873726Y-132240050D01*
X142897744Y-132276529D01*
X142924871Y-132316944D01*
X142954274Y-132360001D01*
X142980617Y-132398495D01*
X143007734Y-132438662D01*
X143031729Y-132474781D01*
X143051796Y-132505609D01*
X143067129Y-132529907D01*
X143076920Y-132546434D01*
X143080363Y-132553948D01*
X143080066Y-132554879D01*
X143073614Y-132563668D01*
X143059451Y-132579950D01*
X143038532Y-132602715D01*
X143011814Y-132630948D01*
X142980250Y-132663639D01*
X142944795Y-132699775D01*
X142906405Y-132738343D01*
X142878224Y-132766412D01*
X142837831Y-132806395D01*
X142804910Y-132838566D01*
X142778679Y-132863638D01*
X142758353Y-132882324D01*
X142743148Y-132895336D01*
X142732280Y-132903387D01*
X142724966Y-132907190D01*
X142720422Y-132907458D01*
X142714536Y-132904169D01*
X142699082Y-132894400D01*
X142675667Y-132879073D01*
X142645557Y-132859033D01*
X142610020Y-132835125D01*
X142570323Y-132808193D01*
X142527733Y-132779082D01*
X142491698Y-132754526D01*
X142451497Y-132727542D01*
X142415239Y-132703644D01*
X142384187Y-132683642D01*
X142359604Y-132668350D01*
X142342754Y-132658579D01*
X142334900Y-132655141D01*
X142331969Y-132655687D01*
X142318341Y-132660812D01*
X142297033Y-132670468D01*
X142270324Y-132683594D01*
X142240496Y-132699128D01*
X142227227Y-132706123D01*
X142198606Y-132720502D01*
X142174150Y-132731838D01*
X142156112Y-132739117D01*
X142146744Y-132741325D01*
X142144848Y-132740138D01*
X142140288Y-132733986D01*
X142133617Y-132722039D01*
X142124550Y-132703651D01*
X142112803Y-132678179D01*
X142098093Y-132644977D01*
X142080134Y-132603400D01*
X142058643Y-132552804D01*
X142033336Y-132492543D01*
X142003929Y-132421973D01*
X141970138Y-132340449D01*
X141952557Y-132297880D01*
X141925740Y-132232673D01*
X141900624Y-132171273D01*
X141877597Y-132114647D01*
X141857047Y-132063760D01*
X141839363Y-132019580D01*
X141824933Y-131983075D01*
X141814145Y-131955210D01*
X141807388Y-131936954D01*
X141805049Y-131929273D01*
X141805602Y-131926090D01*
X141814234Y-131913750D01*
X141831618Y-131900067D01*
X141835212Y-131897721D01*
X141854778Y-131884425D01*
X141878886Y-131867478D01*
X141903140Y-131849960D01*
X141940171Y-131820131D01*
X141995147Y-131763696D01*
X142040472Y-131700520D01*
X142075672Y-131631825D01*
X142100274Y-131558831D01*
X142113806Y-131482763D01*
X142115795Y-131404841D01*
X142105767Y-131326288D01*
X142101093Y-131305870D01*
X142076475Y-131232745D01*
X142041150Y-131164523D01*
X141996131Y-131102286D01*
X141942433Y-131047119D01*
X141881070Y-131000104D01*
X141813057Y-130962327D01*
X141739408Y-130934870D01*
X141719525Y-130929961D01*
X141670764Y-130922619D01*
X141616556Y-130919439D01*
X141561210Y-130920421D01*
X141509035Y-130925565D01*
X141464340Y-130934870D01*
X141418361Y-130950173D01*
X141355513Y-130979533D01*
X141297811Y-131017993D01*
X141242411Y-131067248D01*
X141234356Y-131075386D01*
X141197607Y-131115485D01*
X141168888Y-131153186D01*
X141145897Y-131191811D01*
X141126331Y-131234684D01*
X141104609Y-131300314D01*
X141090542Y-131377516D01*
X141088158Y-131454636D01*
X141097126Y-131530501D01*
X141117114Y-131603939D01*
X141147787Y-131673777D01*
X141188816Y-131738842D01*
X141239867Y-131797961D01*
X141300608Y-131849960D01*
X141306316Y-131854131D01*
X141330940Y-131871793D01*
X141354344Y-131888132D01*
X141372130Y-131900067D01*
X141378343Y-131904321D01*
X141393241Y-131917847D01*
X141398699Y-131929273D01*
X141397763Y-131932824D01*
X141392597Y-131947276D01*
X141383257Y-131971694D01*
X141370131Y-132005111D01*
X141353607Y-132046561D01*
X141334073Y-132095076D01*
X141311919Y-132149689D01*
X141287531Y-132209434D01*
X141261299Y-132273343D01*
X141233610Y-132340449D01*
X141212065Y-132392472D01*
X141181033Y-132467107D01*
X141154210Y-132531190D01*
X141131309Y-132585365D01*
X141112049Y-132630276D01*
X141096143Y-132666569D01*
X141083309Y-132694888D01*
X141073262Y-132715879D01*
X141065719Y-132730185D01*
X141060394Y-132738452D01*
X141057004Y-132741325D01*
X141054113Y-132741047D01*
X141040671Y-132736494D01*
X141019546Y-132727313D01*
X140992989Y-132714520D01*
X140963253Y-132699128D01*
X140950186Y-132692219D01*
X140921421Y-132677591D01*
X140896755Y-132665827D01*
X140878471Y-132657990D01*
X140868848Y-132655141D01*
X140862851Y-132657601D01*
X140847327Y-132666434D01*
X140823872Y-132680915D01*
X140793750Y-132700232D01*
X140758224Y-132723574D01*
X140718558Y-132750128D01*
X140676015Y-132779082D01*
X140640292Y-132803514D01*
X140600030Y-132830865D01*
X140563719Y-132855330D01*
X140532625Y-132876066D01*
X140508017Y-132892229D01*
X140491162Y-132902975D01*
X140483327Y-132907458D01*
X140480885Y-132907681D01*
X140474771Y-132905376D01*
X140465417Y-132899106D01*
X140452038Y-132888161D01*
X140433851Y-132871827D01*
X140410072Y-132849390D01*
X140379917Y-132820140D01*
X140342602Y-132783362D01*
X140297344Y-132738343D01*
X140287160Y-132728165D01*
X140249439Y-132690130D01*
X140214902Y-132654790D01*
X140184502Y-132623158D01*
X140159196Y-132596246D01*
X140139938Y-132575065D01*
X140127683Y-132560628D01*
X140123385Y-132553948D01*
X140126172Y-132547635D01*
X140135352Y-132531972D01*
X140150156Y-132508411D01*
X140169777Y-132478192D01*
X140193408Y-132442557D01*
X140220243Y-132402746D01*
X140249474Y-132360001D01*
X140275296Y-132322226D01*
X140302755Y-132281409D01*
X140327209Y-132244366D01*
X140347825Y-132212391D01*
X140363772Y-132186777D01*
X140374216Y-132168820D01*
X140378325Y-132159813D01*
X140378053Y-132153701D01*
X140374012Y-132136780D01*
X140365465Y-132110215D01*
X140352257Y-132073565D01*
X140334234Y-132026390D01*
X140311243Y-131968250D01*
X140305400Y-131953684D01*
X140287846Y-131910294D01*
X140271667Y-131870836D01*
X140257507Y-131836850D01*
X140246013Y-131809875D01*
X140237829Y-131791448D01*
X140233601Y-131783108D01*
X140231983Y-131781601D01*
X140223989Y-131777757D01*
X140209204Y-131773095D01*
X140186706Y-131767406D01*
X140155571Y-131760480D01*
X140114876Y-131752106D01*
X140063698Y-131742073D01*
X140001114Y-131730173D01*
X139950036Y-131720496D01*
X139901844Y-131711233D01*
X139858690Y-131702806D01*
X139822027Y-131695504D01*
X139793304Y-131689615D01*
X139773973Y-131685428D01*
X139765485Y-131683233D01*
X139765119Y-131683069D01*
X139762439Y-131681007D01*
X139760252Y-131676839D01*
X139758508Y-131669409D01*
X139757158Y-131657563D01*
X139756152Y-131640144D01*
X139755441Y-131615997D01*
X139754974Y-131583969D01*
X139754702Y-131542903D01*
X139754576Y-131491644D01*
X139754545Y-131429037D01*
X139754545Y-131179510D01*
X139768611Y-131173600D01*
X139776791Y-131171378D01*
X139796108Y-131167099D01*
X139824856Y-131161158D01*
X139861547Y-131153851D01*
X139904689Y-131145474D01*
X139952792Y-131136325D01*
X140004367Y-131126699D01*
X140052324Y-131117689D01*
X140100608Y-131108311D01*
X140143983Y-131099570D01*
X140180969Y-131091780D01*
X140210088Y-131085253D01*
X140229858Y-131080301D01*
X140238800Y-131077235D01*
X140242040Y-131073343D01*
X140250364Y-131058900D01*
X140262038Y-131035799D01*
X140276286Y-131005833D01*
X140292331Y-130970794D01*
X140309396Y-130932476D01*
X140326706Y-130892672D01*
X140343483Y-130853174D01*
X140358951Y-130815776D01*
X140372333Y-130782271D01*
X140382853Y-130754451D01*
X140389735Y-130734109D01*
X140392202Y-130723039D01*
X140392185Y-130722674D01*
X140387982Y-130711809D01*
X140376405Y-130691026D01*
X140357524Y-130660440D01*
X140331414Y-130620165D01*
X140298146Y-130570317D01*
X140257793Y-130511009D01*
X140253773Y-130505138D01*
X140223853Y-130461082D01*
X140196400Y-130420031D01*
X140172191Y-130383195D01*
X140152007Y-130351784D01*
X140136625Y-130327008D01*
X140126825Y-130310076D01*
X140123385Y-130302199D01*
X140125960Y-130297539D01*
X140136341Y-130284664D01*
X140153589Y-130265176D01*
X140176528Y-130240271D01*
X140203985Y-130211147D01*
X140234782Y-130178999D01*
X140267746Y-130145023D01*
X140301702Y-130110415D01*
X140335473Y-130076373D01*
X140367885Y-130044092D01*
X140397763Y-130014767D01*
X140423932Y-129989596D01*
X140445216Y-129969775D01*
X140460440Y-129956500D01*
X140468430Y-129950967D01*
X140469880Y-129950499D01*
X140473361Y-129949597D01*
X140477291Y-129949616D01*
X140482658Y-129951169D01*
X140490448Y-129954870D01*
X140501647Y-129961336D01*
X140517241Y-129971181D01*
X140538218Y-129985019D01*
X140565563Y-130003465D01*
X140600262Y-130027134D01*
X140643303Y-130056641D01*
X140695671Y-130092601D01*
X140725897Y-130113294D01*
X140777936Y-130148517D01*
X140820523Y-130176719D01*
X140854069Y-130198158D01*
X140878982Y-130213093D01*
X140895673Y-130221783D01*
X140904551Y-130224485D01*
X140907454Y-130223981D01*
X140921626Y-130219611D01*
X140944537Y-130211387D01*
X140974331Y-130200071D01*
X141009154Y-130186422D01*
X141047152Y-130171200D01*
X141086470Y-130155166D01*
X141125254Y-130139079D01*
X141161648Y-130123700D01*
X141193798Y-130109788D01*
X141219851Y-130098103D01*
X141237950Y-130089406D01*
X141246241Y-130084457D01*
X141246593Y-130083946D01*
X141249835Y-130074161D01*
X141254950Y-130053705D01*
X141261645Y-130023968D01*
X141269621Y-129986339D01*
X141278584Y-129942209D01*
X141288237Y-129892967D01*
X141298285Y-129840004D01*
X141299932Y-129831196D01*
X141309905Y-129778520D01*
X141319367Y-129729621D01*
X141328029Y-129685921D01*
X141335602Y-129648839D01*
X141341796Y-129619795D01*
X141346322Y-129600210D01*
X141348892Y-129591505D01*
X141349765Y-129590010D01*
X141352314Y-129587228D01*
X141356754Y-129584980D01*
X141364266Y-129583207D01*
X141376028Y-129581854D01*
X141393219Y-129580864D01*
X141417018Y-129580181D01*
X141448604Y-129579748D01*
X141489156Y-129579508D01*
X141539853Y-129579406D01*
X141601874Y-129579385D01*
X141634369Y-129579388D01*
G37*
G36*
X160866433Y-141521687D02*
G01*
X160866433Y-142655866D01*
X160866433Y-144350133D01*
X160516378Y-144350133D01*
X160166323Y-144350133D01*
X160166323Y-143706031D01*
X160166323Y-143061930D01*
X159694070Y-143061930D01*
X159591845Y-143061299D01*
X159424836Y-143057706D01*
X159273571Y-143051467D01*
X159151469Y-143043197D01*
X159071951Y-143033508D01*
X158880492Y-142979678D01*
X158677370Y-142872824D01*
X158507648Y-142721074D01*
X158372076Y-142524974D01*
X158370891Y-142522789D01*
X158331346Y-142447806D01*
X158304673Y-142386359D01*
X158288338Y-142324541D01*
X158279808Y-142248441D01*
X158276549Y-142144151D01*
X158276057Y-142006817D01*
X158976135Y-142006817D01*
X158981521Y-142097909D01*
X159021476Y-142237244D01*
X159103521Y-142343299D01*
X159231376Y-142422129D01*
X159260618Y-142433813D01*
X159337242Y-142454991D01*
X159438993Y-142470989D01*
X159576162Y-142483188D01*
X159759039Y-142492970D01*
X160166323Y-142510561D01*
X160166323Y-142016124D01*
X160166323Y-141521687D01*
X159848094Y-141521687D01*
X159823078Y-141521727D01*
X159604105Y-141526881D01*
X159431339Y-141542386D01*
X159296356Y-141570672D01*
X159190733Y-141614168D01*
X159106047Y-141675304D01*
X159033874Y-141756508D01*
X159003922Y-141807395D01*
X158982343Y-141889252D01*
X158976135Y-142006817D01*
X158276057Y-142006817D01*
X158276025Y-141997762D01*
X158276129Y-141938426D01*
X158278118Y-141803927D01*
X158284108Y-141707114D01*
X158296006Y-141634477D01*
X158315715Y-141572504D01*
X158345142Y-141507685D01*
X158347049Y-141503857D01*
X158428487Y-141374769D01*
X158536999Y-141247563D01*
X158656534Y-141138909D01*
X158771036Y-141065474D01*
X158799780Y-141052566D01*
X158869808Y-141026809D01*
X158950246Y-141006249D01*
X159047604Y-140990342D01*
X159168395Y-140978546D01*
X159319131Y-140970317D01*
X159506322Y-140965111D01*
X159736482Y-140962387D01*
X160016121Y-140961599D01*
X160866433Y-140961599D01*
X160866433Y-141521687D01*
G37*
G36*
X156447886Y-140989659D02*
G01*
X156673129Y-141000606D01*
X156868967Y-141034260D01*
X157057595Y-141095989D01*
X157261213Y-141191161D01*
X157348901Y-141240176D01*
X157588146Y-141415126D01*
X157787799Y-141628107D01*
X157944477Y-141875025D01*
X158054798Y-142151787D01*
X158068953Y-142207609D01*
X158094134Y-142375022D01*
X158105321Y-142568218D01*
X158102510Y-142767194D01*
X158085700Y-142951947D01*
X158054890Y-143102472D01*
X158013550Y-143225117D01*
X157882997Y-143496856D01*
X157710927Y-143733651D01*
X157500587Y-143932189D01*
X157255225Y-144089154D01*
X156978089Y-144201233D01*
X156949291Y-144209829D01*
X156856480Y-144234336D01*
X156769040Y-144249856D01*
X156671649Y-144257831D01*
X156548985Y-144259701D01*
X156385727Y-144256904D01*
X156288122Y-144253994D01*
X156136561Y-144245901D01*
X156018900Y-144232910D01*
X155920645Y-144213150D01*
X155827304Y-144184747D01*
X155686709Y-144124842D01*
X155509500Y-144027440D01*
X155330677Y-143909461D01*
X155168945Y-143782338D01*
X155058337Y-143686081D01*
X155250680Y-143472021D01*
X155309599Y-143407070D01*
X155381193Y-143330084D01*
X155432379Y-143277455D01*
X155454785Y-143257961D01*
X155479538Y-143274479D01*
X155534351Y-143318698D01*
X155607097Y-143380911D01*
X155647717Y-143415027D01*
X155854804Y-143551405D01*
X156075596Y-143642234D01*
X156303094Y-143688618D01*
X156530297Y-143691663D01*
X156750205Y-143652472D01*
X156955817Y-143572150D01*
X157140134Y-143451801D01*
X157296154Y-143292528D01*
X157416878Y-143095437D01*
X157442667Y-143037303D01*
X157468187Y-142963051D01*
X157482995Y-142883696D01*
X157489886Y-142782284D01*
X157491655Y-142641864D01*
X157490699Y-142519685D01*
X157485153Y-142414932D01*
X157471971Y-142333686D01*
X157448143Y-142258492D01*
X157410663Y-142171893D01*
X157402943Y-142155690D01*
X157301368Y-141994180D01*
X157166412Y-141844793D01*
X157012928Y-141721781D01*
X156855770Y-141639397D01*
X156842259Y-141634450D01*
X156588924Y-141570979D01*
X156337800Y-141563050D01*
X156091275Y-141610220D01*
X155851739Y-141712047D01*
X155621580Y-141868087D01*
X155459866Y-141999805D01*
X155253165Y-141812597D01*
X155219589Y-141781700D01*
X155128832Y-141691096D01*
X155074811Y-141624199D01*
X155061630Y-141585868D01*
X155063025Y-141582618D01*
X155102738Y-141532468D01*
X155178566Y-141463565D01*
X155279137Y-141384428D01*
X155393082Y-141303577D01*
X155509028Y-141229532D01*
X155615606Y-141170811D01*
X155769960Y-141101712D01*
X155972957Y-141036215D01*
X156185011Y-141000453D01*
X156427734Y-140989603D01*
X156447886Y-140989659D01*
G37*
G36*
X147551390Y-143501977D02*
G01*
X147557742Y-143558682D01*
X147558331Y-143708646D01*
X147540271Y-143832482D01*
X147539393Y-143835684D01*
X147458713Y-144026766D01*
X147333838Y-144189053D01*
X147172331Y-144314904D01*
X146981757Y-144396679D01*
X146865079Y-144419636D01*
X146657008Y-144420980D01*
X146442509Y-144379375D01*
X146235448Y-144298042D01*
X146049695Y-144180201D01*
X145940082Y-144093387D01*
X145940082Y-144221760D01*
X145940082Y-144350133D01*
X145534018Y-144350133D01*
X145127954Y-144350133D01*
X145127954Y-143701463D01*
X145940082Y-143701463D01*
X146045099Y-143766483D01*
X146133410Y-143805036D01*
X146260856Y-143833117D01*
X146397667Y-143843201D01*
X146523550Y-143833958D01*
X146618213Y-143804056D01*
X146631718Y-143795621D01*
X146697354Y-143720371D01*
X146732359Y-143616938D01*
X146735849Y-143501977D01*
X146706941Y-143392143D01*
X146644749Y-143304091D01*
X146607213Y-143276372D01*
X146491636Y-143224155D01*
X146335723Y-143183415D01*
X146149832Y-143157225D01*
X145940082Y-143138218D01*
X145940082Y-143419840D01*
X145940082Y-143701463D01*
X145127954Y-143701463D01*
X145127954Y-143375061D01*
X145127974Y-143302666D01*
X145128682Y-143027878D01*
X145130942Y-142801706D01*
X145135482Y-142618170D01*
X145143029Y-142471288D01*
X145154312Y-142355081D01*
X145170058Y-142263566D01*
X145190994Y-142190765D01*
X145217848Y-142130694D01*
X145251348Y-142077375D01*
X145292221Y-142024825D01*
X145323362Y-141990615D01*
X145456861Y-141885741D01*
X145630126Y-141795995D01*
X145831010Y-141728067D01*
X145865260Y-141719844D01*
X146054128Y-141691156D01*
X146278534Y-141678400D01*
X146523665Y-141681065D01*
X146774709Y-141698639D01*
X147016854Y-141730613D01*
X147235286Y-141776476D01*
X147340303Y-141803890D01*
X147340303Y-142114038D01*
X147340303Y-142424185D01*
X147263291Y-142408976D01*
X147248765Y-142405804D01*
X147173682Y-142386384D01*
X147068792Y-142356698D01*
X146952069Y-142321784D01*
X146929202Y-142314928D01*
X146718604Y-142267797D01*
X146519587Y-142250552D01*
X146338910Y-142261623D01*
X146183331Y-142299445D01*
X146059607Y-142362448D01*
X145974498Y-142449066D01*
X145934760Y-142557732D01*
X145933698Y-142566952D01*
X145935309Y-142601396D01*
X145956990Y-142622479D01*
X146010627Y-142636513D01*
X146108109Y-142649813D01*
X146367006Y-142682900D01*
X146589927Y-142715669D01*
X146771017Y-142748556D01*
X146917455Y-142783583D01*
X147036423Y-142822773D01*
X147135100Y-142868146D01*
X147220667Y-142921726D01*
X147300303Y-142985534D01*
X147351153Y-143034709D01*
X147429156Y-143125790D01*
X147483932Y-143209022D01*
X147508767Y-143270552D01*
X147540542Y-143405135D01*
X147551390Y-143501977D01*
G37*
G36*
X154873489Y-141549692D02*
G01*
X154873489Y-142642713D01*
X154873489Y-142860274D01*
X154873489Y-144384472D01*
X153998351Y-144370316D01*
X153726493Y-144365097D01*
X153487242Y-144358451D01*
X153295991Y-144350473D01*
X153148612Y-144340948D01*
X153040977Y-144329659D01*
X152968957Y-144316389D01*
X152949534Y-144311172D01*
X152781644Y-144250939D01*
X152616020Y-144167991D01*
X152470415Y-144072349D01*
X152362581Y-143974038D01*
X152350454Y-143959932D01*
X152278283Y-143871632D01*
X152228820Y-143795672D01*
X152198086Y-143718397D01*
X152182103Y-143626151D01*
X152176892Y-143505278D01*
X152178475Y-143342123D01*
X152180423Y-143285965D01*
X153025198Y-143285965D01*
X153028794Y-143363215D01*
X153060979Y-143492086D01*
X153130991Y-143587120D01*
X153244221Y-143657461D01*
X153306089Y-143681071D01*
X153401506Y-143703857D01*
X153524925Y-143718939D01*
X153690303Y-143728541D01*
X154005353Y-143741084D01*
X154005353Y-143300679D01*
X154005353Y-142860274D01*
X153648296Y-142870912D01*
X153539918Y-142875503D01*
X153357887Y-142893492D01*
X153222276Y-142926373D01*
X153127142Y-142978103D01*
X153066546Y-143052640D01*
X153034545Y-143153941D01*
X153025198Y-143285965D01*
X152180423Y-143285965D01*
X152183389Y-143200438D01*
X152191944Y-143069235D01*
X152202895Y-142964885D01*
X152215030Y-142901967D01*
X152247186Y-142838740D01*
X152326364Y-142742830D01*
X152432620Y-142648321D01*
X152551359Y-142567730D01*
X152667981Y-142513572D01*
X152813176Y-142465346D01*
X152744160Y-142421875D01*
X152661494Y-142360190D01*
X152550396Y-142249500D01*
X152457607Y-142126585D01*
X152398924Y-142010276D01*
X152379782Y-141937036D01*
X152369562Y-141871242D01*
X153239255Y-141871242D01*
X153243906Y-141990257D01*
X153272431Y-142086717D01*
X153274566Y-142090547D01*
X153327060Y-142153508D01*
X153398451Y-142208941D01*
X153407087Y-142213831D01*
X153483748Y-142242858D01*
X153592963Y-142261880D01*
X153746312Y-142273032D01*
X154005353Y-142284487D01*
X154005353Y-141917089D01*
X154005353Y-141549692D01*
X153757492Y-141549692D01*
X153681995Y-141550535D01*
X153529941Y-141560750D01*
X153419839Y-141584704D01*
X153342313Y-141625091D01*
X153287988Y-141684605D01*
X153257451Y-141756228D01*
X153239255Y-141871242D01*
X152369562Y-141871242D01*
X152360543Y-141813181D01*
X152353092Y-141690224D01*
X152366286Y-141533052D01*
X152423126Y-141357271D01*
X152526601Y-141208994D01*
X152678627Y-141085659D01*
X152881120Y-140984707D01*
X152897761Y-140978197D01*
X152943012Y-140962177D01*
X152990743Y-140949372D01*
X153047646Y-140939326D01*
X153120410Y-140931584D01*
X153215728Y-140925689D01*
X153340289Y-140921185D01*
X153500785Y-140917618D01*
X153703907Y-140914530D01*
X153956345Y-140911468D01*
X154873489Y-140900953D01*
X154873489Y-141549692D01*
G37*
G36*
X150194195Y-141010607D02*
G01*
X150194687Y-141012485D01*
X150208543Y-141066639D01*
X150234173Y-141167911D01*
X150269883Y-141309561D01*
X150313976Y-141484850D01*
X150364758Y-141687039D01*
X150420534Y-141909390D01*
X150479608Y-142145163D01*
X150489061Y-142182871D01*
X150546516Y-142410248D01*
X150599815Y-142618170D01*
X150647412Y-142800818D01*
X150687761Y-142952371D01*
X150719315Y-143067010D01*
X150740528Y-143138915D01*
X150749853Y-143162266D01*
X150751826Y-143156888D01*
X150764072Y-143107456D01*
X150785741Y-143011315D01*
X150815578Y-142874315D01*
X150852331Y-142702306D01*
X150894744Y-142501135D01*
X150941565Y-142276654D01*
X150991540Y-142034710D01*
X151220790Y-140919592D01*
X151677034Y-140911888D01*
X151772074Y-140910366D01*
X151915090Y-140908906D01*
X152013746Y-140909960D01*
X152075682Y-140914258D01*
X152108533Y-140922528D01*
X152119938Y-140935497D01*
X152117534Y-140953894D01*
X152117498Y-140954007D01*
X152107180Y-140991948D01*
X152084869Y-141077521D01*
X152052000Y-141205066D01*
X152010008Y-141368921D01*
X151960326Y-141563425D01*
X151904391Y-141782915D01*
X151843637Y-142021731D01*
X151779498Y-142274211D01*
X151713409Y-142534693D01*
X151646805Y-142797516D01*
X151581120Y-143057019D01*
X151517790Y-143307539D01*
X151458250Y-143543416D01*
X151403933Y-143758988D01*
X151356274Y-143948594D01*
X151316709Y-144106572D01*
X151286672Y-144227260D01*
X151267597Y-144304997D01*
X151260920Y-144334122D01*
X151242590Y-144338482D01*
X151176559Y-144343131D01*
X151071013Y-144346822D01*
X150934974Y-144349255D01*
X150777466Y-144350133D01*
X150294012Y-144350133D01*
X150031270Y-143296735D01*
X150015908Y-143235340D01*
X149958203Y-143008299D01*
X149904444Y-142802229D01*
X149856178Y-142622706D01*
X149814957Y-142475304D01*
X149782330Y-142365599D01*
X149759847Y-142299164D01*
X149749057Y-142281575D01*
X149748668Y-142282420D01*
X149736489Y-142321342D01*
X149712257Y-142407815D01*
X149677636Y-142535596D01*
X149634287Y-142698443D01*
X149583872Y-142890117D01*
X149528054Y-143104374D01*
X149468496Y-143334973D01*
X149207406Y-144350133D01*
X148728415Y-144350133D01*
X148249424Y-144350133D01*
X147814021Y-142634863D01*
X147378618Y-140919592D01*
X147811467Y-140911860D01*
X147897063Y-140910486D01*
X148035585Y-140908989D01*
X148147364Y-140908719D01*
X148222648Y-140909676D01*
X148251689Y-140911860D01*
X148254244Y-140920629D01*
X148267186Y-140975279D01*
X148289508Y-141073882D01*
X148319686Y-141209424D01*
X148356200Y-141374891D01*
X148397526Y-141563267D01*
X148442142Y-141767540D01*
X148488526Y-141980695D01*
X148535154Y-142195718D01*
X148580505Y-142405594D01*
X148623056Y-142603310D01*
X148661284Y-142781851D01*
X148693668Y-142934202D01*
X148718684Y-143053350D01*
X148734810Y-143132281D01*
X148740523Y-143163980D01*
X148741634Y-143174363D01*
X148748562Y-143167434D01*
X148762324Y-143128592D01*
X148783484Y-143055569D01*
X148812609Y-142946096D01*
X148850261Y-142797904D01*
X148897006Y-142608724D01*
X148953409Y-142376288D01*
X149020034Y-142098326D01*
X149097446Y-141772570D01*
X149186209Y-141396751D01*
X149286888Y-140968600D01*
X149291644Y-140951243D01*
X149303416Y-140932296D01*
X149328627Y-140919483D01*
X149375790Y-140911606D01*
X149453419Y-140907464D01*
X149570029Y-140905859D01*
X149734134Y-140905590D01*
X150166590Y-140905590D01*
X150194195Y-141010607D01*
G37*
G36*
X143489941Y-142543848D02*
G01*
X143511984Y-142614471D01*
X143573520Y-142809409D01*
X143629518Y-142983625D01*
X143677801Y-143130555D01*
X143716192Y-143243633D01*
X143742514Y-143316295D01*
X143754590Y-143341974D01*
X143757248Y-143338523D01*
X143775551Y-143295292D01*
X143808158Y-143207700D01*
X143852778Y-143082252D01*
X143907116Y-142925457D01*
X143968882Y-142743820D01*
X144035782Y-142543848D01*
X144300720Y-141745723D01*
X144731336Y-141745723D01*
X144782584Y-141745748D01*
X144932000Y-141746499D01*
X145035335Y-141748984D01*
X145100341Y-141754127D01*
X145134769Y-141762850D01*
X145146372Y-141776077D01*
X145142900Y-141794730D01*
X145131368Y-141825020D01*
X145101648Y-141903508D01*
X145056061Y-142024075D01*
X144996651Y-142181315D01*
X144925459Y-142369819D01*
X144844528Y-142584180D01*
X144755902Y-142818992D01*
X144661622Y-143068845D01*
X144199395Y-144293953D01*
X144302580Y-144560258D01*
X144333769Y-144639175D01*
X144375017Y-144738381D01*
X144406724Y-144808422D01*
X144423806Y-144837668D01*
X144428031Y-144838650D01*
X144475007Y-144838489D01*
X144563919Y-144833291D01*
X144684074Y-144823776D01*
X144824778Y-144810664D01*
X144834036Y-144809745D01*
X144962414Y-144797488D01*
X145105993Y-144784708D01*
X145270586Y-144770956D01*
X145462005Y-144755778D01*
X145686063Y-144738724D01*
X145948571Y-144719341D01*
X146255342Y-144697178D01*
X146612188Y-144671784D01*
X146870070Y-144655692D01*
X147248624Y-144637851D01*
X147668343Y-144623497D01*
X148120898Y-144612632D01*
X148597958Y-144605254D01*
X149091194Y-144601365D01*
X149592276Y-144600963D01*
X150092875Y-144604048D01*
X150584661Y-144610622D01*
X151059305Y-144620683D01*
X151508476Y-144634232D01*
X151923845Y-144651268D01*
X152297083Y-144671793D01*
X152390596Y-144677793D01*
X153348548Y-144744213D01*
X154262385Y-144817153D01*
X155142744Y-144897713D01*
X156000257Y-144986994D01*
X156845559Y-145086096D01*
X157689284Y-145196120D01*
X158542067Y-145318166D01*
X158617800Y-145329530D01*
X158911798Y-145374722D01*
X159220678Y-145423703D01*
X159534395Y-145474781D01*
X159842906Y-145526265D01*
X160136166Y-145576463D01*
X160404130Y-145623685D01*
X160636756Y-145666238D01*
X160823999Y-145702432D01*
X161131620Y-145764355D01*
X161163365Y-145908336D01*
X161173302Y-145954062D01*
X161196539Y-146065034D01*
X161214801Y-146157275D01*
X161234492Y-146262234D01*
X161141477Y-146243520D01*
X160979430Y-146211211D01*
X160451461Y-146109409D01*
X159883221Y-146004500D01*
X159286348Y-145898424D01*
X158672481Y-145793121D01*
X158053261Y-145690530D01*
X157440326Y-145592591D01*
X156845316Y-145501243D01*
X156279870Y-145418425D01*
X155755628Y-145346078D01*
X155281036Y-145285051D01*
X154514660Y-145194823D01*
X153737552Y-145113041D01*
X152956247Y-145040109D01*
X152177277Y-144976433D01*
X151407174Y-144922418D01*
X150652472Y-144878469D01*
X149919703Y-144844992D01*
X149215399Y-144822392D01*
X148546094Y-144811073D01*
X147918320Y-144811442D01*
X147338610Y-144823904D01*
X147337340Y-144823947D01*
X147149617Y-144831188D01*
X146934009Y-144841039D01*
X146696965Y-144853077D01*
X146444932Y-144866880D01*
X146184357Y-144882024D01*
X145921688Y-144898086D01*
X145663373Y-144914643D01*
X145415859Y-144931273D01*
X145185594Y-144947553D01*
X144979026Y-144963059D01*
X144802601Y-144977368D01*
X144662768Y-144990058D01*
X144565974Y-145000706D01*
X144518667Y-145008889D01*
X144502742Y-145026947D01*
X144507712Y-145074523D01*
X144536980Y-145161455D01*
X144590490Y-145302283D01*
X144149542Y-145302283D01*
X143708595Y-145302283D01*
X143675589Y-145192118D01*
X143668532Y-145169093D01*
X143644266Y-145111389D01*
X143611195Y-145091012D01*
X143552137Y-145094352D01*
X143541846Y-145095711D01*
X143450678Y-145105786D01*
X143320427Y-145118106D01*
X143162948Y-145131755D01*
X142990101Y-145145817D01*
X142813743Y-145159376D01*
X142645732Y-145171516D01*
X142497925Y-145181322D01*
X142382181Y-145187877D01*
X142310356Y-145190265D01*
X142295841Y-145190144D01*
X142189573Y-145178384D01*
X142131483Y-145148258D01*
X142113148Y-145119592D01*
X142128152Y-145106252D01*
X142141452Y-145105245D01*
X142203434Y-145098778D01*
X142306105Y-145087291D01*
X142439868Y-145071922D01*
X142595127Y-145053804D01*
X142762286Y-145034074D01*
X142931747Y-145013866D01*
X143093915Y-144994316D01*
X143239192Y-144976560D01*
X143357982Y-144961732D01*
X143440689Y-144950968D01*
X143472196Y-144945667D01*
X143534814Y-144927075D01*
X143559708Y-144906311D01*
X143551692Y-144879876D01*
X143525818Y-144804981D01*
X143483722Y-144686563D01*
X143427102Y-144529303D01*
X143357658Y-144337882D01*
X143277089Y-144116984D01*
X143187093Y-143871290D01*
X143089369Y-143605481D01*
X142985617Y-143324241D01*
X142889200Y-143063142D01*
X142791078Y-142797044D01*
X142700544Y-142551127D01*
X142619291Y-142330012D01*
X142549012Y-142138320D01*
X142491403Y-141980670D01*
X142448157Y-141861685D01*
X142420966Y-141785984D01*
X142411527Y-141758188D01*
X142417617Y-141756060D01*
X142467091Y-141751976D01*
X142558229Y-141748697D01*
X142681290Y-141746515D01*
X142826537Y-141745723D01*
X143241547Y-141745723D01*
X143489941Y-142543848D01*
G37*
M02*
