  0
SECTION
  2
HEADER
  9
$ANGBASE
  50
0.0
  9
$ANGDIR
  70
1
  9
$MEASUREMENT
  70
0
  0
ENDSEC
  0
SECTION
  2
TABLES
  0
TABLE
  2
LTYPE
  70
4
  0
LTYPE
  5
40F
  2
CONTINUOUS
  70
0
  3
Solid line
  72
65
  73
0
  40
0.0
  0
LTYPE
  5
410
  2
DASHDOT
 70
0
  3
Dash Dot ____ _ ____ _
 72
65
 73
4
 40
2.0
 49
1.25
 49
-0.25
 49
0.25
 49
-0.25
  0
LTYPE
  5
411
  2
DASHED
 70
0
  3
Dashed __ __ __ __ __
 72
65
 73
2
 40
0.75
 49
0.5
 49
-0.25
  0
LTYPE
  5
43B
  2
DOTTED
 70
0
  3
Dotted .  .  .  .
 72
65
 73
2
 40
0.2
 49
0.0
 49
-0.2
  0
ENDTAB
  0
TABLE
  2
STYLE
  70
4
  0
STYLE
  2
KICAD
  70
0
  40
0
  41
1
  42
1
  50
0
  71
0
  3
isocp.shx
  0
STYLE
  2
KICADB
  70
0
  40
0
  41
1
  42
1
  50
0
  71
0
  3
isocp.shx
  0
STYLE
  2
KICADI
  70
0
  40
0
  41
1
  42
1
  50
15
  71
0
  3
isocp.shx
  0
STYLE
  2
KICADBI
  70
0
  40
0
  41
1
  42
1
  50
15
  71
0
  3
isocp.shx
  0
ENDTAB
  0
TABLE
  2
LAYER
  70
1
  0
LAYER
  2
BLACK
  70
0
  62
7
  6
CONTINUOUS
  0
ENDTAB
  0
ENDSEC
  0
SECTION
  2
ENTITIES
0
LINE
8
BLACK
6
CONTINUOUS
10
4.725
20
-5.775
11
4.725
21
-2.875
0
ARC
8
BLACK
10
4.825
20
-2.875
40
0.1
50
90
51
180
0
LINE
8
BLACK
6
CONTINUOUS
10
4.825
20
-2.775
11
7.125
21
-2.775
0
ARC
8
BLACK
10
4.825
20
-5.775
40
0.1
50
-180
51
-90
0
LINE
8
BLACK
6
CONTINUOUS
10
7.225
20
-2.875
11
7.225
21
-5.775
0
LINE
8
BLACK
6
CONTINUOUS
10
7.125
20
-5.875
11
4.825
21
-5.875
0
ARC
8
BLACK
10
7.125
20
-2.875
40
0.1
50
-0
51
90
0
ARC
8
BLACK
10
7.125
20
-5.775
40
0.1
50
-90
51
-0
0
LINE
8
BLACK
6
CONTINUOUS
10
4.81201
20
-2.86201
11
4.93799
21
-2.98799
0
LINE
8
BLACK
6
CONTINUOUS
10
4.93799
20
-2.86201
11
4.81201
21
-2.98799
0
LINE
8
BLACK
6
CONTINUOUS
10
4.81201
20
-5.6624
11
4.93799
21
-5.78839
0
LINE
8
BLACK
6
CONTINUOUS
10
4.93799
20
-5.6624
11
4.81201
21
-5.78839
0
LINE
8
BLACK
6
CONTINUOUS
10
7.01201
20
-2.86201
11
7.13799
21
-2.98799
0
LINE
8
BLACK
6
CONTINUOUS
10
7.13799
20
-2.86201
11
7.01201
21
-2.98799
0
LINE
8
BLACK
6
CONTINUOUS
10
7.01201
20
-5.6624
11
7.13799
21
-5.78839
0
LINE
8
BLACK
6
CONTINUOUS
10
7.13799
20
-5.6624
11
7.01201
21
-5.78839
0
LINE
8
BLACK
6
CONTINUOUS
10
4.82052
20
-6.00001
11
4.82052
21
-5.92127
0
LINE
8
BLACK
6
CONTINUOUS
10
4.82052
20
-5.92127
11
4.83927
21
-5.92127
0
LINE
8
BLACK
6
CONTINUOUS
10
4.83927
20
-5.92127
11
4.85052
21
-5.92502
0
LINE
8
BLACK
6
CONTINUOUS
10
4.85052
20
-5.92502
11
4.85801
21
-5.93252
0
LINE
8
BLACK
6
CONTINUOUS
10
4.85801
20
-5.93252
11
4.86176
21
-5.94002
0
LINE
8
BLACK
6
CONTINUOUS
10
4.86176
20
-5.94002
11
4.86551
21
-5.95501
0
LINE
8
BLACK
6
CONTINUOUS
10
4.86551
20
-5.95501
11
4.86551
21
-5.96626
0
LINE
8
BLACK
6
CONTINUOUS
10
4.86551
20
-5.96626
11
4.86176
21
-5.98126
0
LINE
8
BLACK
6
CONTINUOUS
10
4.86176
20
-5.98126
11
4.85801
21
-5.98876
0
LINE
8
BLACK
6
CONTINUOUS
10
4.85801
20
-5.98876
11
4.85052
21
-5.99626
0
LINE
8
BLACK
6
CONTINUOUS
10
4.85052
20
-5.99626
11
4.83927
21
-6.00001
0
LINE
8
BLACK
6
CONTINUOUS
10
4.83927
20
-6.00001
11
4.82052
21
-6.00001
0
LINE
8
BLACK
6
CONTINUOUS
10
4.89926
20
-6.00001
11
4.89926
21
-5.94752
0
LINE
8
BLACK
6
CONTINUOUS
10
4.89926
20
-5.96251
11
4.90301
21
-5.95501
0
LINE
8
BLACK
6
CONTINUOUS
10
4.90301
20
-5.95501
11
4.90676
21
-5.95127
0
LINE
8
BLACK
6
CONTINUOUS
10
4.90676
20
-5.95127
11
4.91426
21
-5.94752
0
LINE
8
BLACK
6
CONTINUOUS
10
4.91426
20
-5.94752
11
4.92176
21
-5.94752
0
LINE
8
BLACK
6
CONTINUOUS
10
4.948
20
-6.00001
11
4.948
21
-5.94752
0
LINE
8
BLACK
6
CONTINUOUS
10
4.948
20
-5.92127
11
4.94425
21
-5.92502
0
LINE
8
BLACK
6
CONTINUOUS
10
4.94425
20
-5.92502
11
4.948
21
-5.92877
0
LINE
8
BLACK
6
CONTINUOUS
10
4.948
20
-5.92877
11
4.95175
21
-5.92502
0
LINE
8
BLACK
6
CONTINUOUS
10
4.95175
20
-5.92502
11
4.948
21
-5.92127
0
LINE
8
BLACK
6
CONTINUOUS
10
4.948
20
-5.92127
11
4.948
21
-5.92877
0
LINE
8
BLACK
6
CONTINUOUS
10
4.99675
20
-6.00001
11
4.98925
21
-5.99626
0
LINE
8
BLACK
6
CONTINUOUS
10
4.98925
20
-5.99626
11
4.9855
21
-5.98876
0
LINE
8
BLACK
6
CONTINUOUS
10
4.9855
20
-5.98876
11
4.9855
21
-5.92127
0
LINE
8
BLACK
6
CONTINUOUS
10
5.03799
20
-6.00001
11
5.03049
21
-5.99626
0
LINE
8
BLACK
6
CONTINUOUS
10
5.03049
20
-5.99626
11
5.02674
21
-5.98876
0
LINE
8
BLACK
6
CONTINUOUS
10
5.02674
20
-5.98876
11
5.02674
21
-5.92127
0
LINE
8
BLACK
6
CONTINUOUS
10
5.12798
20
-6.00001
11
5.12798
21
-5.92127
0
LINE
8
BLACK
6
CONTINUOUS
10
5.12798
20
-5.92127
11
5.15423
21
-5.97751
0
LINE
8
BLACK
6
CONTINUOUS
10
5.15423
20
-5.97751
11
5.18047
21
-5.92127
0
LINE
8
BLACK
6
CONTINUOUS
10
5.18047
20
-5.92127
11
5.18047
21
-6.00001
0
LINE
8
BLACK
6
CONTINUOUS
10
5.25172
20
-6.00001
11
5.25172
21
-5.95876
0
LINE
8
BLACK
6
CONTINUOUS
10
5.25172
20
-5.95876
11
5.24797
21
-5.95127
0
LINE
8
BLACK
6
CONTINUOUS
10
5.24797
20
-5.95127
11
5.24047
21
-5.94752
0
LINE
8
BLACK
6
CONTINUOUS
10
5.24047
20
-5.94752
11
5.22547
21
-5.94752
0
LINE
8
BLACK
6
CONTINUOUS
10
5.22547
20
-5.94752
11
5.21797
21
-5.95127
0
LINE
8
BLACK
6
CONTINUOUS
10
5.25172
20
-5.99626
11
5.24422
21
-6.00001
0
LINE
8
BLACK
6
CONTINUOUS
10
5.24422
20
-6.00001
11
5.22547
21
-6.00001
0
LINE
8
BLACK
6
CONTINUOUS
10
5.22547
20
-6.00001
11
5.21797
21
-5.99626
0
LINE
8
BLACK
6
CONTINUOUS
10
5.21797
20
-5.99626
11
5.21422
21
-5.98876
0
LINE
8
BLACK
6
CONTINUOUS
10
5.21422
20
-5.98876
11
5.21422
21
-5.98126
0
LINE
8
BLACK
6
CONTINUOUS
10
5.21422
20
-5.98126
11
5.21797
21
-5.97376
0
LINE
8
BLACK
6
CONTINUOUS
10
5.21797
20
-5.97376
11
5.22547
21
-5.97001
0
LINE
8
BLACK
6
CONTINUOUS
10
5.22547
20
-5.97001
11
5.24422
21
-5.97001
0
LINE
8
BLACK
6
CONTINUOUS
10
5.24422
20
-5.97001
11
5.25172
21
-5.96626
0
LINE
8
BLACK
6
CONTINUOUS
10
5.28921
20
-5.94752
11
5.28921
21
-6.02626
0
LINE
8
BLACK
6
CONTINUOUS
10
5.28921
20
-5.95127
11
5.29671
21
-5.94752
0
LINE
8
BLACK
6
CONTINUOUS
10
5.29671
20
-5.94752
11
5.31171
21
-5.94752
0
LINE
8
BLACK
6
CONTINUOUS
10
5.31171
20
-5.94752
11
5.31921
21
-5.95127
0
LINE
8
BLACK
6
CONTINUOUS
10
5.31921
20
-5.95127
11
5.32296
21
-5.95501
0
LINE
8
BLACK
6
CONTINUOUS
10
5.32296
20
-5.95501
11
5.32671
21
-5.96251
0
LINE
8
BLACK
6
CONTINUOUS
10
5.32671
20
-5.96251
11
5.32671
21
-5.98501
0
LINE
8
BLACK
6
CONTINUOUS
10
5.32671
20
-5.98501
11
5.32296
21
-5.99251
0
LINE
8
BLACK
6
CONTINUOUS
10
5.32296
20
-5.99251
11
5.31921
21
-5.99626
0
LINE
8
BLACK
6
CONTINUOUS
10
5.31921
20
-5.99626
11
5.31171
21
-6.00001
0
LINE
8
BLACK
6
CONTINUOUS
10
5.31171
20
-6.00001
11
5.29671
21
-6.00001
0
LINE
8
BLACK
6
CONTINUOUS
10
5.29671
20
-6.00001
11
5.28921
21
-5.99626
0
LINE
8
BLACK
6
CONTINUOUS
10
5.36045
20
-5.99251
11
5.3642
21
-5.99626
0
LINE
8
BLACK
6
CONTINUOUS
10
5.3642
20
-5.99626
11
5.36045
21
-6.00001
0
LINE
8
BLACK
6
CONTINUOUS
10
5.36045
20
-6.00001
11
5.3567
21
-5.99626
0
LINE
8
BLACK
6
CONTINUOUS
10
5.3567
20
-5.99626
11
5.36045
21
-5.99251
0
LINE
8
BLACK
6
CONTINUOUS
10
5.36045
20
-5.99251
11
5.36045
21
-6.00001
0
LINE
8
BLACK
6
CONTINUOUS
10
5.36045
20
-5.95127
11
5.3642
21
-5.95501
0
LINE
8
BLACK
6
CONTINUOUS
10
5.3642
20
-5.95501
11
5.36045
21
-5.95876
0
LINE
8
BLACK
6
CONTINUOUS
10
5.36045
20
-5.95876
11
5.3567
21
-5.95501
0
LINE
8
BLACK
6
CONTINUOUS
10
5.3567
20
-5.95501
11
5.36045
21
-5.95127
0
LINE
8
BLACK
6
CONTINUOUS
10
5.36045
20
-5.95127
11
5.36045
21
-5.95876
0
LINE
8
BLACK
6
CONTINUOUS
10
4.64429
20
-6.08957
11
4.72303
21
-6.16831
0
LINE
8
BLACK
6
CONTINUOUS
10
4.72303
20
-6.08957
11
4.64429
21
-6.16831
0
LINE
8
BLACK
6
CONTINUOUS
10
4.81302
20
-6.08662
11
4.86176
21
-6.08662
0
LINE
8
BLACK
6
CONTINUOUS
10
4.86176
20
-6.08662
11
4.83552
21
-6.11662
0
LINE
8
BLACK
6
CONTINUOUS
10
4.83552
20
-6.11662
11
4.84677
21
-6.11662
0
LINE
8
BLACK
6
CONTINUOUS
10
4.84677
20
-6.11662
11
4.85427
21
-6.12037
0
LINE
8
BLACK
6
CONTINUOUS
10
4.85427
20
-6.12037
11
4.85801
21
-6.12412
0
LINE
8
BLACK
6
CONTINUOUS
10
4.85801
20
-6.12412
11
4.86176
21
-6.13162
0
LINE
8
BLACK
6
CONTINUOUS
10
4.86176
20
-6.13162
11
4.86176
21
-6.15037
0
LINE
8
BLACK
6
CONTINUOUS
10
4.86176
20
-6.15037
11
4.85801
21
-6.15786
0
LINE
8
BLACK
6
CONTINUOUS
10
4.85801
20
-6.15786
11
4.85427
21
-6.16161
0
LINE
8
BLACK
6
CONTINUOUS
10
4.85427
20
-6.16161
11
4.84677
21
-6.16536
0
LINE
8
BLACK
6
CONTINUOUS
10
4.84677
20
-6.16536
11
4.82427
21
-6.16536
0
LINE
8
BLACK
6
CONTINUOUS
10
4.82427
20
-6.16536
11
4.81677
21
-6.16161
0
LINE
8
BLACK
6
CONTINUOUS
10
4.81677
20
-6.16161
11
4.81302
21
-6.15786
0
LINE
8
BLACK
6
CONTINUOUS
10
4.89551
20
-6.15786
11
4.89926
21
-6.16161
0
LINE
8
BLACK
6
CONTINUOUS
10
4.89926
20
-6.16161
11
4.89551
21
-6.16536
0
LINE
8
BLACK
6
CONTINUOUS
10
4.89551
20
-6.16536
11
4.89176
21
-6.16161
0
LINE
8
BLACK
6
CONTINUOUS
10
4.89176
20
-6.16161
11
4.89551
21
-6.15786
0
LINE
8
BLACK
6
CONTINUOUS
10
4.89551
20
-6.15786
11
4.89551
21
-6.16536
0
LINE
8
BLACK
6
CONTINUOUS
10
4.92926
20
-6.09412
11
4.93301
21
-6.09037
0
LINE
8
BLACK
6
CONTINUOUS
10
4.93301
20
-6.09037
11
4.9405
21
-6.08662
0
LINE
8
BLACK
6
CONTINUOUS
10
4.9405
20
-6.08662
11
4.95925
21
-6.08662
0
LINE
8
BLACK
6
CONTINUOUS
10
4.95925
20
-6.08662
11
4.96675
21
-6.09037
0
LINE
8
BLACK
6
CONTINUOUS
10
4.96675
20
-6.09037
11
4.9705
21
-6.09412
0
LINE
8
BLACK
6
CONTINUOUS
10
4.9705
20
-6.09412
11
4.97425
21
-6.10162
0
LINE
8
BLACK
6
CONTINUOUS
10
4.97425
20
-6.10162
11
4.97425
21
-6.10912
0
LINE
8
BLACK
6
CONTINUOUS
10
4.97425
20
-6.10912
11
4.9705
21
-6.12037
0
LINE
8
BLACK
6
CONTINUOUS
10
4.9705
20
-6.12037
11
4.92551
21
-6.16536
0
LINE
8
BLACK
6
CONTINUOUS
10
4.92551
20
-6.16536
11
4.97425
21
-6.16536
0
LINE
8
BLACK
6
CONTINUOUS
10
5.02299
20
-6.08662
11
5.03049
21
-6.08662
0
LINE
8
BLACK
6
CONTINUOUS
10
5.03049
20
-6.08662
11
5.03799
21
-6.09037
0
LINE
8
BLACK
6
CONTINUOUS
10
5.03799
20
-6.09037
11
5.04174
21
-6.09412
0
LINE
8
BLACK
6
CONTINUOUS
10
5.04174
20
-6.09412
11
5.04549
21
-6.10162
0
LINE
8
BLACK
6
CONTINUOUS
10
5.04549
20
-6.10162
11
5.04924
21
-6.11662
0
LINE
8
BLACK
6
CONTINUOUS
10
5.04924
20
-6.11662
11
5.04924
21
-6.13537
0
LINE
8
BLACK
6
CONTINUOUS
10
5.04924
20
-6.13537
11
5.04549
21
-6.15037
0
LINE
8
BLACK
6
CONTINUOUS
10
5.04549
20
-6.15037
11
5.04174
21
-6.15786
0
LINE
8
BLACK
6
CONTINUOUS
10
5.04174
20
-6.15786
11
5.03799
21
-6.16161
0
LINE
8
BLACK
6
CONTINUOUS
10
5.03799
20
-6.16161
11
5.03049
21
-6.16536
0
LINE
8
BLACK
6
CONTINUOUS
10
5.03049
20
-6.16536
11
5.02299
21
-6.16536
0
LINE
8
BLACK
6
CONTINUOUS
10
5.02299
20
-6.16536
11
5.01549
21
-6.16161
0
LINE
8
BLACK
6
CONTINUOUS
10
5.01549
20
-6.16161
11
5.01175
21
-6.15786
0
LINE
8
BLACK
6
CONTINUOUS
10
5.01175
20
-6.15786
11
5.008
21
-6.15037
0
LINE
8
BLACK
6
CONTINUOUS
10
5.008
20
-6.15037
11
5.00425
21
-6.13537
0
LINE
8
BLACK
6
CONTINUOUS
10
5.00425
20
-6.13537
11
5.00425
21
-6.11662
0
LINE
8
BLACK
6
CONTINUOUS
10
5.00425
20
-6.11662
11
5.008
21
-6.10162
0
LINE
8
BLACK
6
CONTINUOUS
10
5.008
20
-6.10162
11
5.01175
21
-6.09412
0
LINE
8
BLACK
6
CONTINUOUS
10
5.01175
20
-6.09412
11
5.01549
21
-6.09037
0
LINE
8
BLACK
6
CONTINUOUS
10
5.01549
20
-6.09037
11
5.02299
21
-6.08662
0
LINE
8
BLACK
6
CONTINUOUS
10
5.09798
20
-6.08662
11
5.10548
21
-6.08662
0
LINE
8
BLACK
6
CONTINUOUS
10
5.10548
20
-6.08662
11
5.11298
21
-6.09037
0
LINE
8
BLACK
6
CONTINUOUS
10
5.11298
20
-6.09037
11
5.11673
21
-6.09412
0
LINE
8
BLACK
6
CONTINUOUS
10
5.11673
20
-6.09412
11
5.12048
21
-6.10162
0
LINE
8
BLACK
6
CONTINUOUS
10
5.12048
20
-6.10162
11
5.12423
21
-6.11662
0
LINE
8
BLACK
6
CONTINUOUS
10
5.12423
20
-6.11662
11
5.12423
21
-6.13537
0
LINE
8
BLACK
6
CONTINUOUS
10
5.12423
20
-6.13537
11
5.12048
21
-6.15037
0
LINE
8
BLACK
6
CONTINUOUS
10
5.12048
20
-6.15037
11
5.11673
21
-6.15786
0
LINE
8
BLACK
6
CONTINUOUS
10
5.11673
20
-6.15786
11
5.11298
21
-6.16161
0
LINE
8
BLACK
6
CONTINUOUS
10
5.11298
20
-6.16161
11
5.10548
21
-6.16536
0
LINE
8
BLACK
6
CONTINUOUS
10
5.10548
20
-6.16536
11
5.09798
21
-6.16536
0
LINE
8
BLACK
6
CONTINUOUS
10
5.09798
20
-6.16536
11
5.09049
21
-6.16161
0
LINE
8
BLACK
6
CONTINUOUS
10
5.09049
20
-6.16161
11
5.08674
21
-6.15786
0
LINE
8
BLACK
6
CONTINUOUS
10
5.08674
20
-6.15786
11
5.08299
21
-6.15037
0
LINE
8
BLACK
6
CONTINUOUS
10
5.08299
20
-6.15037
11
5.07924
21
-6.13537
0
LINE
8
BLACK
6
CONTINUOUS
10
5.07924
20
-6.13537
11
5.07924
21
-6.11662
0
LINE
8
BLACK
6
CONTINUOUS
10
5.07924
20
-6.11662
11
5.08299
21
-6.10162
0
LINE
8
BLACK
6
CONTINUOUS
10
5.08299
20
-6.10162
11
5.08674
21
-6.09412
0
LINE
8
BLACK
6
CONTINUOUS
10
5.08674
20
-6.09412
11
5.09049
21
-6.09037
0
LINE
8
BLACK
6
CONTINUOUS
10
5.09049
20
-6.09037
11
5.09798
21
-6.08662
0
LINE
8
BLACK
6
CONTINUOUS
10
5.15798
20
-6.16536
11
5.15798
21
-6.11287
0
LINE
8
BLACK
6
CONTINUOUS
10
5.15798
20
-6.12037
11
5.16173
21
-6.11662
0
LINE
8
BLACK
6
CONTINUOUS
10
5.16173
20
-6.11662
11
5.16923
21
-6.11287
0
LINE
8
BLACK
6
CONTINUOUS
10
5.16923
20
-6.11287
11
5.18047
21
-6.11287
0
LINE
8
BLACK
6
CONTINUOUS
10
5.18047
20
-6.11287
11
5.18797
21
-6.11662
0
LINE
8
BLACK
6
CONTINUOUS
10
5.18797
20
-6.11662
11
5.19172
21
-6.12412
0
LINE
8
BLACK
6
CONTINUOUS
10
5.19172
20
-6.12412
11
5.19172
21
-6.16536
0
LINE
8
BLACK
6
CONTINUOUS
10
5.19172
20
-6.12412
11
5.19547
21
-6.11662
0
LINE
8
BLACK
6
CONTINUOUS
10
5.19547
20
-6.11662
11
5.20297
21
-6.11287
0
LINE
8
BLACK
6
CONTINUOUS
10
5.20297
20
-6.11287
11
5.21422
21
-6.11287
0
LINE
8
BLACK
6
CONTINUOUS
10
5.21422
20
-6.11287
11
5.22172
21
-6.11662
0
LINE
8
BLACK
6
CONTINUOUS
10
5.22172
20
-6.11662
11
5.22547
21
-6.12412
0
LINE
8
BLACK
6
CONTINUOUS
10
5.22547
20
-6.12412
11
5.22547
21
-6.16536
0
LINE
8
BLACK
6
CONTINUOUS
10
5.26296
20
-6.16536
11
5.26296
21
-6.11287
0
LINE
8
BLACK
6
CONTINUOUS
10
5.26296
20
-6.12037
11
5.26671
21
-6.11662
0
LINE
8
BLACK
6
CONTINUOUS
10
5.26671
20
-6.11662
11
5.27421
21
-6.11287
0
LINE
8
BLACK
6
CONTINUOUS
10
5.27421
20
-6.11287
11
5.28546
21
-6.11287
0
LINE
8
BLACK
6
CONTINUOUS
10
5.28546
20
-6.11287
11
5.29296
21
-6.11662
0
LINE
8
BLACK
6
CONTINUOUS
10
5.29296
20
-6.11662
11
5.29671
21
-6.12412
0
LINE
8
BLACK
6
CONTINUOUS
10
5.29671
20
-6.12412
11
5.29671
21
-6.16536
0
LINE
8
BLACK
6
CONTINUOUS
10
5.29671
20
-6.12412
11
5.30046
21
-6.11662
0
LINE
8
BLACK
6
CONTINUOUS
10
5.30046
20
-6.11662
11
5.30796
21
-6.11287
0
LINE
8
BLACK
6
CONTINUOUS
10
5.30796
20
-6.11287
11
5.31921
21
-6.11287
0
LINE
8
BLACK
6
CONTINUOUS
10
5.31921
20
-6.11287
11
5.32671
21
-6.11662
0
LINE
8
BLACK
6
CONTINUOUS
10
5.32671
20
-6.11662
11
5.33046
21
-6.12412
0
LINE
8
BLACK
6
CONTINUOUS
10
5.33046
20
-6.12412
11
5.33046
21
-6.16536
0
LINE
8
BLACK
6
CONTINUOUS
10
5.48419
20
-6.08287
11
5.41669
21
-6.18411
0
LINE
8
BLACK
6
CONTINUOUS
10
5.58542
20
-6.08662
11
5.59292
21
-6.08662
0
LINE
8
BLACK
6
CONTINUOUS
10
5.59292
20
-6.08662
11
5.60042
21
-6.09037
0
LINE
8
BLACK
6
CONTINUOUS
10
5.60042
20
-6.09037
11
5.60417
21
-6.09412
0
LINE
8
BLACK
6
CONTINUOUS
10
5.60417
20
-6.09412
11
5.60792
21
-6.10162
0
LINE
8
BLACK
6
CONTINUOUS
10
5.60792
20
-6.10162
11
5.61167
21
-6.11662
0
LINE
8
BLACK
6
CONTINUOUS
10
5.61167
20
-6.11662
11
5.61167
21
-6.13537
0
LINE
8
BLACK
6
CONTINUOUS
10
5.61167
20
-6.13537
11
5.60792
21
-6.15037
0
LINE
8
BLACK
6
CONTINUOUS
10
5.60792
20
-6.15037
11
5.60417
21
-6.15786
0
LINE
8
BLACK
6
CONTINUOUS
10
5.60417
20
-6.15786
11
5.60042
21
-6.16161
0
LINE
8
BLACK
6
CONTINUOUS
10
5.60042
20
-6.16161
11
5.59292
21
-6.16536
0
LINE
8
BLACK
6
CONTINUOUS
10
5.59292
20
-6.16536
11
5.58542
21
-6.16536
0
LINE
8
BLACK
6
CONTINUOUS
10
5.58542
20
-6.16536
11
5.57792
21
-6.16161
0
LINE
8
BLACK
6
CONTINUOUS
10
5.57792
20
-6.16161
11
5.57418
21
-6.15786
0
LINE
8
BLACK
6
CONTINUOUS
10
5.57418
20
-6.15786
11
5.57043
21
-6.15037
0
LINE
8
BLACK
6
CONTINUOUS
10
5.57043
20
-6.15037
11
5.56668
21
-6.13537
0
LINE
8
BLACK
6
CONTINUOUS
10
5.56668
20
-6.13537
11
5.56668
21
-6.11662
0
LINE
8
BLACK
6
CONTINUOUS
10
5.56668
20
-6.11662
11
5.57043
21
-6.10162
0
LINE
8
BLACK
6
CONTINUOUS
10
5.57043
20
-6.10162
11
5.57418
21
-6.09412
0
LINE
8
BLACK
6
CONTINUOUS
10
5.57418
20
-6.09412
11
5.57792
21
-6.09037
0
LINE
8
BLACK
6
CONTINUOUS
10
5.57792
20
-6.09037
11
5.58542
21
-6.08662
0
LINE
8
BLACK
6
CONTINUOUS
10
5.64542
20
-6.15786
11
5.64917
21
-6.16161
0
LINE
8
BLACK
6
CONTINUOUS
10
5.64917
20
-6.16161
11
5.64542
21
-6.16536
0
LINE
8
BLACK
6
CONTINUOUS
10
5.64542
20
-6.16536
11
5.64167
21
-6.16161
0
LINE
8
BLACK
6
CONTINUOUS
10
5.64167
20
-6.16161
11
5.64542
21
-6.15786
0
LINE
8
BLACK
6
CONTINUOUS
10
5.64542
20
-6.15786
11
5.64542
21
-6.16536
0
LINE
8
BLACK
6
CONTINUOUS
10
5.72416
20
-6.16536
11
5.67916
21
-6.16536
0
LINE
8
BLACK
6
CONTINUOUS
10
5.70166
20
-6.16536
11
5.70166
21
-6.08662
0
LINE
8
BLACK
6
CONTINUOUS
10
5.70166
20
-6.08662
11
5.69416
21
-6.09787
0
LINE
8
BLACK
6
CONTINUOUS
10
5.69416
20
-6.09787
11
5.68666
21
-6.10537
0
LINE
8
BLACK
6
CONTINUOUS
10
5.68666
20
-6.10537
11
5.67916
21
-6.10912
0
LINE
8
BLACK
6
CONTINUOUS
10
5.75415
20
-6.09412
11
5.7579
21
-6.09037
0
LINE
8
BLACK
6
CONTINUOUS
10
5.7579
20
-6.09037
11
5.7654
21
-6.08662
0
LINE
8
BLACK
6
CONTINUOUS
10
5.7654
20
-6.08662
11
5.78415
21
-6.08662
0
LINE
8
BLACK
6
CONTINUOUS
10
5.78415
20
-6.08662
11
5.79165
21
-6.09037
0
LINE
8
BLACK
6
CONTINUOUS
10
5.79165
20
-6.09037
11
5.7954
21
-6.09412
0
LINE
8
BLACK
6
CONTINUOUS
10
5.7954
20
-6.09412
11
5.79915
21
-6.10162
0
LINE
8
BLACK
6
CONTINUOUS
10
5.79915
20
-6.10162
11
5.79915
21
-6.10912
0
LINE
8
BLACK
6
CONTINUOUS
10
5.79915
20
-6.10912
11
5.7954
21
-6.12037
0
LINE
8
BLACK
6
CONTINUOUS
10
5.7954
20
-6.12037
11
5.7504
21
-6.16536
0
LINE
8
BLACK
6
CONTINUOUS
10
5.7504
20
-6.16536
11
5.79915
21
-6.16536
0
LINE
8
BLACK
6
CONTINUOUS
10
5.86664
20
-6.08662
11
5.85164
21
-6.08662
0
LINE
8
BLACK
6
CONTINUOUS
10
5.85164
20
-6.08662
11
5.84414
21
-6.09037
0
LINE
8
BLACK
6
CONTINUOUS
10
5.84414
20
-6.09037
11
5.84039
21
-6.09412
0
LINE
8
BLACK
6
CONTINUOUS
10
5.84039
20
-6.09412
11
5.83289
21
-6.10537
0
LINE
8
BLACK
6
CONTINUOUS
10
5.83289
20
-6.10537
11
5.82914
21
-6.12037
0
LINE
8
BLACK
6
CONTINUOUS
10
5.82914
20
-6.12037
11
5.82914
21
-6.15037
0
LINE
8
BLACK
6
CONTINUOUS
10
5.82914
20
-6.15037
11
5.83289
21
-6.15786
0
LINE
8
BLACK
6
CONTINUOUS
10
5.83289
20
-6.15786
11
5.83664
21
-6.16161
0
LINE
8
BLACK
6
CONTINUOUS
10
5.83664
20
-6.16161
11
5.84414
21
-6.16536
0
LINE
8
BLACK
6
CONTINUOUS
10
5.84414
20
-6.16536
11
5.85914
21
-6.16536
0
LINE
8
BLACK
6
CONTINUOUS
10
5.85914
20
-6.16536
11
5.86664
21
-6.16161
0
LINE
8
BLACK
6
CONTINUOUS
10
5.86664
20
-6.16161
11
5.87039
21
-6.15786
0
LINE
8
BLACK
6
CONTINUOUS
10
5.87039
20
-6.15786
11
5.87414
21
-6.15037
0
LINE
8
BLACK
6
CONTINUOUS
10
5.87414
20
-6.15037
11
5.87414
21
-6.13162
0
LINE
8
BLACK
6
CONTINUOUS
10
5.87414
20
-6.13162
11
5.87039
21
-6.12412
0
LINE
8
BLACK
6
CONTINUOUS
10
5.87039
20
-6.12412
11
5.86664
21
-6.12037
0
LINE
8
BLACK
6
CONTINUOUS
10
5.86664
20
-6.12037
11
5.85914
21
-6.11662
0
LINE
8
BLACK
6
CONTINUOUS
10
5.85914
20
-6.11662
11
5.84414
21
-6.11662
0
LINE
8
BLACK
6
CONTINUOUS
10
5.84414
20
-6.11662
11
5.83664
21
-6.12037
0
LINE
8
BLACK
6
CONTINUOUS
10
5.83664
20
-6.12037
11
5.83289
21
-6.12412
0
LINE
8
BLACK
6
CONTINUOUS
10
5.83289
20
-6.12412
11
5.82914
21
-6.13162
0
LINE
8
BLACK
6
CONTINUOUS
10
5.92288
20
-6.08662
11
5.93038
21
-6.08662
0
LINE
8
BLACK
6
CONTINUOUS
10
5.93038
20
-6.08662
11
5.93788
21
-6.09037
0
LINE
8
BLACK
6
CONTINUOUS
10
5.93788
20
-6.09037
11
5.94163
21
-6.09412
0
LINE
8
BLACK
6
CONTINUOUS
10
5.94163
20
-6.09412
11
5.94538
21
-6.10162
0
LINE
8
BLACK
6
CONTINUOUS
10
5.94538
20
-6.10162
11
5.94913
21
-6.11662
0
LINE
8
BLACK
6
CONTINUOUS
10
5.94913
20
-6.11662
11
5.94913
21
-6.13537
0
LINE
8
BLACK
6
CONTINUOUS
10
5.94913
20
-6.13537
11
5.94538
21
-6.15037
0
LINE
8
BLACK
6
CONTINUOUS
10
5.94538
20
-6.15037
11
5.94163
21
-6.15786
0
LINE
8
BLACK
6
CONTINUOUS
10
5.94163
20
-6.15786
11
5.93788
21
-6.16161
0
LINE
8
BLACK
6
CONTINUOUS
10
5.93788
20
-6.16161
11
5.93038
21
-6.16536
0
LINE
8
BLACK
6
CONTINUOUS
10
5.93038
20
-6.16536
11
5.92288
21
-6.16536
0
LINE
8
BLACK
6
CONTINUOUS
10
5.92288
20
-6.16536
11
5.91538
21
-6.16161
0
LINE
8
BLACK
6
CONTINUOUS
10
5.91538
20
-6.16161
11
5.91163
21
-6.15786
0
LINE
8
BLACK
6
CONTINUOUS
10
5.91163
20
-6.15786
11
5.90788
21
-6.15037
0
LINE
8
BLACK
6
CONTINUOUS
10
5.90788
20
-6.15037
11
5.90413
21
-6.13537
0
LINE
8
BLACK
6
CONTINUOUS
10
5.90413
20
-6.13537
11
5.90413
21
-6.11662
0
LINE
8
BLACK
6
CONTINUOUS
10
5.90413
20
-6.11662
11
5.90788
21
-6.10162
0
LINE
8
BLACK
6
CONTINUOUS
10
5.90788
20
-6.10162
11
5.91163
21
-6.09412
0
LINE
8
BLACK
6
CONTINUOUS
10
5.91163
20
-6.09412
11
5.91538
21
-6.09037
0
LINE
8
BLACK
6
CONTINUOUS
10
5.91538
20
-6.09037
11
5.92288
21
-6.08662
0
LINE
8
BLACK
6
CONTINUOUS
10
5.97912
20
-6.08662
11
5.97912
21
-6.10162
0
LINE
8
BLACK
6
CONTINUOUS
10
6.00912
20
-6.08662
11
6.00912
21
-6.10162
0
LINE
8
BLACK
6
CONTINUOUS
10
6.12536
20
-6.19536
11
6.12161
21
-6.19161
0
LINE
8
BLACK
6
CONTINUOUS
10
6.12161
20
-6.19161
11
6.11411
21
-6.18036
0
LINE
8
BLACK
6
CONTINUOUS
10
6.11411
20
-6.18036
11
6.11036
21
-6.17286
0
LINE
8
BLACK
6
CONTINUOUS
10
6.11036
20
-6.17286
11
6.10661
21
-6.16161
0
LINE
8
BLACK
6
CONTINUOUS
10
6.10661
20
-6.16161
11
6.10286
21
-6.14287
0
LINE
8
BLACK
6
CONTINUOUS
10
6.10286
20
-6.14287
11
6.10286
21
-6.12787
0
LINE
8
BLACK
6
CONTINUOUS
10
6.10286
20
-6.12787
11
6.10661
21
-6.10912
0
LINE
8
BLACK
6
CONTINUOUS
10
6.10661
20
-6.10912
11
6.11036
21
-6.09787
0
LINE
8
BLACK
6
CONTINUOUS
10
6.11036
20
-6.09787
11
6.11411
21
-6.09037
0
LINE
8
BLACK
6
CONTINUOUS
10
6.11411
20
-6.09037
11
6.12161
21
-6.07912
0
LINE
8
BLACK
6
CONTINUOUS
10
6.12161
20
-6.07912
11
6.12536
21
-6.07537
0
LINE
8
BLACK
6
CONTINUOUS
10
6.1891
20
-6.11287
11
6.1891
21
-6.16536
0
LINE
8
BLACK
6
CONTINUOUS
10
6.17035
20
-6.08287
11
6.1516
21
-6.13912
0
LINE
8
BLACK
6
CONTINUOUS
10
6.1516
20
-6.13912
11
6.20035
21
-6.13912
0
LINE
8
BLACK
6
CONTINUOUS
10
6.29034
20
-6.16536
11
6.29034
21
-6.08662
0
LINE
8
BLACK
6
CONTINUOUS
10
6.32408
20
-6.16536
11
6.32408
21
-6.12412
0
LINE
8
BLACK
6
CONTINUOUS
10
6.32408
20
-6.12412
11
6.32033
21
-6.11662
0
LINE
8
BLACK
6
CONTINUOUS
10
6.32033
20
-6.11662
11
6.31283
21
-6.11287
0
LINE
8
BLACK
6
CONTINUOUS
10
6.31283
20
-6.11287
11
6.30158
21
-6.11287
0
LINE
8
BLACK
6
CONTINUOUS
10
6.30158
20
-6.11287
11
6.29409
21
-6.11662
0
LINE
8
BLACK
6
CONTINUOUS
10
6.29409
20
-6.11662
11
6.29034
21
-6.12037
0
LINE
8
BLACK
6
CONTINUOUS
10
6.37283
20
-6.16536
11
6.36533
21
-6.16161
0
LINE
8
BLACK
6
CONTINUOUS
10
6.36533
20
-6.16161
11
6.36158
21
-6.15786
0
LINE
8
BLACK
6
CONTINUOUS
10
6.36158
20
-6.15786
11
6.35783
21
-6.15037
0
LINE
8
BLACK
6
CONTINUOUS
10
6.35783
20
-6.15037
11
6.35783
21
-6.12787
0
LINE
8
BLACK
6
CONTINUOUS
10
6.35783
20
-6.12787
11
6.36158
21
-6.12037
0
LINE
8
BLACK
6
CONTINUOUS
10
6.36158
20
-6.12037
11
6.36533
21
-6.11662
0
LINE
8
BLACK
6
CONTINUOUS
10
6.36533
20
-6.11662
11
6.37283
21
-6.11287
0
LINE
8
BLACK
6
CONTINUOUS
10
6.37283
20
-6.11287
11
6.38407
21
-6.11287
0
LINE
8
BLACK
6
CONTINUOUS
10
6.38407
20
-6.11287
11
6.39157
21
-6.11662
0
LINE
8
BLACK
6
CONTINUOUS
10
6.39157
20
-6.11662
11
6.39532
21
-6.12037
0
LINE
8
BLACK
6
CONTINUOUS
10
6.39532
20
-6.12037
11
6.39907
21
-6.12787
0
LINE
8
BLACK
6
CONTINUOUS
10
6.39907
20
-6.12787
11
6.39907
21
-6.15037
0
LINE
8
BLACK
6
CONTINUOUS
10
6.39907
20
-6.15037
11
6.39532
21
-6.15786
0
LINE
8
BLACK
6
CONTINUOUS
10
6.39532
20
-6.15786
11
6.39157
21
-6.16161
0
LINE
8
BLACK
6
CONTINUOUS
10
6.39157
20
-6.16161
11
6.38407
21
-6.16536
0
LINE
8
BLACK
6
CONTINUOUS
10
6.38407
20
-6.16536
11
6.37283
21
-6.16536
0
LINE
8
BLACK
6
CONTINUOUS
10
6.44407
20
-6.16536
11
6.43657
21
-6.16161
0
LINE
8
BLACK
6
CONTINUOUS
10
6.43657
20
-6.16161
11
6.43282
21
-6.15412
0
LINE
8
BLACK
6
CONTINUOUS
10
6.43282
20
-6.15412
11
6.43282
21
-6.08662
0
LINE
8
BLACK
6
CONTINUOUS
10
6.50406
20
-6.16161
11
6.49656
21
-6.16536
0
LINE
8
BLACK
6
CONTINUOUS
10
6.49656
20
-6.16536
11
6.48156
21
-6.16536
0
LINE
8
BLACK
6
CONTINUOUS
10
6.48156
20
-6.16536
11
6.47406
21
-6.16161
0
LINE
8
BLACK
6
CONTINUOUS
10
6.47406
20
-6.16161
11
6.47031
21
-6.15412
0
LINE
8
BLACK
6
CONTINUOUS
10
6.47031
20
-6.15412
11
6.47031
21
-6.12412
0
LINE
8
BLACK
6
CONTINUOUS
10
6.47031
20
-6.12412
11
6.47406
21
-6.11662
0
LINE
8
BLACK
6
CONTINUOUS
10
6.47406
20
-6.11662
11
6.48156
21
-6.11287
0
LINE
8
BLACK
6
CONTINUOUS
10
6.48156
20
-6.11287
11
6.49656
21
-6.11287
0
LINE
8
BLACK
6
CONTINUOUS
10
6.49656
20
-6.11287
11
6.50406
21
-6.11662
0
LINE
8
BLACK
6
CONTINUOUS
10
6.50406
20
-6.11662
11
6.50781
21
-6.12412
0
LINE
8
BLACK
6
CONTINUOUS
10
6.50781
20
-6.12412
11
6.50781
21
-6.13162
0
LINE
8
BLACK
6
CONTINUOUS
10
6.50781
20
-6.13162
11
6.47031
21
-6.13912
0
LINE
8
BLACK
6
CONTINUOUS
10
6.5378
20
-6.16161
11
6.5453
21
-6.16536
0
LINE
8
BLACK
6
CONTINUOUS
10
6.5453
20
-6.16536
11
6.5603
21
-6.16536
0
LINE
8
BLACK
6
CONTINUOUS
10
6.5603
20
-6.16536
11
6.5678
21
-6.16161
0
LINE
8
BLACK
6
CONTINUOUS
10
6.5678
20
-6.16161
11
6.57155
21
-6.15412
0
LINE
8
BLACK
6
CONTINUOUS
10
6.57155
20
-6.15412
11
6.57155
21
-6.15037
0
LINE
8
BLACK
6
CONTINUOUS
10
6.57155
20
-6.15037
11
6.5678
21
-6.14287
0
LINE
8
BLACK
6
CONTINUOUS
10
6.5678
20
-6.14287
11
6.5603
21
-6.13912
0
LINE
8
BLACK
6
CONTINUOUS
10
6.5603
20
-6.13912
11
6.54905
21
-6.13912
0
LINE
8
BLACK
6
CONTINUOUS
10
6.54905
20
-6.13912
11
6.54155
21
-6.13537
0
LINE
8
BLACK
6
CONTINUOUS
10
6.54155
20
-6.13537
11
6.5378
21
-6.12787
0
LINE
8
BLACK
6
CONTINUOUS
10
6.5378
20
-6.12787
11
6.5378
21
-6.12412
0
LINE
8
BLACK
6
CONTINUOUS
10
6.5378
20
-6.12412
11
6.54155
21
-6.11662
0
LINE
8
BLACK
6
CONTINUOUS
10
6.54155
20
-6.11662
11
6.54905
21
-6.11287
0
LINE
8
BLACK
6
CONTINUOUS
10
6.54905
20
-6.11287
11
6.5603
21
-6.11287
0
LINE
8
BLACK
6
CONTINUOUS
10
6.5603
20
-6.11287
11
6.5678
21
-6.11662
0
LINE
8
BLACK
6
CONTINUOUS
10
6.5978
20
-6.19536
11
6.60155
21
-6.19161
0
LINE
8
BLACK
6
CONTINUOUS
10
6.60155
20
-6.19161
11
6.60905
21
-6.18036
0
LINE
8
BLACK
6
CONTINUOUS
10
6.60905
20
-6.18036
11
6.6128
21
-6.17286
0
LINE
8
BLACK
6
CONTINUOUS
10
6.6128
20
-6.17286
11
6.61654
21
-6.16161
0
LINE
8
BLACK
6
CONTINUOUS
10
6.61654
20
-6.16161
11
6.62029
21
-6.14287
0
LINE
8
BLACK
6
CONTINUOUS
10
6.62029
20
-6.14287
11
6.62029
21
-6.12787
0
LINE
8
BLACK
6
CONTINUOUS
10
6.62029
20
-6.12787
11
6.61654
21
-6.10912
0
LINE
8
BLACK
6
CONTINUOUS
10
6.61654
20
-6.10912
11
6.6128
21
-6.09787
0
LINE
8
BLACK
6
CONTINUOUS
10
6.6128
20
-6.09787
11
6.60905
21
-6.09037
0
LINE
8
BLACK
6
CONTINUOUS
10
6.60905
20
-6.09037
11
6.60155
21
-6.07912
0
LINE
8
BLACK
6
CONTINUOUS
10
6.60155
20
-6.07912
11
6.5978
21
-6.07537
0
LINE
8
BLACK
6
CONTINUOUS
10
6.74028
20
-6.19536
11
6.73653
21
-6.19161
0
LINE
8
BLACK
6
CONTINUOUS
10
6.73653
20
-6.19161
11
6.72903
21
-6.18036
0
LINE
8
BLACK
6
CONTINUOUS
10
6.72903
20
-6.18036
11
6.72528
21
-6.17286
0
LINE
8
BLACK
6
CONTINUOUS
10
6.72528
20
-6.17286
11
6.72153
21
-6.16161
0
LINE
8
BLACK
6
CONTINUOUS
10
6.72153
20
-6.16161
11
6.71778
21
-6.14287
0
LINE
8
BLACK
6
CONTINUOUS
10
6.71778
20
-6.14287
11
6.71778
21
-6.12787
0
LINE
8
BLACK
6
CONTINUOUS
10
6.71778
20
-6.12787
11
6.72153
21
-6.10912
0
LINE
8
BLACK
6
CONTINUOUS
10
6.72153
20
-6.10912
11
6.72528
21
-6.09787
0
LINE
8
BLACK
6
CONTINUOUS
10
6.72528
20
-6.09787
11
6.72903
21
-6.09037
0
LINE
8
BLACK
6
CONTINUOUS
10
6.72903
20
-6.09037
11
6.73653
21
-6.07912
0
LINE
8
BLACK
6
CONTINUOUS
10
6.73653
20
-6.07912
11
6.74028
21
-6.07537
0
LINE
8
BLACK
6
CONTINUOUS
10
6.77028
20
-6.11287
11
6.77028
21
-6.16536
0
LINE
8
BLACK
6
CONTINUOUS
10
6.77028
20
-6.12037
11
6.77403
21
-6.11662
0
LINE
8
BLACK
6
CONTINUOUS
10
6.77403
20
-6.11662
11
6.78152
21
-6.11287
0
LINE
8
BLACK
6
CONTINUOUS
10
6.78152
20
-6.11287
11
6.79277
21
-6.11287
0
LINE
8
BLACK
6
CONTINUOUS
10
6.79277
20
-6.11287
11
6.80027
21
-6.11662
0
LINE
8
BLACK
6
CONTINUOUS
10
6.80027
20
-6.11662
11
6.80402
21
-6.12412
0
LINE
8
BLACK
6
CONTINUOUS
10
6.80402
20
-6.12412
11
6.80402
21
-6.16536
0
LINE
8
BLACK
6
CONTINUOUS
10
6.85277
20
-6.16536
11
6.84527
21
-6.16161
0
LINE
8
BLACK
6
CONTINUOUS
10
6.84527
20
-6.16161
11
6.84152
21
-6.15786
0
LINE
8
BLACK
6
CONTINUOUS
10
6.84152
20
-6.15786
11
6.83777
21
-6.15037
0
LINE
8
BLACK
6
CONTINUOUS
10
6.83777
20
-6.15037
11
6.83777
21
-6.12787
0
LINE
8
BLACK
6
CONTINUOUS
10
6.83777
20
-6.12787
11
6.84152
21
-6.12037
0
LINE
8
BLACK
6
CONTINUOUS
10
6.84152
20
-6.12037
11
6.84527
21
-6.11662
0
LINE
8
BLACK
6
CONTINUOUS
10
6.84527
20
-6.11662
11
6.85277
21
-6.11287
0
LINE
8
BLACK
6
CONTINUOUS
10
6.85277
20
-6.11287
11
6.86401
21
-6.11287
0
LINE
8
BLACK
6
CONTINUOUS
10
6.86401
20
-6.11287
11
6.87151
21
-6.11662
0
LINE
8
BLACK
6
CONTINUOUS
10
6.87151
20
-6.11662
11
6.87526
21
-6.12037
0
LINE
8
BLACK
6
CONTINUOUS
10
6.87526
20
-6.12037
11
6.87901
21
-6.12787
0
LINE
8
BLACK
6
CONTINUOUS
10
6.87901
20
-6.12787
11
6.87901
21
-6.15037
0
LINE
8
BLACK
6
CONTINUOUS
10
6.87901
20
-6.15037
11
6.87526
21
-6.15786
0
LINE
8
BLACK
6
CONTINUOUS
10
6.87526
20
-6.15786
11
6.87151
21
-6.16161
0
LINE
8
BLACK
6
CONTINUOUS
10
6.87151
20
-6.16161
11
6.86401
21
-6.16536
0
LINE
8
BLACK
6
CONTINUOUS
10
6.86401
20
-6.16536
11
6.85277
21
-6.16536
0
LINE
8
BLACK
6
CONTINUOUS
10
6.90151
20
-6.11287
11
6.93151
21
-6.11287
0
LINE
8
BLACK
6
CONTINUOUS
10
6.91276
20
-6.08662
11
6.91276
21
-6.15412
0
LINE
8
BLACK
6
CONTINUOUS
10
6.91276
20
-6.15412
11
6.91651
21
-6.16161
0
LINE
8
BLACK
6
CONTINUOUS
10
6.91651
20
-6.16161
11
6.92401
21
-6.16536
0
LINE
8
BLACK
6
CONTINUOUS
10
6.92401
20
-6.16536
11
6.93151
21
-6.16536
0
LINE
8
BLACK
6
CONTINUOUS
10
7.01774
20
-6.11287
11
7.01774
21
-6.19161
0
LINE
8
BLACK
6
CONTINUOUS
10
7.01774
20
-6.11662
11
7.02524
21
-6.11287
0
LINE
8
BLACK
6
CONTINUOUS
10
7.02524
20
-6.11287
11
7.04024
21
-6.11287
0
LINE
8
BLACK
6
CONTINUOUS
10
7.04024
20
-6.11287
11
7.04774
21
-6.11662
0
LINE
8
BLACK
6
CONTINUOUS
10
7.04774
20
-6.11662
11
7.05149
21
-6.12037
0
LINE
8
BLACK
6
CONTINUOUS
10
7.05149
20
-6.12037
11
7.05524
21
-6.12787
0
LINE
8
BLACK
6
CONTINUOUS
10
7.05524
20
-6.12787
11
7.05524
21
-6.15037
0
LINE
8
BLACK
6
CONTINUOUS
10
7.05524
20
-6.15037
11
7.05149
21
-6.15786
0
LINE
8
BLACK
6
CONTINUOUS
10
7.05149
20
-6.15786
11
7.04774
21
-6.16161
0
LINE
8
BLACK
6
CONTINUOUS
10
7.04774
20
-6.16161
11
7.04024
21
-6.16536
0
LINE
8
BLACK
6
CONTINUOUS
10
7.04024
20
-6.16536
11
7.02524
21
-6.16536
0
LINE
8
BLACK
6
CONTINUOUS
10
7.02524
20
-6.16536
11
7.01774
21
-6.16161
0
LINE
8
BLACK
6
CONTINUOUS
10
7.10023
20
-6.16536
11
7.09274
21
-6.16161
0
LINE
8
BLACK
6
CONTINUOUS
10
7.09274
20
-6.16161
11
7.08899
21
-6.15412
0
LINE
8
BLACK
6
CONTINUOUS
10
7.08899
20
-6.15412
11
7.08899
21
-6.08662
0
LINE
8
BLACK
6
CONTINUOUS
10
7.16398
20
-6.16536
11
7.16398
21
-6.12412
0
LINE
8
BLACK
6
CONTINUOUS
10
7.16398
20
-6.12412
11
7.16023
21
-6.11662
0
LINE
8
BLACK
6
CONTINUOUS
10
7.16023
20
-6.11662
11
7.15273
21
-6.11287
0
LINE
8
BLACK
6
CONTINUOUS
10
7.15273
20
-6.11287
11
7.13773
21
-6.11287
0
LINE
8
BLACK
6
CONTINUOUS
10
7.13773
20
-6.11287
11
7.13023
21
-6.11662
0
LINE
8
BLACK
6
CONTINUOUS
10
7.16398
20
-6.16161
11
7.15648
21
-6.16536
0
LINE
8
BLACK
6
CONTINUOUS
10
7.15648
20
-6.16536
11
7.13773
21
-6.16536
0
LINE
8
BLACK
6
CONTINUOUS
10
7.13773
20
-6.16536
11
7.13023
21
-6.16161
0
LINE
8
BLACK
6
CONTINUOUS
10
7.13023
20
-6.16161
11
7.12648
21
-6.15412
0
LINE
8
BLACK
6
CONTINUOUS
10
7.12648
20
-6.15412
11
7.12648
21
-6.14662
0
LINE
8
BLACK
6
CONTINUOUS
10
7.12648
20
-6.14662
11
7.13023
21
-6.13912
0
LINE
8
BLACK
6
CONTINUOUS
10
7.13023
20
-6.13912
11
7.13773
21
-6.13537
0
LINE
8
BLACK
6
CONTINUOUS
10
7.13773
20
-6.13537
11
7.15648
21
-6.13537
0
LINE
8
BLACK
6
CONTINUOUS
10
7.15648
20
-6.13537
11
7.16398
21
-6.13162
0
LINE
8
BLACK
6
CONTINUOUS
10
7.19022
20
-6.11287
11
7.22022
21
-6.11287
0
LINE
8
BLACK
6
CONTINUOUS
10
7.20147
20
-6.08662
11
7.20147
21
-6.15412
0
LINE
8
BLACK
6
CONTINUOUS
10
7.20147
20
-6.15412
11
7.20522
21
-6.16161
0
LINE
8
BLACK
6
CONTINUOUS
10
7.20522
20
-6.16161
11
7.21272
21
-6.16536
0
LINE
8
BLACK
6
CONTINUOUS
10
7.21272
20
-6.16536
11
7.22022
21
-6.16536
0
LINE
8
BLACK
6
CONTINUOUS
10
7.27646
20
-6.16161
11
7.26896
21
-6.16536
0
LINE
8
BLACK
6
CONTINUOUS
10
7.26896
20
-6.16536
11
7.25397
21
-6.16536
0
LINE
8
BLACK
6
CONTINUOUS
10
7.25397
20
-6.16536
11
7.24647
21
-6.16161
0
LINE
8
BLACK
6
CONTINUOUS
10
7.24647
20
-6.16161
11
7.24272
21
-6.15412
0
LINE
8
BLACK
6
CONTINUOUS
10
7.24272
20
-6.15412
11
7.24272
21
-6.12412
0
LINE
8
BLACK
6
CONTINUOUS
10
7.24272
20
-6.12412
11
7.24647
21
-6.11662
0
LINE
8
BLACK
6
CONTINUOUS
10
7.24647
20
-6.11662
11
7.25397
21
-6.11287
0
LINE
8
BLACK
6
CONTINUOUS
10
7.25397
20
-6.11287
11
7.26896
21
-6.11287
0
LINE
8
BLACK
6
CONTINUOUS
10
7.26896
20
-6.11287
11
7.27646
21
-6.11662
0
LINE
8
BLACK
6
CONTINUOUS
10
7.27646
20
-6.11662
11
7.28021
21
-6.12412
0
LINE
8
BLACK
6
CONTINUOUS
10
7.28021
20
-6.12412
11
7.28021
21
-6.13162
0
LINE
8
BLACK
6
CONTINUOUS
10
7.28021
20
-6.13162
11
7.24272
21
-6.13912
0
LINE
8
BLACK
6
CONTINUOUS
10
7.3477
20
-6.16536
11
7.3477
21
-6.08662
0
LINE
8
BLACK
6
CONTINUOUS
10
7.3477
20
-6.16161
11
7.3402
21
-6.16536
0
LINE
8
BLACK
6
CONTINUOUS
10
7.3402
20
-6.16536
11
7.32521
21
-6.16536
0
LINE
8
BLACK
6
CONTINUOUS
10
7.32521
20
-6.16536
11
7.31771
21
-6.16161
0
LINE
8
BLACK
6
CONTINUOUS
10
7.31771
20
-6.16161
11
7.31396
21
-6.15786
0
LINE
8
BLACK
6
CONTINUOUS
10
7.31396
20
-6.15786
11
7.31021
21
-6.15037
0
LINE
8
BLACK
6
CONTINUOUS
10
7.31021
20
-6.15037
11
7.31021
21
-6.12787
0
LINE
8
BLACK
6
CONTINUOUS
10
7.31021
20
-6.12787
11
7.31396
21
-6.12037
0
LINE
8
BLACK
6
CONTINUOUS
10
7.31396
20
-6.12037
11
7.31771
21
-6.11662
0
LINE
8
BLACK
6
CONTINUOUS
10
7.31771
20
-6.11662
11
7.32521
21
-6.11287
0
LINE
8
BLACK
6
CONTINUOUS
10
7.32521
20
-6.11287
11
7.3402
21
-6.11287
0
LINE
8
BLACK
6
CONTINUOUS
10
7.3402
20
-6.11287
11
7.3477
21
-6.11662
0
LINE
8
BLACK
6
CONTINUOUS
10
7.3777
20
-6.19536
11
7.38145
21
-6.19161
0
LINE
8
BLACK
6
CONTINUOUS
10
7.38145
20
-6.19161
11
7.38895
21
-6.18036
0
LINE
8
BLACK
6
CONTINUOUS
10
7.38895
20
-6.18036
11
7.3927
21
-6.17286
0
LINE
8
BLACK
6
CONTINUOUS
10
7.3927
20
-6.17286
11
7.39645
21
-6.16161
0
LINE
8
BLACK
6
CONTINUOUS
10
7.39645
20
-6.16161
11
7.4002
21
-6.14287
0
LINE
8
BLACK
6
CONTINUOUS
10
7.4002
20
-6.14287
11
7.4002
21
-6.12787
0
LINE
8
BLACK
6
CONTINUOUS
10
7.4002
20
-6.12787
11
7.39645
21
-6.10912
0
LINE
8
BLACK
6
CONTINUOUS
10
7.39645
20
-6.10912
11
7.3927
21
-6.09787
0
LINE
8
BLACK
6
CONTINUOUS
10
7.3927
20
-6.09787
11
7.38895
21
-6.09037
0
LINE
8
BLACK
6
CONTINUOUS
10
7.38895
20
-6.09037
11
7.38145
21
-6.07912
0
LINE
8
BLACK
6
CONTINUOUS
10
7.38145
20
-6.07912
11
7.3777
21
-6.07537
  0
ENDSEC
  0
EOF
