  0
SECTION
  2
HEADER
  9
$ANGBASE
  50
0.0
  9
$ANGDIR
  70
1
  9
$MEASUREMENT
  70
0
  0
ENDSEC
  0
SECTION
  2
TABLES
  0
TABLE
  2
LTYPE
  70
4
  0
LTYPE
  5
40F
  2
CONTINUOUS
  70
0
  3
Solid line
  72
65
  73
0
  40
0.0
  0
LTYPE
  5
410
  2
DASHDOT
 70
0
  3
Dash Dot ____ _ ____ _
 72
65
 73
4
 40
2.0
 49
1.25
 49
-0.25
 49
0.25
 49
-0.25
  0
LTYPE
  5
411
  2
DASHED
 70
0
  3
Dashed __ __ __ __ __
 72
65
 73
2
 40
0.75
 49
0.5
 49
-0.25
  0
LTYPE
  5
43B
  2
DOTTED
 70
0
  3
Dotted .  .  .  .
 72
65
 73
2
 40
0.2
 49
0.0
 49
-0.2
  0
ENDTAB
  0
TABLE
  2
STYLE
  70
4
  0
STYLE
  2
KICAD
  70
0
  40
0
  41
1
  42
1
  50
0
  71
0
  3
isocp.shx
  0
STYLE
  2
KICADB
  70
0
  40
0
  41
1
  42
1
  50
0
  71
0
  3
isocp.shx
  0
STYLE
  2
KICADI
  70
0
  40
0
  41
1
  42
1
  50
15
  71
0
  3
isocp.shx
  0
STYLE
  2
KICADBI
  70
0
  40
0
  41
1
  42
1
  50
15
  71
0
  3
isocp.shx
  0
ENDTAB
  0
TABLE
  2
LAYER
  70
1
  0
LAYER
  2
BLACK
  70
0
  62
7
  6
CONTINUOUS
  0
ENDTAB
  0
ENDSEC
  0
SECTION
  2
ENTITIES
0
LINE
8
BLACK
6
CONTINUOUS
10
4.725
20
-5.775
11
4.725
21
-2.875
0
ARC
8
BLACK
10
4.825
20
-2.875
40
0.1
50
90
51
180
0
LINE
8
BLACK
6
CONTINUOUS
10
4.825
20
-2.775
11
7.125
21
-2.775
0
ARC
8
BLACK
10
4.825
20
-5.775
40
0.1
50
-180
51
-90
0
LINE
8
BLACK
6
CONTINUOUS
10
7.225
20
-2.875
11
7.225
21
-5.775
0
LINE
8
BLACK
6
CONTINUOUS
10
7.125
20
-5.875
11
4.825
21
-5.875
0
ARC
8
BLACK
10
7.125
20
-2.875
40
0.1
50
-0
51
90
0
ARC
8
BLACK
10
7.125
20
-5.775
40
0.1
50
-90
51
-0
0
LINE
8
BLACK
6
CONTINUOUS
10
5.04213
20
-3.71713
11
5.05787
21
-3.73287
0
LINE
8
BLACK
6
CONTINUOUS
10
5.05787
20
-3.71713
11
5.04213
21
-3.73287
0
LINE
8
BLACK
6
CONTINUOUS
10
5.06713
20
-4.11713
11
5.08287
21
-4.13287
0
LINE
8
BLACK
6
CONTINUOUS
10
5.08287
20
-4.11713
11
5.06713
21
-4.13287
0
LINE
8
BLACK
6
CONTINUOUS
10
5.06713
20
-4.59213
11
5.08287
21
-4.60787
0
LINE
8
BLACK
6
CONTINUOUS
10
5.08287
20
-4.59213
11
5.06713
21
-4.60787
0
LINE
8
BLACK
6
CONTINUOUS
10
5.06713
20
-4.99213
11
5.08287
21
-5.00787
0
LINE
8
BLACK
6
CONTINUOUS
10
5.08287
20
-4.99213
11
5.06713
21
-5.00787
0
LINE
8
BLACK
6
CONTINUOUS
10
5.16713
20
-3.66713
11
5.18287
21
-3.68287
0
LINE
8
BLACK
6
CONTINUOUS
10
5.18287
20
-3.66713
11
5.16713
21
-3.68287
0
LINE
8
BLACK
6
CONTINUOUS
10
5.16713
20
-4.46713
11
5.18287
21
-4.48287
0
LINE
8
BLACK
6
CONTINUOUS
10
5.18287
20
-4.46713
11
5.16713
21
-4.48287
0
LINE
8
BLACK
6
CONTINUOUS
10
5.16713
20
-4.86713
11
5.18287
21
-4.88287
0
LINE
8
BLACK
6
CONTINUOUS
10
5.18287
20
-4.86713
11
5.16713
21
-4.88287
0
LINE
8
BLACK
6
CONTINUOUS
10
5.26713
20
-3.66713
11
5.28287
21
-3.68287
0
LINE
8
BLACK
6
CONTINUOUS
10
5.28287
20
-3.66713
11
5.26713
21
-3.68287
0
LINE
8
BLACK
6
CONTINUOUS
10
5.26713
20
-4.46713
11
5.28287
21
-4.48287
0
LINE
8
BLACK
6
CONTINUOUS
10
5.28287
20
-4.46713
11
5.26713
21
-4.48287
0
LINE
8
BLACK
6
CONTINUOUS
10
5.26713
20
-4.86713
11
5.28287
21
-4.88287
0
LINE
8
BLACK
6
CONTINUOUS
10
5.28287
20
-4.86713
11
5.26713
21
-4.88287
0
LINE
8
BLACK
6
CONTINUOUS
10
5.29213
20
-5.01713
11
5.30787
21
-5.03287
0
LINE
8
BLACK
6
CONTINUOUS
10
5.30787
20
-5.01713
11
5.29213
21
-5.03287
0
LINE
8
BLACK
6
CONTINUOUS
10
5.34213
20
-3.39213
11
5.35787
21
-3.40787
0
LINE
8
BLACK
6
CONTINUOUS
10
5.35787
20
-3.39213
11
5.34213
21
-3.40787
0
LINE
8
BLACK
6
CONTINUOUS
10
5.34213
20
-4.19213
11
5.35787
21
-4.20787
0
LINE
8
BLACK
6
CONTINUOUS
10
5.35787
20
-4.19213
11
5.34213
21
-4.20787
0
LINE
8
BLACK
6
CONTINUOUS
10
5.34213
20
-4.59213
11
5.35787
21
-4.60787
0
LINE
8
BLACK
6
CONTINUOUS
10
5.35787
20
-4.59213
11
5.34213
21
-4.60787
0
LINE
8
BLACK
6
CONTINUOUS
10
5.39213
20
-2.89213
11
5.40787
21
-2.90787
0
LINE
8
BLACK
6
CONTINUOUS
10
5.40787
20
-2.89213
11
5.39213
21
-2.90787
0
LINE
8
BLACK
6
CONTINUOUS
10
5.41713
20
-3.19213
11
5.43287
21
-3.20787
0
LINE
8
BLACK
6
CONTINUOUS
10
5.43287
20
-3.19213
11
5.41713
21
-3.20787
0
LINE
8
BLACK
6
CONTINUOUS
10
5.41713
20
-4.21713
11
5.43287
21
-4.23287
0
LINE
8
BLACK
6
CONTINUOUS
10
5.43287
20
-4.21713
11
5.41713
21
-4.23287
0
LINE
8
BLACK
6
CONTINUOUS
10
5.41713
20
-4.94213
11
5.43287
21
-4.95787
0
LINE
8
BLACK
6
CONTINUOUS
10
5.43287
20
-4.94213
11
5.41713
21
-4.95787
0
LINE
8
BLACK
6
CONTINUOUS
10
5.44213
20
-4.49213
11
5.45787
21
-4.50787
0
LINE
8
BLACK
6
CONTINUOUS
10
5.45787
20
-4.49213
11
5.44213
21
-4.50787
0
LINE
8
BLACK
6
CONTINUOUS
10
5.44213
20
-4.99213
11
5.45787
21
-5.00787
0
LINE
8
BLACK
6
CONTINUOUS
10
5.45787
20
-4.99213
11
5.44213
21
-5.00787
0
LINE
8
BLACK
6
CONTINUOUS
10
5.46713
20
-4.06713
11
5.48287
21
-4.08287
0
LINE
8
BLACK
6
CONTINUOUS
10
5.48287
20
-4.06713
11
5.46713
21
-4.08287
0
LINE
8
BLACK
6
CONTINUOUS
10
5.54213
20
-4.69213
11
5.55787
21
-4.70787
0
LINE
8
BLACK
6
CONTINUOUS
10
5.55787
20
-4.69213
11
5.54213
21
-4.70787
0
LINE
8
BLACK
6
CONTINUOUS
10
6.39213
20
-4.29213
11
6.40787
21
-4.30787
0
LINE
8
BLACK
6
CONTINUOUS
10
6.40787
20
-4.29213
11
6.39213
21
-4.30787
0
LINE
8
BLACK
6
CONTINUOUS
10
6.41713
20
-4.44213
11
6.43287
21
-4.45787
0
LINE
8
BLACK
6
CONTINUOUS
10
6.43287
20
-4.44213
11
6.41713
21
-4.45787
0
LINE
8
BLACK
6
CONTINUOUS
10
6.44213
20
-3.21713
11
6.45787
21
-3.23287
0
LINE
8
BLACK
6
CONTINUOUS
10
6.45787
20
-3.21713
11
6.44213
21
-3.23287
0
LINE
8
BLACK
6
CONTINUOUS
10
6.51713
20
-3.59213
11
6.53287
21
-3.60787
0
LINE
8
BLACK
6
CONTINUOUS
10
6.53287
20
-3.59213
11
6.51713
21
-3.60787
0
LINE
8
BLACK
6
CONTINUOUS
10
6.51713
20
-4.44213
11
6.53287
21
-4.45787
0
LINE
8
BLACK
6
CONTINUOUS
10
6.53287
20
-4.44213
11
6.51713
21
-4.45787
0
LINE
8
BLACK
6
CONTINUOUS
10
6.54213
20
-3.21713
11
6.55787
21
-3.23287
0
LINE
8
BLACK
6
CONTINUOUS
10
6.55787
20
-3.21713
11
6.54213
21
-3.23287
0
LINE
8
BLACK
6
CONTINUOUS
10
6.54213
20
-4.76713
11
6.55787
21
-4.78287
0
LINE
8
BLACK
6
CONTINUOUS
10
6.55787
20
-4.76713
11
6.54213
21
-4.78287
0
LINE
8
BLACK
6
CONTINUOUS
10
6.54213
20
-5.26713
11
6.55787
21
-5.28287
0
LINE
8
BLACK
6
CONTINUOUS
10
6.55787
20
-5.26713
11
6.54213
21
-5.28287
0
LINE
8
BLACK
6
CONTINUOUS
10
6.59213
20
-3.26713
11
6.60787
21
-3.28287
0
LINE
8
BLACK
6
CONTINUOUS
10
6.60787
20
-3.26713
11
6.59213
21
-3.28287
0
LINE
8
BLACK
6
CONTINUOUS
10
6.59213
20
-4.01713
11
6.60787
21
-4.03287
0
LINE
8
BLACK
6
CONTINUOUS
10
6.60787
20
-4.01713
11
6.59213
21
-4.03287
0
LINE
8
BLACK
6
CONTINUOUS
10
6.61713
20
-4.41713
11
6.63287
21
-4.43287
0
LINE
8
BLACK
6
CONTINUOUS
10
6.63287
20
-4.41713
11
6.61713
21
-4.43287
0
LINE
8
BLACK
6
CONTINUOUS
10
6.69213
20
-5.21713
11
6.70787
21
-5.23287
0
LINE
8
BLACK
6
CONTINUOUS
10
6.70787
20
-5.21713
11
6.69213
21
-5.23287
0
LINE
8
BLACK
6
CONTINUOUS
10
6.71713
20
-4.04213
11
6.73287
21
-4.05787
0
LINE
8
BLACK
6
CONTINUOUS
10
6.73287
20
-4.04213
11
6.71713
21
-4.05787
0
LINE
8
BLACK
6
CONTINUOUS
10
6.71713
20
-4.24213
11
6.73287
21
-4.25787
0
LINE
8
BLACK
6
CONTINUOUS
10
6.73287
20
-4.24213
11
6.71713
21
-4.25787
0
LINE
8
BLACK
6
CONTINUOUS
10
6.71713
20
-4.49213
11
6.73287
21
-4.50787
0
LINE
8
BLACK
6
CONTINUOUS
10
6.73287
20
-4.49213
11
6.71713
21
-4.50787
0
LINE
8
BLACK
6
CONTINUOUS
10
6.71713
20
-4.84213
11
6.73287
21
-4.85787
0
LINE
8
BLACK
6
CONTINUOUS
10
6.73287
20
-4.84213
11
6.71713
21
-4.85787
0
LINE
8
BLACK
6
CONTINUOUS
10
6.74213
20
-5.21713
11
6.75787
21
-5.23287
0
LINE
8
BLACK
6
CONTINUOUS
10
6.75787
20
-5.21713
11
6.74213
21
-5.23287
0
LINE
8
BLACK
6
CONTINUOUS
10
6.76713
20
-2.81713
11
6.78287
21
-2.83287
0
LINE
8
BLACK
6
CONTINUOUS
10
6.78287
20
-2.81713
11
6.76713
21
-2.83287
0
LINE
8
BLACK
6
CONTINUOUS
10
6.76713
20
-3.81713
11
6.78287
21
-3.83287
0
LINE
8
BLACK
6
CONTINUOUS
10
6.78287
20
-3.81713
11
6.76713
21
-3.83287
0
LINE
8
BLACK
6
CONTINUOUS
10
6.76713
20
-4.29213
11
6.78287
21
-4.30787
0
LINE
8
BLACK
6
CONTINUOUS
10
6.78287
20
-4.29213
11
6.76713
21
-4.30787
0
LINE
8
BLACK
6
CONTINUOUS
10
6.81713
20
-4.41713
11
6.83287
21
-4.43287
0
LINE
8
BLACK
6
CONTINUOUS
10
6.83287
20
-4.41713
11
6.81713
21
-4.43287
0
LINE
8
BLACK
6
CONTINUOUS
10
6.86713
20
-3.29213
11
6.88287
21
-3.30787
0
LINE
8
BLACK
6
CONTINUOUS
10
6.88287
20
-3.29213
11
6.86713
21
-3.30787
0
LINE
8
BLACK
6
CONTINUOUS
10
6.86713
20
-3.74213
11
6.88287
21
-3.75787
0
LINE
8
BLACK
6
CONTINUOUS
10
6.88287
20
-3.74213
11
6.86713
21
-3.75787
0
LINE
8
BLACK
6
CONTINUOUS
10
6.86713
20
-4.41713
11
6.88287
21
-4.43287
0
LINE
8
BLACK
6
CONTINUOUS
10
6.88287
20
-4.41713
11
6.86713
21
-4.43287
0
LINE
8
BLACK
6
CONTINUOUS
10
6.86713
20
-5.24213
11
6.88287
21
-5.25787
0
LINE
8
BLACK
6
CONTINUOUS
10
6.88287
20
-5.24213
11
6.86713
21
-5.25787
0
LINE
8
BLACK
6
CONTINUOUS
10
6.89213
20
-2.84213
11
6.90787
21
-2.85787
0
LINE
8
BLACK
6
CONTINUOUS
10
6.90787
20
-2.84213
11
6.89213
21
-2.85787
0
LINE
8
BLACK
6
CONTINUOUS
10
6.89213
20
-3.99213
11
6.90787
21
-4.00787
0
LINE
8
BLACK
6
CONTINUOUS
10
6.90787
20
-3.99213
11
6.89213
21
-4.00787
0
LINE
8
BLACK
6
CONTINUOUS
10
6.89213
20
-4.76713
11
6.90787
21
-4.78287
0
LINE
8
BLACK
6
CONTINUOUS
10
6.90787
20
-4.76713
11
6.89213
21
-4.78287
0
LINE
8
BLACK
6
CONTINUOUS
10
6.89213
20
-4.81713
11
6.90787
21
-4.83287
0
LINE
8
BLACK
6
CONTINUOUS
10
6.90787
20
-4.81713
11
6.89213
21
-4.83287
0
CIRCLE
8
BLACK
10
4.875
20
-3.125
40
0.019685
0
CIRCLE
8
BLACK
10
4.875
20
-3.225
40
0.019685
0
CIRCLE
8
BLACK
10
4.875
20
-3.325
40
0.019685
0
CIRCLE
8
BLACK
10
4.875
20
-3.425
40
0.019685
0
CIRCLE
8
BLACK
10
4.875
20
-3.525
40
0.019685
0
CIRCLE
8
BLACK
10
4.875
20
-3.625
40
0.019685
0
CIRCLE
8
BLACK
10
4.875
20
-3.725
40
0.019685
0
CIRCLE
8
BLACK
10
4.875
20
-3.825
40
0.019685
0
CIRCLE
8
BLACK
10
4.875
20
-3.925
40
0.019685
0
CIRCLE
8
BLACK
10
4.875
20
-4.025
40
0.019685
0
CIRCLE
8
BLACK
10
4.875
20
-4.125
40
0.019685
0
CIRCLE
8
BLACK
10
4.875
20
-4.225
40
0.019685
0
CIRCLE
8
BLACK
10
4.875
20
-4.325
40
0.019685
0
CIRCLE
8
BLACK
10
4.875
20
-4.425
40
0.019685
0
CIRCLE
8
BLACK
10
4.875
20
-4.525
40
0.019685
0
CIRCLE
8
BLACK
10
4.875
20
-4.625
40
0.019685
0
CIRCLE
8
BLACK
10
4.875
20
-4.725
40
0.019685
0
CIRCLE
8
BLACK
10
4.875
20
-4.825
40
0.019685
0
CIRCLE
8
BLACK
10
4.875
20
-4.925
40
0.019685
0
CIRCLE
8
BLACK
10
4.875
20
-5.025
40
0.019685
0
CIRCLE
8
BLACK
10
4.875
20
-5.125
40
0.019685
0
CIRCLE
8
BLACK
10
4.875
20
-5.225
40
0.019685
0
CIRCLE
8
BLACK
10
4.875
20
-5.325
40
0.019685
0
CIRCLE
8
BLACK
10
4.875
20
-5.425
40
0.019685
0
CIRCLE
8
BLACK
10
4.875
20
-5.525
40
0.019685
0
CIRCLE
8
BLACK
10
4.975
20
-3.125
40
0.019685
0
CIRCLE
8
BLACK
10
4.975
20
-3.225
40
0.019685
0
CIRCLE
8
BLACK
10
4.975
20
-3.325
40
0.019685
0
CIRCLE
8
BLACK
10
4.975
20
-3.425
40
0.019685
0
CIRCLE
8
BLACK
10
4.975
20
-3.525
40
0.019685
0
CIRCLE
8
BLACK
10
4.975
20
-3.625
40
0.019685
0
CIRCLE
8
BLACK
10
4.975
20
-3.725
40
0.019685
0
CIRCLE
8
BLACK
10
4.975
20
-3.825
40
0.019685
0
CIRCLE
8
BLACK
10
4.975
20
-3.925
40
0.019685
0
CIRCLE
8
BLACK
10
4.975
20
-4.025
40
0.019685
0
CIRCLE
8
BLACK
10
4.975
20
-4.125
40
0.019685
0
CIRCLE
8
BLACK
10
4.975
20
-4.225
40
0.019685
0
CIRCLE
8
BLACK
10
4.975
20
-4.325
40
0.019685
0
CIRCLE
8
BLACK
10
4.975
20
-4.425
40
0.019685
0
CIRCLE
8
BLACK
10
4.975
20
-4.525
40
0.019685
0
CIRCLE
8
BLACK
10
4.975
20
-4.625
40
0.019685
0
CIRCLE
8
BLACK
10
4.975
20
-4.725
40
0.019685
0
CIRCLE
8
BLACK
10
4.975
20
-4.825
40
0.019685
0
CIRCLE
8
BLACK
10
4.975
20
-4.925
40
0.019685
0
CIRCLE
8
BLACK
10
4.975
20
-5.025
40
0.019685
0
CIRCLE
8
BLACK
10
4.975
20
-5.125
40
0.019685
0
CIRCLE
8
BLACK
10
4.975
20
-5.225
40
0.019685
0
CIRCLE
8
BLACK
10
4.975
20
-5.325
40
0.019685
0
CIRCLE
8
BLACK
10
4.975
20
-5.425
40
0.019685
0
CIRCLE
8
BLACK
10
4.975
20
-5.525
40
0.019685
0
CIRCLE
8
BLACK
10
5.075
20
-5.625
40
0.019685
0
CIRCLE
8
BLACK
10
5.075
20
-5.725
40
0.019685
0
CIRCLE
8
BLACK
10
5.17441
20
-5.425
40
0.019685
0
CIRCLE
8
BLACK
10
5.175
20
-2.95
40
0.019685
0
CIRCLE
8
BLACK
10
5.175
20
-5.625
40
0.019685
0
CIRCLE
8
BLACK
10
5.175
20
-5.725
40
0.019685
0
CIRCLE
8
BLACK
10
5.27441
20
-5.425
40
0.019685
0
CIRCLE
8
BLACK
10
5.275
20
-2.95
40
0.019685
0
CIRCLE
8
BLACK
10
5.275
20
-5.625
40
0.019685
0
CIRCLE
8
BLACK
10
5.275
20
-5.725
40
0.019685
0
CIRCLE
8
BLACK
10
5.37441
20
-5.425
40
0.019685
0
CIRCLE
8
BLACK
10
5.375
20
-5.625
40
0.019685
0
CIRCLE
8
BLACK
10
5.375
20
-5.725
40
0.019685
0
CIRCLE
8
BLACK
10
5.475
20
-5.625
40
0.019685
0
CIRCLE
8
BLACK
10
5.475
20
-5.725
40
0.019685
0
CIRCLE
8
BLACK
10
5.675
20
-2.925
40
0.019685
0
CIRCLE
8
BLACK
10
5.675
20
-3.025
40
0.019685
0
CIRCLE
8
BLACK
10
5.675
20
-3.125
40
0.019685
0
CIRCLE
8
BLACK
10
5.675
20
-3.225
40
0.019685
0
CIRCLE
8
BLACK
10
5.675
20
-3.325
40
0.019685
0
CIRCLE
8
BLACK
10
5.675
20
-3.425
40
0.019685
0
CIRCLE
8
BLACK
10
5.675
20
-3.525
40
0.019685
0
CIRCLE
8
BLACK
10
5.675
20
-3.625
40
0.019685
0
CIRCLE
8
BLACK
10
5.675
20
-4.125
40
0.019685
0
CIRCLE
8
BLACK
10
5.675
20
-4.225
40
0.019685
0
CIRCLE
8
BLACK
10
5.675
20
-4.325
40
0.019685
0
CIRCLE
8
BLACK
10
5.675
20
-4.425
40
0.019685
0
CIRCLE
8
BLACK
10
5.675
20
-4.525
40
0.019685
0
CIRCLE
8
BLACK
10
5.675
20
-4.625
40
0.019685
0
CIRCLE
8
BLACK
10
5.675
20
-4.725
40
0.019685
0
CIRCLE
8
BLACK
10
5.675
20
-4.825
40
0.019685
0
CIRCLE
8
BLACK
10
5.875
20
-3.525
40
0.019685
0
CIRCLE
8
BLACK
10
5.875
20
-3.625
40
0.019685
0
CIRCLE
8
BLACK
10
5.875
20
-3.725
40
0.019685
0
CIRCLE
8
BLACK
10
5.875
20
-3.825
40
0.019685
0
CIRCLE
8
BLACK
10
5.875
20
-3.925
40
0.019685
0
CIRCLE
8
BLACK
10
5.875
20
-4.025
40
0.019685
0
CIRCLE
8
BLACK
10
5.875
20
-4.125
40
0.019685
0
CIRCLE
8
BLACK
10
5.875
20
-4.225
40
0.019685
0
CIRCLE
8
BLACK
10
5.875
20
-4.725
40
0.019685
0
CIRCLE
8
BLACK
10
5.875
20
-4.825
40
0.019685
0
CIRCLE
8
BLACK
10
5.875
20
-4.925
40
0.019685
0
CIRCLE
8
BLACK
10
5.875
20
-5.025
40
0.019685
0
CIRCLE
8
BLACK
10
5.875
20
-5.125
40
0.019685
0
CIRCLE
8
BLACK
10
5.875
20
-5.225
40
0.019685
0
CIRCLE
8
BLACK
10
5.875
20
-5.325
40
0.019685
0
CIRCLE
8
BLACK
10
5.875
20
-5.425
40
0.019685
0
CIRCLE
8
BLACK
10
6.175
20
-2.925
40
0.019685
0
CIRCLE
8
BLACK
10
6.175
20
-3.025
40
0.019685
0
CIRCLE
8
BLACK
10
6.175
20
-3.125
40
0.019685
0
CIRCLE
8
BLACK
10
6.175
20
-3.225
40
0.019685
0
CIRCLE
8
BLACK
10
6.175
20
-3.325
40
0.019685
0
CIRCLE
8
BLACK
10
6.175
20
-3.425
40
0.019685
0
CIRCLE
8
BLACK
10
6.175
20
-3.525
40
0.019685
0
CIRCLE
8
BLACK
10
6.175
20
-3.625
40
0.019685
0
CIRCLE
8
BLACK
10
6.175
20
-4.125
40
0.019685
0
CIRCLE
8
BLACK
10
6.175
20
-4.225
40
0.019685
0
CIRCLE
8
BLACK
10
6.175
20
-4.325
40
0.019685
0
CIRCLE
8
BLACK
10
6.175
20
-4.425
40
0.019685
0
CIRCLE
8
BLACK
10
6.175
20
-4.525
40
0.019685
0
CIRCLE
8
BLACK
10
6.175
20
-4.625
40
0.019685
0
CIRCLE
8
BLACK
10
6.175
20
-4.725
40
0.019685
0
CIRCLE
8
BLACK
10
6.175
20
-4.825
40
0.019685
0
CIRCLE
8
BLACK
10
6.375
20
-2.925
40
0.019685
0
CIRCLE
8
BLACK
10
6.375
20
-3.025
40
0.019685
0
CIRCLE
8
BLACK
10
6.375
20
-3.525
40
0.019685
0
CIRCLE
8
BLACK
10
6.375
20
-3.625
40
0.019685
0
CIRCLE
8
BLACK
10
6.375
20
-3.725
40
0.019685
0
CIRCLE
8
BLACK
10
6.375
20
-3.825
40
0.019685
0
CIRCLE
8
BLACK
10
6.375
20
-3.925
40
0.019685
0
CIRCLE
8
BLACK
10
6.375
20
-4.025
40
0.019685
0
CIRCLE
8
BLACK
10
6.375
20
-4.125
40
0.019685
0
CIRCLE
8
BLACK
10
6.375
20
-4.225
40
0.019685
0
CIRCLE
8
BLACK
10
6.375
20
-4.725
40
0.019685
0
CIRCLE
8
BLACK
10
6.375
20
-4.825
40
0.019685
0
CIRCLE
8
BLACK
10
6.375
20
-4.925
40
0.019685
0
CIRCLE
8
BLACK
10
6.375
20
-5.025
40
0.019685
0
CIRCLE
8
BLACK
10
6.375
20
-5.125
40
0.019685
0
CIRCLE
8
BLACK
10
6.375
20
-5.225
40
0.019685
0
CIRCLE
8
BLACK
10
6.375
20
-5.325
40
0.019685
0
CIRCLE
8
BLACK
10
6.375
20
-5.425
40
0.019685
0
CIRCLE
8
BLACK
10
6.4748
20
-5.625
40
0.019685
0
CIRCLE
8
BLACK
10
6.475
20
-2.925
40
0.019685
0
CIRCLE
8
BLACK
10
6.475
20
-3.025
40
0.019685
0
CIRCLE
8
BLACK
10
6.5748
20
-5.625
40
0.019685
0
CIRCLE
8
BLACK
10
6.575
20
-2.925
40
0.019685
0
CIRCLE
8
BLACK
10
6.575
20
-3.025
40
0.019685
0
CIRCLE
8
BLACK
10
6.675
20
-2.925
40
0.019685
0
CIRCLE
8
BLACK
10
6.675
20
-3.025
40
0.019685
0
CIRCLE
8
BLACK
10
6.775
20
-2.925
40
0.019685
0
CIRCLE
8
BLACK
10
6.775
20
-3.025
40
0.019685
0
CIRCLE
8
BLACK
10
6.975
20
-3.125
40
0.019685
0
CIRCLE
8
BLACK
10
6.975
20
-3.225
40
0.019685
0
CIRCLE
8
BLACK
10
6.975
20
-3.325
40
0.019685
0
CIRCLE
8
BLACK
10
6.975
20
-3.425
40
0.019685
0
CIRCLE
8
BLACK
10
6.975
20
-3.525
40
0.019685
0
CIRCLE
8
BLACK
10
6.975
20
-3.625
40
0.019685
0
CIRCLE
8
BLACK
10
6.975
20
-3.725
40
0.019685
0
CIRCLE
8
BLACK
10
6.975
20
-3.825
40
0.019685
0
CIRCLE
8
BLACK
10
6.975
20
-3.925
40
0.019685
0
CIRCLE
8
BLACK
10
6.975
20
-4.025
40
0.019685
0
CIRCLE
8
BLACK
10
6.975
20
-4.125
40
0.019685
0
CIRCLE
8
BLACK
10
6.975
20
-4.225
40
0.019685
0
CIRCLE
8
BLACK
10
6.975
20
-4.325
40
0.019685
0
CIRCLE
8
BLACK
10
6.975
20
-4.425
40
0.019685
0
CIRCLE
8
BLACK
10
6.975
20
-4.525
40
0.019685
0
CIRCLE
8
BLACK
10
6.975
20
-4.625
40
0.019685
0
CIRCLE
8
BLACK
10
6.975
20
-4.725
40
0.019685
0
CIRCLE
8
BLACK
10
6.975
20
-4.825
40
0.019685
0
CIRCLE
8
BLACK
10
6.975
20
-4.925
40
0.019685
0
CIRCLE
8
BLACK
10
6.975
20
-5.025
40
0.019685
0
CIRCLE
8
BLACK
10
6.975
20
-5.125
40
0.019685
0
CIRCLE
8
BLACK
10
6.975
20
-5.225
40
0.019685
0
CIRCLE
8
BLACK
10
6.975
20
-5.325
40
0.019685
0
CIRCLE
8
BLACK
10
6.975
20
-5.425
40
0.019685
0
CIRCLE
8
BLACK
10
6.975
20
-5.525
40
0.019685
0
CIRCLE
8
BLACK
10
7.075
20
-3.125
40
0.019685
0
CIRCLE
8
BLACK
10
7.075
20
-3.225
40
0.019685
0
CIRCLE
8
BLACK
10
7.075
20
-3.325
40
0.019685
0
CIRCLE
8
BLACK
10
7.075
20
-3.425
40
0.019685
0
CIRCLE
8
BLACK
10
7.075
20
-3.525
40
0.019685
0
CIRCLE
8
BLACK
10
7.075
20
-3.625
40
0.019685
0
CIRCLE
8
BLACK
10
7.075
20
-3.725
40
0.019685
0
CIRCLE
8
BLACK
10
7.075
20
-3.825
40
0.019685
0
CIRCLE
8
BLACK
10
7.075
20
-3.925
40
0.019685
0
CIRCLE
8
BLACK
10
7.075
20
-4.025
40
0.019685
0
CIRCLE
8
BLACK
10
7.075
20
-4.125
40
0.019685
0
CIRCLE
8
BLACK
10
7.075
20
-4.225
40
0.019685
0
CIRCLE
8
BLACK
10
7.075
20
-4.325
40
0.019685
0
CIRCLE
8
BLACK
10
7.075
20
-4.425
40
0.019685
0
CIRCLE
8
BLACK
10
7.075
20
-4.525
40
0.019685
0
CIRCLE
8
BLACK
10
7.075
20
-4.625
40
0.019685
0
CIRCLE
8
BLACK
10
7.075
20
-4.725
40
0.019685
0
CIRCLE
8
BLACK
10
7.075
20
-4.825
40
0.019685
0
CIRCLE
8
BLACK
10
7.075
20
-4.925
40
0.019685
0
CIRCLE
8
BLACK
10
7.075
20
-5.025
40
0.019685
0
CIRCLE
8
BLACK
10
7.075
20
-5.125
40
0.019685
0
CIRCLE
8
BLACK
10
7.075
20
-5.225
40
0.019685
0
CIRCLE
8
BLACK
10
7.075
20
-5.325
40
0.019685
0
CIRCLE
8
BLACK
10
7.075
20
-5.425
40
0.019685
0
CIRCLE
8
BLACK
10
7.075
20
-5.525
40
0.019685
0
LINE
8
BLACK
6
CONTINUOUS
10
4.82052
20
-6.00001
11
4.82052
21
-5.92127
0
LINE
8
BLACK
6
CONTINUOUS
10
4.82052
20
-5.92127
11
4.83927
21
-5.92127
0
LINE
8
BLACK
6
CONTINUOUS
10
4.83927
20
-5.92127
11
4.85052
21
-5.92502
0
LINE
8
BLACK
6
CONTINUOUS
10
4.85052
20
-5.92502
11
4.85801
21
-5.93252
0
LINE
8
BLACK
6
CONTINUOUS
10
4.85801
20
-5.93252
11
4.86176
21
-5.94002
0
LINE
8
BLACK
6
CONTINUOUS
10
4.86176
20
-5.94002
11
4.86551
21
-5.95501
0
LINE
8
BLACK
6
CONTINUOUS
10
4.86551
20
-5.95501
11
4.86551
21
-5.96626
0
LINE
8
BLACK
6
CONTINUOUS
10
4.86551
20
-5.96626
11
4.86176
21
-5.98126
0
LINE
8
BLACK
6
CONTINUOUS
10
4.86176
20
-5.98126
11
4.85801
21
-5.98876
0
LINE
8
BLACK
6
CONTINUOUS
10
4.85801
20
-5.98876
11
4.85052
21
-5.99626
0
LINE
8
BLACK
6
CONTINUOUS
10
4.85052
20
-5.99626
11
4.83927
21
-6.00001
0
LINE
8
BLACK
6
CONTINUOUS
10
4.83927
20
-6.00001
11
4.82052
21
-6.00001
0
LINE
8
BLACK
6
CONTINUOUS
10
4.89926
20
-6.00001
11
4.89926
21
-5.94752
0
LINE
8
BLACK
6
CONTINUOUS
10
4.89926
20
-5.96251
11
4.90301
21
-5.95501
0
LINE
8
BLACK
6
CONTINUOUS
10
4.90301
20
-5.95501
11
4.90676
21
-5.95127
0
LINE
8
BLACK
6
CONTINUOUS
10
4.90676
20
-5.95127
11
4.91426
21
-5.94752
0
LINE
8
BLACK
6
CONTINUOUS
10
4.91426
20
-5.94752
11
4.92176
21
-5.94752
0
LINE
8
BLACK
6
CONTINUOUS
10
4.948
20
-6.00001
11
4.948
21
-5.94752
0
LINE
8
BLACK
6
CONTINUOUS
10
4.948
20
-5.92127
11
4.94425
21
-5.92502
0
LINE
8
BLACK
6
CONTINUOUS
10
4.94425
20
-5.92502
11
4.948
21
-5.92877
0
LINE
8
BLACK
6
CONTINUOUS
10
4.948
20
-5.92877
11
4.95175
21
-5.92502
0
LINE
8
BLACK
6
CONTINUOUS
10
4.95175
20
-5.92502
11
4.948
21
-5.92127
0
LINE
8
BLACK
6
CONTINUOUS
10
4.948
20
-5.92127
11
4.948
21
-5.92877
0
LINE
8
BLACK
6
CONTINUOUS
10
4.99675
20
-6.00001
11
4.98925
21
-5.99626
0
LINE
8
BLACK
6
CONTINUOUS
10
4.98925
20
-5.99626
11
4.9855
21
-5.98876
0
LINE
8
BLACK
6
CONTINUOUS
10
4.9855
20
-5.98876
11
4.9855
21
-5.92127
0
LINE
8
BLACK
6
CONTINUOUS
10
5.03799
20
-6.00001
11
5.03049
21
-5.99626
0
LINE
8
BLACK
6
CONTINUOUS
10
5.03049
20
-5.99626
11
5.02674
21
-5.98876
0
LINE
8
BLACK
6
CONTINUOUS
10
5.02674
20
-5.98876
11
5.02674
21
-5.92127
0
LINE
8
BLACK
6
CONTINUOUS
10
5.12798
20
-6.00001
11
5.12798
21
-5.92127
0
LINE
8
BLACK
6
CONTINUOUS
10
5.12798
20
-5.92127
11
5.15423
21
-5.97751
0
LINE
8
BLACK
6
CONTINUOUS
10
5.15423
20
-5.97751
11
5.18047
21
-5.92127
0
LINE
8
BLACK
6
CONTINUOUS
10
5.18047
20
-5.92127
11
5.18047
21
-6.00001
0
LINE
8
BLACK
6
CONTINUOUS
10
5.25172
20
-6.00001
11
5.25172
21
-5.95876
0
LINE
8
BLACK
6
CONTINUOUS
10
5.25172
20
-5.95876
11
5.24797
21
-5.95127
0
LINE
8
BLACK
6
CONTINUOUS
10
5.24797
20
-5.95127
11
5.24047
21
-5.94752
0
LINE
8
BLACK
6
CONTINUOUS
10
5.24047
20
-5.94752
11
5.22547
21
-5.94752
0
LINE
8
BLACK
6
CONTINUOUS
10
5.22547
20
-5.94752
11
5.21797
21
-5.95127
0
LINE
8
BLACK
6
CONTINUOUS
10
5.25172
20
-5.99626
11
5.24422
21
-6.00001
0
LINE
8
BLACK
6
CONTINUOUS
10
5.24422
20
-6.00001
11
5.22547
21
-6.00001
0
LINE
8
BLACK
6
CONTINUOUS
10
5.22547
20
-6.00001
11
5.21797
21
-5.99626
0
LINE
8
BLACK
6
CONTINUOUS
10
5.21797
20
-5.99626
11
5.21422
21
-5.98876
0
LINE
8
BLACK
6
CONTINUOUS
10
5.21422
20
-5.98876
11
5.21422
21
-5.98126
0
LINE
8
BLACK
6
CONTINUOUS
10
5.21422
20
-5.98126
11
5.21797
21
-5.97376
0
LINE
8
BLACK
6
CONTINUOUS
10
5.21797
20
-5.97376
11
5.22547
21
-5.97001
0
LINE
8
BLACK
6
CONTINUOUS
10
5.22547
20
-5.97001
11
5.24422
21
-5.97001
0
LINE
8
BLACK
6
CONTINUOUS
10
5.24422
20
-5.97001
11
5.25172
21
-5.96626
0
LINE
8
BLACK
6
CONTINUOUS
10
5.28921
20
-5.94752
11
5.28921
21
-6.02626
0
LINE
8
BLACK
6
CONTINUOUS
10
5.28921
20
-5.95127
11
5.29671
21
-5.94752
0
LINE
8
BLACK
6
CONTINUOUS
10
5.29671
20
-5.94752
11
5.31171
21
-5.94752
0
LINE
8
BLACK
6
CONTINUOUS
10
5.31171
20
-5.94752
11
5.31921
21
-5.95127
0
LINE
8
BLACK
6
CONTINUOUS
10
5.31921
20
-5.95127
11
5.32296
21
-5.95501
0
LINE
8
BLACK
6
CONTINUOUS
10
5.32296
20
-5.95501
11
5.32671
21
-5.96251
0
LINE
8
BLACK
6
CONTINUOUS
10
5.32671
20
-5.96251
11
5.32671
21
-5.98501
0
LINE
8
BLACK
6
CONTINUOUS
10
5.32671
20
-5.98501
11
5.32296
21
-5.99251
0
LINE
8
BLACK
6
CONTINUOUS
10
5.32296
20
-5.99251
11
5.31921
21
-5.99626
0
LINE
8
BLACK
6
CONTINUOUS
10
5.31921
20
-5.99626
11
5.31171
21
-6.00001
0
LINE
8
BLACK
6
CONTINUOUS
10
5.31171
20
-6.00001
11
5.29671
21
-6.00001
0
LINE
8
BLACK
6
CONTINUOUS
10
5.29671
20
-6.00001
11
5.28921
21
-5.99626
0
LINE
8
BLACK
6
CONTINUOUS
10
5.36045
20
-5.99251
11
5.3642
21
-5.99626
0
LINE
8
BLACK
6
CONTINUOUS
10
5.3642
20
-5.99626
11
5.36045
21
-6.00001
0
LINE
8
BLACK
6
CONTINUOUS
10
5.36045
20
-6.00001
11
5.3567
21
-5.99626
0
LINE
8
BLACK
6
CONTINUOUS
10
5.3567
20
-5.99626
11
5.36045
21
-5.99251
0
LINE
8
BLACK
6
CONTINUOUS
10
5.36045
20
-5.99251
11
5.36045
21
-6.00001
0
LINE
8
BLACK
6
CONTINUOUS
10
5.36045
20
-5.95127
11
5.3642
21
-5.95501
0
LINE
8
BLACK
6
CONTINUOUS
10
5.3642
20
-5.95501
11
5.36045
21
-5.95876
0
LINE
8
BLACK
6
CONTINUOUS
10
5.36045
20
-5.95876
11
5.3567
21
-5.95501
0
LINE
8
BLACK
6
CONTINUOUS
10
5.3567
20
-5.95501
11
5.36045
21
-5.95127
0
LINE
8
BLACK
6
CONTINUOUS
10
5.36045
20
-5.95127
11
5.36045
21
-5.95876
0
LINE
8
BLACK
6
CONTINUOUS
10
4.70728
20
-6.12106
11
4.72303
21
-6.13681
0
LINE
8
BLACK
6
CONTINUOUS
10
4.72303
20
-6.12106
11
4.70728
21
-6.13681
0
LINE
8
BLACK
6
CONTINUOUS
10
4.83552
20
-6.08662
11
4.84302
21
-6.08662
0
LINE
8
BLACK
6
CONTINUOUS
10
4.84302
20
-6.08662
11
4.85052
21
-6.09037
0
LINE
8
BLACK
6
CONTINUOUS
10
4.85052
20
-6.09037
11
4.85427
21
-6.09412
0
LINE
8
BLACK
6
CONTINUOUS
10
4.85427
20
-6.09412
11
4.85801
21
-6.10162
0
LINE
8
BLACK
6
CONTINUOUS
10
4.85801
20
-6.10162
11
4.86176
21
-6.11662
0
LINE
8
BLACK
6
CONTINUOUS
10
4.86176
20
-6.11662
11
4.86176
21
-6.13537
0
LINE
8
BLACK
6
CONTINUOUS
10
4.86176
20
-6.13537
11
4.85801
21
-6.15037
0
LINE
8
BLACK
6
CONTINUOUS
10
4.85801
20
-6.15037
11
4.85427
21
-6.15786
0
LINE
8
BLACK
6
CONTINUOUS
10
4.85427
20
-6.15786
11
4.85052
21
-6.16161
0
LINE
8
BLACK
6
CONTINUOUS
10
4.85052
20
-6.16161
11
4.84302
21
-6.16536
0
LINE
8
BLACK
6
CONTINUOUS
10
4.84302
20
-6.16536
11
4.83552
21
-6.16536
0
LINE
8
BLACK
6
CONTINUOUS
10
4.83552
20
-6.16536
11
4.82802
21
-6.16161
0
LINE
8
BLACK
6
CONTINUOUS
10
4.82802
20
-6.16161
11
4.82427
21
-6.15786
0
LINE
8
BLACK
6
CONTINUOUS
10
4.82427
20
-6.15786
11
4.82052
21
-6.15037
0
LINE
8
BLACK
6
CONTINUOUS
10
4.82052
20
-6.15037
11
4.81677
21
-6.13537
0
LINE
8
BLACK
6
CONTINUOUS
10
4.81677
20
-6.13537
11
4.81677
21
-6.11662
0
LINE
8
BLACK
6
CONTINUOUS
10
4.81677
20
-6.11662
11
4.82052
21
-6.10162
0
LINE
8
BLACK
6
CONTINUOUS
10
4.82052
20
-6.10162
11
4.82427
21
-6.09412
0
LINE
8
BLACK
6
CONTINUOUS
10
4.82427
20
-6.09412
11
4.82802
21
-6.09037
0
LINE
8
BLACK
6
CONTINUOUS
10
4.82802
20
-6.09037
11
4.83552
21
-6.08662
0
LINE
8
BLACK
6
CONTINUOUS
10
4.89551
20
-6.15786
11
4.89926
21
-6.16161
0
LINE
8
BLACK
6
CONTINUOUS
10
4.89926
20
-6.16161
11
4.89551
21
-6.16536
0
LINE
8
BLACK
6
CONTINUOUS
10
4.89551
20
-6.16536
11
4.89176
21
-6.16161
0
LINE
8
BLACK
6
CONTINUOUS
10
4.89176
20
-6.16161
11
4.89551
21
-6.15786
0
LINE
8
BLACK
6
CONTINUOUS
10
4.89551
20
-6.15786
11
4.89551
21
-6.16536
0
LINE
8
BLACK
6
CONTINUOUS
10
4.96675
20
-6.11287
11
4.96675
21
-6.16536
0
LINE
8
BLACK
6
CONTINUOUS
10
4.948
20
-6.08287
11
4.92926
21
-6.13912
0
LINE
8
BLACK
6
CONTINUOUS
10
4.92926
20
-6.13912
11
4.978
21
-6.13912
0
LINE
8
BLACK
6
CONTINUOUS
10
5.02299
20
-6.08662
11
5.03049
21
-6.08662
0
LINE
8
BLACK
6
CONTINUOUS
10
5.03049
20
-6.08662
11
5.03799
21
-6.09037
0
LINE
8
BLACK
6
CONTINUOUS
10
5.03799
20
-6.09037
11
5.04174
21
-6.09412
0
LINE
8
BLACK
6
CONTINUOUS
10
5.04174
20
-6.09412
11
5.04549
21
-6.10162
0
LINE
8
BLACK
6
CONTINUOUS
10
5.04549
20
-6.10162
11
5.04924
21
-6.11662
0
LINE
8
BLACK
6
CONTINUOUS
10
5.04924
20
-6.11662
11
5.04924
21
-6.13537
0
LINE
8
BLACK
6
CONTINUOUS
10
5.04924
20
-6.13537
11
5.04549
21
-6.15037
0
LINE
8
BLACK
6
CONTINUOUS
10
5.04549
20
-6.15037
11
5.04174
21
-6.15786
0
LINE
8
BLACK
6
CONTINUOUS
10
5.04174
20
-6.15786
11
5.03799
21
-6.16161
0
LINE
8
BLACK
6
CONTINUOUS
10
5.03799
20
-6.16161
11
5.03049
21
-6.16536
0
LINE
8
BLACK
6
CONTINUOUS
10
5.03049
20
-6.16536
11
5.02299
21
-6.16536
0
LINE
8
BLACK
6
CONTINUOUS
10
5.02299
20
-6.16536
11
5.01549
21
-6.16161
0
LINE
8
BLACK
6
CONTINUOUS
10
5.01549
20
-6.16161
11
5.01175
21
-6.15786
0
LINE
8
BLACK
6
CONTINUOUS
10
5.01175
20
-6.15786
11
5.008
21
-6.15037
0
LINE
8
BLACK
6
CONTINUOUS
10
5.008
20
-6.15037
11
5.00425
21
-6.13537
0
LINE
8
BLACK
6
CONTINUOUS
10
5.00425
20
-6.13537
11
5.00425
21
-6.11662
0
LINE
8
BLACK
6
CONTINUOUS
10
5.00425
20
-6.11662
11
5.008
21
-6.10162
0
LINE
8
BLACK
6
CONTINUOUS
10
5.008
20
-6.10162
11
5.01175
21
-6.09412
0
LINE
8
BLACK
6
CONTINUOUS
10
5.01175
20
-6.09412
11
5.01549
21
-6.09037
0
LINE
8
BLACK
6
CONTINUOUS
10
5.01549
20
-6.09037
11
5.02299
21
-6.08662
0
LINE
8
BLACK
6
CONTINUOUS
10
5.09798
20
-6.08662
11
5.10548
21
-6.08662
0
LINE
8
BLACK
6
CONTINUOUS
10
5.10548
20
-6.08662
11
5.11298
21
-6.09037
0
LINE
8
BLACK
6
CONTINUOUS
10
5.11298
20
-6.09037
11
5.11673
21
-6.09412
0
LINE
8
BLACK
6
CONTINUOUS
10
5.11673
20
-6.09412
11
5.12048
21
-6.10162
0
LINE
8
BLACK
6
CONTINUOUS
10
5.12048
20
-6.10162
11
5.12423
21
-6.11662
0
LINE
8
BLACK
6
CONTINUOUS
10
5.12423
20
-6.11662
11
5.12423
21
-6.13537
0
LINE
8
BLACK
6
CONTINUOUS
10
5.12423
20
-6.13537
11
5.12048
21
-6.15037
0
LINE
8
BLACK
6
CONTINUOUS
10
5.12048
20
-6.15037
11
5.11673
21
-6.15786
0
LINE
8
BLACK
6
CONTINUOUS
10
5.11673
20
-6.15786
11
5.11298
21
-6.16161
0
LINE
8
BLACK
6
CONTINUOUS
10
5.11298
20
-6.16161
11
5.10548
21
-6.16536
0
LINE
8
BLACK
6
CONTINUOUS
10
5.10548
20
-6.16536
11
5.09798
21
-6.16536
0
LINE
8
BLACK
6
CONTINUOUS
10
5.09798
20
-6.16536
11
5.09049
21
-6.16161
0
LINE
8
BLACK
6
CONTINUOUS
10
5.09049
20
-6.16161
11
5.08674
21
-6.15786
0
LINE
8
BLACK
6
CONTINUOUS
10
5.08674
20
-6.15786
11
5.08299
21
-6.15037
0
LINE
8
BLACK
6
CONTINUOUS
10
5.08299
20
-6.15037
11
5.07924
21
-6.13537
0
LINE
8
BLACK
6
CONTINUOUS
10
5.07924
20
-6.13537
11
5.07924
21
-6.11662
0
LINE
8
BLACK
6
CONTINUOUS
10
5.07924
20
-6.11662
11
5.08299
21
-6.10162
0
LINE
8
BLACK
6
CONTINUOUS
10
5.08299
20
-6.10162
11
5.08674
21
-6.09412
0
LINE
8
BLACK
6
CONTINUOUS
10
5.08674
20
-6.09412
11
5.09049
21
-6.09037
0
LINE
8
BLACK
6
CONTINUOUS
10
5.09049
20
-6.09037
11
5.09798
21
-6.08662
0
LINE
8
BLACK
6
CONTINUOUS
10
5.15798
20
-6.16536
11
5.15798
21
-6.11287
0
LINE
8
BLACK
6
CONTINUOUS
10
5.15798
20
-6.12037
11
5.16173
21
-6.11662
0
LINE
8
BLACK
6
CONTINUOUS
10
5.16173
20
-6.11662
11
5.16923
21
-6.11287
0
LINE
8
BLACK
6
CONTINUOUS
10
5.16923
20
-6.11287
11
5.18047
21
-6.11287
0
LINE
8
BLACK
6
CONTINUOUS
10
5.18047
20
-6.11287
11
5.18797
21
-6.11662
0
LINE
8
BLACK
6
CONTINUOUS
10
5.18797
20
-6.11662
11
5.19172
21
-6.12412
0
LINE
8
BLACK
6
CONTINUOUS
10
5.19172
20
-6.12412
11
5.19172
21
-6.16536
0
LINE
8
BLACK
6
CONTINUOUS
10
5.19172
20
-6.12412
11
5.19547
21
-6.11662
0
LINE
8
BLACK
6
CONTINUOUS
10
5.19547
20
-6.11662
11
5.20297
21
-6.11287
0
LINE
8
BLACK
6
CONTINUOUS
10
5.20297
20
-6.11287
11
5.21422
21
-6.11287
0
LINE
8
BLACK
6
CONTINUOUS
10
5.21422
20
-6.11287
11
5.22172
21
-6.11662
0
LINE
8
BLACK
6
CONTINUOUS
10
5.22172
20
-6.11662
11
5.22547
21
-6.12412
0
LINE
8
BLACK
6
CONTINUOUS
10
5.22547
20
-6.12412
11
5.22547
21
-6.16536
0
LINE
8
BLACK
6
CONTINUOUS
10
5.26296
20
-6.16536
11
5.26296
21
-6.11287
0
LINE
8
BLACK
6
CONTINUOUS
10
5.26296
20
-6.12037
11
5.26671
21
-6.11662
0
LINE
8
BLACK
6
CONTINUOUS
10
5.26671
20
-6.11662
11
5.27421
21
-6.11287
0
LINE
8
BLACK
6
CONTINUOUS
10
5.27421
20
-6.11287
11
5.28546
21
-6.11287
0
LINE
8
BLACK
6
CONTINUOUS
10
5.28546
20
-6.11287
11
5.29296
21
-6.11662
0
LINE
8
BLACK
6
CONTINUOUS
10
5.29296
20
-6.11662
11
5.29671
21
-6.12412
0
LINE
8
BLACK
6
CONTINUOUS
10
5.29671
20
-6.12412
11
5.29671
21
-6.16536
0
LINE
8
BLACK
6
CONTINUOUS
10
5.29671
20
-6.12412
11
5.30046
21
-6.11662
0
LINE
8
BLACK
6
CONTINUOUS
10
5.30046
20
-6.11662
11
5.30796
21
-6.11287
0
LINE
8
BLACK
6
CONTINUOUS
10
5.30796
20
-6.11287
11
5.31921
21
-6.11287
0
LINE
8
BLACK
6
CONTINUOUS
10
5.31921
20
-6.11287
11
5.32671
21
-6.11662
0
LINE
8
BLACK
6
CONTINUOUS
10
5.32671
20
-6.11662
11
5.33046
21
-6.12412
0
LINE
8
BLACK
6
CONTINUOUS
10
5.33046
20
-6.12412
11
5.33046
21
-6.16536
0
LINE
8
BLACK
6
CONTINUOUS
10
5.48419
20
-6.08287
11
5.41669
21
-6.18411
0
LINE
8
BLACK
6
CONTINUOUS
10
5.58542
20
-6.08662
11
5.59292
21
-6.08662
0
LINE
8
BLACK
6
CONTINUOUS
10
5.59292
20
-6.08662
11
5.60042
21
-6.09037
0
LINE
8
BLACK
6
CONTINUOUS
10
5.60042
20
-6.09037
11
5.60417
21
-6.09412
0
LINE
8
BLACK
6
CONTINUOUS
10
5.60417
20
-6.09412
11
5.60792
21
-6.10162
0
LINE
8
BLACK
6
CONTINUOUS
10
5.60792
20
-6.10162
11
5.61167
21
-6.11662
0
LINE
8
BLACK
6
CONTINUOUS
10
5.61167
20
-6.11662
11
5.61167
21
-6.13537
0
LINE
8
BLACK
6
CONTINUOUS
10
5.61167
20
-6.13537
11
5.60792
21
-6.15037
0
LINE
8
BLACK
6
CONTINUOUS
10
5.60792
20
-6.15037
11
5.60417
21
-6.15786
0
LINE
8
BLACK
6
CONTINUOUS
10
5.60417
20
-6.15786
11
5.60042
21
-6.16161
0
LINE
8
BLACK
6
CONTINUOUS
10
5.60042
20
-6.16161
11
5.59292
21
-6.16536
0
LINE
8
BLACK
6
CONTINUOUS
10
5.59292
20
-6.16536
11
5.58542
21
-6.16536
0
LINE
8
BLACK
6
CONTINUOUS
10
5.58542
20
-6.16536
11
5.57792
21
-6.16161
0
LINE
8
BLACK
6
CONTINUOUS
10
5.57792
20
-6.16161
11
5.57418
21
-6.15786
0
LINE
8
BLACK
6
CONTINUOUS
10
5.57418
20
-6.15786
11
5.57043
21
-6.15037
0
LINE
8
BLACK
6
CONTINUOUS
10
5.57043
20
-6.15037
11
5.56668
21
-6.13537
0
LINE
8
BLACK
6
CONTINUOUS
10
5.56668
20
-6.13537
11
5.56668
21
-6.11662
0
LINE
8
BLACK
6
CONTINUOUS
10
5.56668
20
-6.11662
11
5.57043
21
-6.10162
0
LINE
8
BLACK
6
CONTINUOUS
10
5.57043
20
-6.10162
11
5.57418
21
-6.09412
0
LINE
8
BLACK
6
CONTINUOUS
10
5.57418
20
-6.09412
11
5.57792
21
-6.09037
0
LINE
8
BLACK
6
CONTINUOUS
10
5.57792
20
-6.09037
11
5.58542
21
-6.08662
0
LINE
8
BLACK
6
CONTINUOUS
10
5.64542
20
-6.15786
11
5.64917
21
-6.16161
0
LINE
8
BLACK
6
CONTINUOUS
10
5.64917
20
-6.16161
11
5.64542
21
-6.16536
0
LINE
8
BLACK
6
CONTINUOUS
10
5.64542
20
-6.16536
11
5.64167
21
-6.16161
0
LINE
8
BLACK
6
CONTINUOUS
10
5.64167
20
-6.16161
11
5.64542
21
-6.15786
0
LINE
8
BLACK
6
CONTINUOUS
10
5.64542
20
-6.15786
11
5.64542
21
-6.16536
0
LINE
8
BLACK
6
CONTINUOUS
10
5.69791
20
-6.08662
11
5.70541
21
-6.08662
0
LINE
8
BLACK
6
CONTINUOUS
10
5.70541
20
-6.08662
11
5.71291
21
-6.09037
0
LINE
8
BLACK
6
CONTINUOUS
10
5.71291
20
-6.09037
11
5.71666
21
-6.09412
0
LINE
8
BLACK
6
CONTINUOUS
10
5.71666
20
-6.09412
11
5.72041
21
-6.10162
0
LINE
8
BLACK
6
CONTINUOUS
10
5.72041
20
-6.10162
11
5.72416
21
-6.11662
0
LINE
8
BLACK
6
CONTINUOUS
10
5.72416
20
-6.11662
11
5.72416
21
-6.13537
0
LINE
8
BLACK
6
CONTINUOUS
10
5.72416
20
-6.13537
11
5.72041
21
-6.15037
0
LINE
8
BLACK
6
CONTINUOUS
10
5.72041
20
-6.15037
11
5.71666
21
-6.15786
0
LINE
8
BLACK
6
CONTINUOUS
10
5.71666
20
-6.15786
11
5.71291
21
-6.16161
0
LINE
8
BLACK
6
CONTINUOUS
10
5.71291
20
-6.16161
11
5.70541
21
-6.16536
0
LINE
8
BLACK
6
CONTINUOUS
10
5.70541
20
-6.16536
11
5.69791
21
-6.16536
0
LINE
8
BLACK
6
CONTINUOUS
10
5.69791
20
-6.16536
11
5.69041
21
-6.16161
0
LINE
8
BLACK
6
CONTINUOUS
10
5.69041
20
-6.16161
11
5.68666
21
-6.15786
0
LINE
8
BLACK
6
CONTINUOUS
10
5.68666
20
-6.15786
11
5.68291
21
-6.15037
0
LINE
8
BLACK
6
CONTINUOUS
10
5.68291
20
-6.15037
11
5.67916
21
-6.13537
0
LINE
8
BLACK
6
CONTINUOUS
10
5.67916
20
-6.13537
11
5.67916
21
-6.11662
0
LINE
8
BLACK
6
CONTINUOUS
10
5.67916
20
-6.11662
11
5.68291
21
-6.10162
0
LINE
8
BLACK
6
CONTINUOUS
10
5.68291
20
-6.10162
11
5.68666
21
-6.09412
0
LINE
8
BLACK
6
CONTINUOUS
10
5.68666
20
-6.09412
11
5.69041
21
-6.09037
0
LINE
8
BLACK
6
CONTINUOUS
10
5.69041
20
-6.09037
11
5.69791
21
-6.08662
0
LINE
8
BLACK
6
CONTINUOUS
10
5.79915
20
-6.16536
11
5.75415
21
-6.16536
0
LINE
8
BLACK
6
CONTINUOUS
10
5.77665
20
-6.16536
11
5.77665
21
-6.08662
0
LINE
8
BLACK
6
CONTINUOUS
10
5.77665
20
-6.08662
11
5.76915
21
-6.09787
0
LINE
8
BLACK
6
CONTINUOUS
10
5.76915
20
-6.09787
11
5.76165
21
-6.10537
0
LINE
8
BLACK
6
CONTINUOUS
10
5.76165
20
-6.10537
11
5.75415
21
-6.10912
0
LINE
8
BLACK
6
CONTINUOUS
10
5.87039
20
-6.08662
11
5.83289
21
-6.08662
0
LINE
8
BLACK
6
CONTINUOUS
10
5.83289
20
-6.08662
11
5.82914
21
-6.12412
0
LINE
8
BLACK
6
CONTINUOUS
10
5.82914
20
-6.12412
11
5.83289
21
-6.12037
0
LINE
8
BLACK
6
CONTINUOUS
10
5.83289
20
-6.12037
11
5.84039
21
-6.11662
0
LINE
8
BLACK
6
CONTINUOUS
10
5.84039
20
-6.11662
11
5.85914
21
-6.11662
0
LINE
8
BLACK
6
CONTINUOUS
10
5.85914
20
-6.11662
11
5.86664
21
-6.12037
0
LINE
8
BLACK
6
CONTINUOUS
10
5.86664
20
-6.12037
11
5.87039
21
-6.12412
0
LINE
8
BLACK
6
CONTINUOUS
10
5.87039
20
-6.12412
11
5.87414
21
-6.13162
0
LINE
8
BLACK
6
CONTINUOUS
10
5.87414
20
-6.13162
11
5.87414
21
-6.15037
0
LINE
8
BLACK
6
CONTINUOUS
10
5.87414
20
-6.15037
11
5.87039
21
-6.15786
0
LINE
8
BLACK
6
CONTINUOUS
10
5.87039
20
-6.15786
11
5.86664
21
-6.16161
0
LINE
8
BLACK
6
CONTINUOUS
10
5.86664
20
-6.16161
11
5.85914
21
-6.16536
0
LINE
8
BLACK
6
CONTINUOUS
10
5.85914
20
-6.16536
11
5.84039
21
-6.16536
0
LINE
8
BLACK
6
CONTINUOUS
10
5.84039
20
-6.16536
11
5.83289
21
-6.16161
0
LINE
8
BLACK
6
CONTINUOUS
10
5.83289
20
-6.16161
11
5.82914
21
-6.15786
0
LINE
8
BLACK
6
CONTINUOUS
10
5.90038
20
-6.08662
11
5.95288
21
-6.08662
0
LINE
8
BLACK
6
CONTINUOUS
10
5.95288
20
-6.08662
11
5.91913
21
-6.16536
0
LINE
8
BLACK
6
CONTINUOUS
10
5.97912
20
-6.08662
11
5.97912
21
-6.10162
0
LINE
8
BLACK
6
CONTINUOUS
10
6.00912
20
-6.08662
11
6.00912
21
-6.10162
0
LINE
8
BLACK
6
CONTINUOUS
10
6.12536
20
-6.19536
11
6.12161
21
-6.19161
0
LINE
8
BLACK
6
CONTINUOUS
10
6.12161
20
-6.19161
11
6.11411
21
-6.18036
0
LINE
8
BLACK
6
CONTINUOUS
10
6.11411
20
-6.18036
11
6.11036
21
-6.17286
0
LINE
8
BLACK
6
CONTINUOUS
10
6.11036
20
-6.17286
11
6.10661
21
-6.16161
0
LINE
8
BLACK
6
CONTINUOUS
10
6.10661
20
-6.16161
11
6.10286
21
-6.14287
0
LINE
8
BLACK
6
CONTINUOUS
10
6.10286
20
-6.14287
11
6.10286
21
-6.12787
0
LINE
8
BLACK
6
CONTINUOUS
10
6.10286
20
-6.12787
11
6.10661
21
-6.10912
0
LINE
8
BLACK
6
CONTINUOUS
10
6.10661
20
-6.10912
11
6.11036
21
-6.09787
0
LINE
8
BLACK
6
CONTINUOUS
10
6.11036
20
-6.09787
11
6.11411
21
-6.09037
0
LINE
8
BLACK
6
CONTINUOUS
10
6.11411
20
-6.09037
11
6.12161
21
-6.07912
0
LINE
8
BLACK
6
CONTINUOUS
10
6.12161
20
-6.07912
11
6.12536
21
-6.07537
0
LINE
8
BLACK
6
CONTINUOUS
10
6.19285
20
-6.08662
11
6.15535
21
-6.08662
0
LINE
8
BLACK
6
CONTINUOUS
10
6.15535
20
-6.08662
11
6.1516
21
-6.12412
0
LINE
8
BLACK
6
CONTINUOUS
10
6.1516
20
-6.12412
11
6.15535
21
-6.12037
0
LINE
8
BLACK
6
CONTINUOUS
10
6.15535
20
-6.12037
11
6.16285
21
-6.11662
0
LINE
8
BLACK
6
CONTINUOUS
10
6.16285
20
-6.11662
11
6.1816
21
-6.11662
0
LINE
8
BLACK
6
CONTINUOUS
10
6.1816
20
-6.11662
11
6.1891
21
-6.12037
0
LINE
8
BLACK
6
CONTINUOUS
10
6.1891
20
-6.12037
11
6.19285
21
-6.12412
0
LINE
8
BLACK
6
CONTINUOUS
10
6.19285
20
-6.12412
11
6.1966
21
-6.13162
0
LINE
8
BLACK
6
CONTINUOUS
10
6.1966
20
-6.13162
11
6.1966
21
-6.15037
0
LINE
8
BLACK
6
CONTINUOUS
10
6.1966
20
-6.15037
11
6.19285
21
-6.15786
0
LINE
8
BLACK
6
CONTINUOUS
10
6.19285
20
-6.15786
11
6.1891
21
-6.16161
0
LINE
8
BLACK
6
CONTINUOUS
10
6.1891
20
-6.16161
11
6.1816
21
-6.16536
0
LINE
8
BLACK
6
CONTINUOUS
10
6.1816
20
-6.16536
11
6.16285
21
-6.16536
0
LINE
8
BLACK
6
CONTINUOUS
10
6.16285
20
-6.16536
11
6.15535
21
-6.16161
0
LINE
8
BLACK
6
CONTINUOUS
10
6.15535
20
-6.16161
11
6.1516
21
-6.15786
0
LINE
8
BLACK
6
CONTINUOUS
10
6.27159
20
-6.16536
11
6.22659
21
-6.16536
0
LINE
8
BLACK
6
CONTINUOUS
10
6.24909
20
-6.16536
11
6.24909
21
-6.08662
0
LINE
8
BLACK
6
CONTINUOUS
10
6.24909
20
-6.08662
11
6.24159
21
-6.09787
0
LINE
8
BLACK
6
CONTINUOUS
10
6.24159
20
-6.09787
11
6.23409
21
-6.10537
0
LINE
8
BLACK
6
CONTINUOUS
10
6.23409
20
-6.10537
11
6.22659
21
-6.10912
0
LINE
8
BLACK
6
CONTINUOUS
10
6.36533
20
-6.16536
11
6.36533
21
-6.08662
0
LINE
8
BLACK
6
CONTINUOUS
10
6.39907
20
-6.16536
11
6.39907
21
-6.12412
0
LINE
8
BLACK
6
CONTINUOUS
10
6.39907
20
-6.12412
11
6.39532
21
-6.11662
0
LINE
8
BLACK
6
CONTINUOUS
10
6.39532
20
-6.11662
11
6.38782
21
-6.11287
0
LINE
8
BLACK
6
CONTINUOUS
10
6.38782
20
-6.11287
11
6.37657
21
-6.11287
0
LINE
8
BLACK
6
CONTINUOUS
10
6.37657
20
-6.11287
11
6.36908
21
-6.11662
0
LINE
8
BLACK
6
CONTINUOUS
10
6.36908
20
-6.11662
11
6.36533
21
-6.12037
0
LINE
8
BLACK
6
CONTINUOUS
10
6.44782
20
-6.16536
11
6.44032
21
-6.16161
0
LINE
8
BLACK
6
CONTINUOUS
10
6.44032
20
-6.16161
11
6.43657
21
-6.15786
0
LINE
8
BLACK
6
CONTINUOUS
10
6.43657
20
-6.15786
11
6.43282
21
-6.15037
0
LINE
8
BLACK
6
CONTINUOUS
10
6.43282
20
-6.15037
11
6.43282
21
-6.12787
0
LINE
8
BLACK
6
CONTINUOUS
10
6.43282
20
-6.12787
11
6.43657
21
-6.12037
0
LINE
8
BLACK
6
CONTINUOUS
10
6.43657
20
-6.12037
11
6.44032
21
-6.11662
0
LINE
8
BLACK
6
CONTINUOUS
10
6.44032
20
-6.11662
11
6.44782
21
-6.11287
0
LINE
8
BLACK
6
CONTINUOUS
10
6.44782
20
-6.11287
11
6.45906
21
-6.11287
0
LINE
8
BLACK
6
CONTINUOUS
10
6.45906
20
-6.11287
11
6.46656
21
-6.11662
0
LINE
8
BLACK
6
CONTINUOUS
10
6.46656
20
-6.11662
11
6.47031
21
-6.12037
0
LINE
8
BLACK
6
CONTINUOUS
10
6.47031
20
-6.12037
11
6.47406
21
-6.12787
0
LINE
8
BLACK
6
CONTINUOUS
10
6.47406
20
-6.12787
11
6.47406
21
-6.15037
0
LINE
8
BLACK
6
CONTINUOUS
10
6.47406
20
-6.15037
11
6.47031
21
-6.15786
0
LINE
8
BLACK
6
CONTINUOUS
10
6.47031
20
-6.15786
11
6.46656
21
-6.16161
0
LINE
8
BLACK
6
CONTINUOUS
10
6.46656
20
-6.16161
11
6.45906
21
-6.16536
0
LINE
8
BLACK
6
CONTINUOUS
10
6.45906
20
-6.16536
11
6.44782
21
-6.16536
0
LINE
8
BLACK
6
CONTINUOUS
10
6.51906
20
-6.16536
11
6.51156
21
-6.16161
0
LINE
8
BLACK
6
CONTINUOUS
10
6.51156
20
-6.16161
11
6.50781
21
-6.15412
0
LINE
8
BLACK
6
CONTINUOUS
10
6.50781
20
-6.15412
11
6.50781
21
-6.08662
0
LINE
8
BLACK
6
CONTINUOUS
10
6.57905
20
-6.16161
11
6.57155
21
-6.16536
0
LINE
8
BLACK
6
CONTINUOUS
10
6.57155
20
-6.16536
11
6.55655
21
-6.16536
0
LINE
8
BLACK
6
CONTINUOUS
10
6.55655
20
-6.16536
11
6.54905
21
-6.16161
0
LINE
8
BLACK
6
CONTINUOUS
10
6.54905
20
-6.16161
11
6.5453
21
-6.15412
0
LINE
8
BLACK
6
CONTINUOUS
10
6.5453
20
-6.15412
11
6.5453
21
-6.12412
0
LINE
8
BLACK
6
CONTINUOUS
10
6.5453
20
-6.12412
11
6.54905
21
-6.11662
0
LINE
8
BLACK
6
CONTINUOUS
10
6.54905
20
-6.11662
11
6.55655
21
-6.11287
0
LINE
8
BLACK
6
CONTINUOUS
10
6.55655
20
-6.11287
11
6.57155
21
-6.11287
0
LINE
8
BLACK
6
CONTINUOUS
10
6.57155
20
-6.11287
11
6.57905
21
-6.11662
0
LINE
8
BLACK
6
CONTINUOUS
10
6.57905
20
-6.11662
11
6.5828
21
-6.12412
0
LINE
8
BLACK
6
CONTINUOUS
10
6.5828
20
-6.12412
11
6.5828
21
-6.13162
0
LINE
8
BLACK
6
CONTINUOUS
10
6.5828
20
-6.13162
11
6.5453
21
-6.13912
0
LINE
8
BLACK
6
CONTINUOUS
10
6.6128
20
-6.16161
11
6.62029
21
-6.16536
0
LINE
8
BLACK
6
CONTINUOUS
10
6.62029
20
-6.16536
11
6.63529
21
-6.16536
0
LINE
8
BLACK
6
CONTINUOUS
10
6.63529
20
-6.16536
11
6.64279
21
-6.16161
0
LINE
8
BLACK
6
CONTINUOUS
10
6.64279
20
-6.16161
11
6.64654
21
-6.15412
0
LINE
8
BLACK
6
CONTINUOUS
10
6.64654
20
-6.15412
11
6.64654
21
-6.15037
0
LINE
8
BLACK
6
CONTINUOUS
10
6.64654
20
-6.15037
11
6.64279
21
-6.14287
0
LINE
8
BLACK
6
CONTINUOUS
10
6.64279
20
-6.14287
11
6.63529
21
-6.13912
0
LINE
8
BLACK
6
CONTINUOUS
10
6.63529
20
-6.13912
11
6.62404
21
-6.13912
0
LINE
8
BLACK
6
CONTINUOUS
10
6.62404
20
-6.13912
11
6.61654
21
-6.13537
0
LINE
8
BLACK
6
CONTINUOUS
10
6.61654
20
-6.13537
11
6.6128
21
-6.12787
0
LINE
8
BLACK
6
CONTINUOUS
10
6.6128
20
-6.12787
11
6.6128
21
-6.12412
0
LINE
8
BLACK
6
CONTINUOUS
10
6.6128
20
-6.12412
11
6.61654
21
-6.11662
0
LINE
8
BLACK
6
CONTINUOUS
10
6.61654
20
-6.11662
11
6.62404
21
-6.11287
0
LINE
8
BLACK
6
CONTINUOUS
10
6.62404
20
-6.11287
11
6.63529
21
-6.11287
0
LINE
8
BLACK
6
CONTINUOUS
10
6.63529
20
-6.11287
11
6.64279
21
-6.11662
0
LINE
8
BLACK
6
CONTINUOUS
10
6.67279
20
-6.19536
11
6.67654
21
-6.19161
0
LINE
8
BLACK
6
CONTINUOUS
10
6.67654
20
-6.19161
11
6.68404
21
-6.18036
0
LINE
8
BLACK
6
CONTINUOUS
10
6.68404
20
-6.18036
11
6.68779
21
-6.17286
0
LINE
8
BLACK
6
CONTINUOUS
10
6.68779
20
-6.17286
11
6.69154
21
-6.16161
0
LINE
8
BLACK
6
CONTINUOUS
10
6.69154
20
-6.16161
11
6.69529
21
-6.14287
0
LINE
8
BLACK
6
CONTINUOUS
10
6.69529
20
-6.14287
11
6.69529
21
-6.12787
0
LINE
8
BLACK
6
CONTINUOUS
10
6.69529
20
-6.12787
11
6.69154
21
-6.10912
0
LINE
8
BLACK
6
CONTINUOUS
10
6.69154
20
-6.10912
11
6.68779
21
-6.09787
0
LINE
8
BLACK
6
CONTINUOUS
10
6.68779
20
-6.09787
11
6.68404
21
-6.09037
0
LINE
8
BLACK
6
CONTINUOUS
10
6.68404
20
-6.09037
11
6.67654
21
-6.07912
0
LINE
8
BLACK
6
CONTINUOUS
10
6.67654
20
-6.07912
11
6.67279
21
-6.07537
0
CIRCLE
8
BLACK
10
4.70335
20
-6.23287
40
0.019685
0
LINE
8
BLACK
6
CONTINUOUS
10
4.86176
20
-6.2693
11
4.81677
21
-6.2693
0
LINE
8
BLACK
6
CONTINUOUS
10
4.83927
20
-6.2693
11
4.83927
21
-6.19056
0
LINE
8
BLACK
6
CONTINUOUS
10
4.83927
20
-6.19056
11
4.83177
21
-6.20181
0
LINE
8
BLACK
6
CONTINUOUS
10
4.83177
20
-6.20181
11
4.82427
21
-6.20931
0
LINE
8
BLACK
6
CONTINUOUS
10
4.82427
20
-6.20931
11
4.81677
21
-6.21306
0
LINE
8
BLACK
6
CONTINUOUS
10
4.89551
20
-6.2618
11
4.89926
21
-6.26555
0
LINE
8
BLACK
6
CONTINUOUS
10
4.89926
20
-6.26555
11
4.89551
21
-6.2693
0
LINE
8
BLACK
6
CONTINUOUS
10
4.89551
20
-6.2693
11
4.89176
21
-6.26555
0
LINE
8
BLACK
6
CONTINUOUS
10
4.89176
20
-6.26555
11
4.89551
21
-6.2618
0
LINE
8
BLACK
6
CONTINUOUS
10
4.89551
20
-6.2618
11
4.89551
21
-6.2693
0
LINE
8
BLACK
6
CONTINUOUS
10
4.948
20
-6.19056
11
4.9555
21
-6.19056
0
LINE
8
BLACK
6
CONTINUOUS
10
4.9555
20
-6.19056
11
4.963
21
-6.19431
0
LINE
8
BLACK
6
CONTINUOUS
10
4.963
20
-6.19431
11
4.96675
21
-6.19806
0
LINE
8
BLACK
6
CONTINUOUS
10
4.96675
20
-6.19806
11
4.9705
21
-6.20556
0
LINE
8
BLACK
6
CONTINUOUS
10
4.9705
20
-6.20556
11
4.97425
21
-6.22056
0
LINE
8
BLACK
6
CONTINUOUS
10
4.97425
20
-6.22056
11
4.97425
21
-6.2393
0
LINE
8
BLACK
6
CONTINUOUS
10
4.97425
20
-6.2393
11
4.9705
21
-6.2543
0
LINE
8
BLACK
6
CONTINUOUS
10
4.9705
20
-6.2543
11
4.96675
21
-6.2618
0
LINE
8
BLACK
6
CONTINUOUS
10
4.96675
20
-6.2618
11
4.963
21
-6.26555
0
LINE
8
BLACK
6
CONTINUOUS
10
4.963
20
-6.26555
11
4.9555
21
-6.2693
0
LINE
8
BLACK
6
CONTINUOUS
10
4.9555
20
-6.2693
11
4.948
21
-6.2693
0
LINE
8
BLACK
6
CONTINUOUS
10
4.948
20
-6.2693
11
4.9405
21
-6.26555
0
LINE
8
BLACK
6
CONTINUOUS
10
4.9405
20
-6.26555
11
4.93675
21
-6.2618
0
LINE
8
BLACK
6
CONTINUOUS
10
4.93675
20
-6.2618
11
4.93301
21
-6.2543
0
LINE
8
BLACK
6
CONTINUOUS
10
4.93301
20
-6.2543
11
4.92926
21
-6.2393
0
LINE
8
BLACK
6
CONTINUOUS
10
4.92926
20
-6.2393
11
4.92926
21
-6.22056
0
LINE
8
BLACK
6
CONTINUOUS
10
4.92926
20
-6.22056
11
4.93301
21
-6.20556
0
LINE
8
BLACK
6
CONTINUOUS
10
4.93301
20
-6.20556
11
4.93675
21
-6.19806
0
LINE
8
BLACK
6
CONTINUOUS
10
4.93675
20
-6.19806
11
4.9405
21
-6.19431
0
LINE
8
BLACK
6
CONTINUOUS
10
4.9405
20
-6.19431
11
4.948
21
-6.19056
0
LINE
8
BLACK
6
CONTINUOUS
10
5.02299
20
-6.19056
11
5.03049
21
-6.19056
0
LINE
8
BLACK
6
CONTINUOUS
10
5.03049
20
-6.19056
11
5.03799
21
-6.19431
0
LINE
8
BLACK
6
CONTINUOUS
10
5.03799
20
-6.19431
11
5.04174
21
-6.19806
0
LINE
8
BLACK
6
CONTINUOUS
10
5.04174
20
-6.19806
11
5.04549
21
-6.20556
0
LINE
8
BLACK
6
CONTINUOUS
10
5.04549
20
-6.20556
11
5.04924
21
-6.22056
0
LINE
8
BLACK
6
CONTINUOUS
10
5.04924
20
-6.22056
11
5.04924
21
-6.2393
0
LINE
8
BLACK
6
CONTINUOUS
10
5.04924
20
-6.2393
11
5.04549
21
-6.2543
0
LINE
8
BLACK
6
CONTINUOUS
10
5.04549
20
-6.2543
11
5.04174
21
-6.2618
0
LINE
8
BLACK
6
CONTINUOUS
10
5.04174
20
-6.2618
11
5.03799
21
-6.26555
0
LINE
8
BLACK
6
CONTINUOUS
10
5.03799
20
-6.26555
11
5.03049
21
-6.2693
0
LINE
8
BLACK
6
CONTINUOUS
10
5.03049
20
-6.2693
11
5.02299
21
-6.2693
0
LINE
8
BLACK
6
CONTINUOUS
10
5.02299
20
-6.2693
11
5.01549
21
-6.26555
0
LINE
8
BLACK
6
CONTINUOUS
10
5.01549
20
-6.26555
11
5.01175
21
-6.2618
0
LINE
8
BLACK
6
CONTINUOUS
10
5.01175
20
-6.2618
11
5.008
21
-6.2543
0
LINE
8
BLACK
6
CONTINUOUS
10
5.008
20
-6.2543
11
5.00425
21
-6.2393
0
LINE
8
BLACK
6
CONTINUOUS
10
5.00425
20
-6.2393
11
5.00425
21
-6.22056
0
LINE
8
BLACK
6
CONTINUOUS
10
5.00425
20
-6.22056
11
5.008
21
-6.20556
0
LINE
8
BLACK
6
CONTINUOUS
10
5.008
20
-6.20556
11
5.01175
21
-6.19806
0
LINE
8
BLACK
6
CONTINUOUS
10
5.01175
20
-6.19806
11
5.01549
21
-6.19431
0
LINE
8
BLACK
6
CONTINUOUS
10
5.01549
20
-6.19431
11
5.02299
21
-6.19056
0
LINE
8
BLACK
6
CONTINUOUS
10
5.09798
20
-6.19056
11
5.10548
21
-6.19056
0
LINE
8
BLACK
6
CONTINUOUS
10
5.10548
20
-6.19056
11
5.11298
21
-6.19431
0
LINE
8
BLACK
6
CONTINUOUS
10
5.11298
20
-6.19431
11
5.11673
21
-6.19806
0
LINE
8
BLACK
6
CONTINUOUS
10
5.11673
20
-6.19806
11
5.12048
21
-6.20556
0
LINE
8
BLACK
6
CONTINUOUS
10
5.12048
20
-6.20556
11
5.12423
21
-6.22056
0
LINE
8
BLACK
6
CONTINUOUS
10
5.12423
20
-6.22056
11
5.12423
21
-6.2393
0
LINE
8
BLACK
6
CONTINUOUS
10
5.12423
20
-6.2393
11
5.12048
21
-6.2543
0
LINE
8
BLACK
6
CONTINUOUS
10
5.12048
20
-6.2543
11
5.11673
21
-6.2618
0
LINE
8
BLACK
6
CONTINUOUS
10
5.11673
20
-6.2618
11
5.11298
21
-6.26555
0
LINE
8
BLACK
6
CONTINUOUS
10
5.11298
20
-6.26555
11
5.10548
21
-6.2693
0
LINE
8
BLACK
6
CONTINUOUS
10
5.10548
20
-6.2693
11
5.09798
21
-6.2693
0
LINE
8
BLACK
6
CONTINUOUS
10
5.09798
20
-6.2693
11
5.09049
21
-6.26555
0
LINE
8
BLACK
6
CONTINUOUS
10
5.09049
20
-6.26555
11
5.08674
21
-6.2618
0
LINE
8
BLACK
6
CONTINUOUS
10
5.08674
20
-6.2618
11
5.08299
21
-6.2543
0
LINE
8
BLACK
6
CONTINUOUS
10
5.08299
20
-6.2543
11
5.07924
21
-6.2393
0
LINE
8
BLACK
6
CONTINUOUS
10
5.07924
20
-6.2393
11
5.07924
21
-6.22056
0
LINE
8
BLACK
6
CONTINUOUS
10
5.07924
20
-6.22056
11
5.08299
21
-6.20556
0
LINE
8
BLACK
6
CONTINUOUS
10
5.08299
20
-6.20556
11
5.08674
21
-6.19806
0
LINE
8
BLACK
6
CONTINUOUS
10
5.08674
20
-6.19806
11
5.09049
21
-6.19431
0
LINE
8
BLACK
6
CONTINUOUS
10
5.09049
20
-6.19431
11
5.09798
21
-6.19056
0
LINE
8
BLACK
6
CONTINUOUS
10
5.15798
20
-6.2693
11
5.15798
21
-6.21681
0
LINE
8
BLACK
6
CONTINUOUS
10
5.15798
20
-6.22431
11
5.16173
21
-6.22056
0
LINE
8
BLACK
6
CONTINUOUS
10
5.16173
20
-6.22056
11
5.16923
21
-6.21681
0
LINE
8
BLACK
6
CONTINUOUS
10
5.16923
20
-6.21681
11
5.18047
21
-6.21681
0
LINE
8
BLACK
6
CONTINUOUS
10
5.18047
20
-6.21681
11
5.18797
21
-6.22056
0
LINE
8
BLACK
6
CONTINUOUS
10
5.18797
20
-6.22056
11
5.19172
21
-6.22806
0
LINE
8
BLACK
6
CONTINUOUS
10
5.19172
20
-6.22806
11
5.19172
21
-6.2693
0
LINE
8
BLACK
6
CONTINUOUS
10
5.19172
20
-6.22806
11
5.19547
21
-6.22056
0
LINE
8
BLACK
6
CONTINUOUS
10
5.19547
20
-6.22056
11
5.20297
21
-6.21681
0
LINE
8
BLACK
6
CONTINUOUS
10
5.20297
20
-6.21681
11
5.21422
21
-6.21681
0
LINE
8
BLACK
6
CONTINUOUS
10
5.21422
20
-6.21681
11
5.22172
21
-6.22056
0
LINE
8
BLACK
6
CONTINUOUS
10
5.22172
20
-6.22056
11
5.22547
21
-6.22806
0
LINE
8
BLACK
6
CONTINUOUS
10
5.22547
20
-6.22806
11
5.22547
21
-6.2693
0
LINE
8
BLACK
6
CONTINUOUS
10
5.26296
20
-6.2693
11
5.26296
21
-6.21681
0
LINE
8
BLACK
6
CONTINUOUS
10
5.26296
20
-6.22431
11
5.26671
21
-6.22056
0
LINE
8
BLACK
6
CONTINUOUS
10
5.26671
20
-6.22056
11
5.27421
21
-6.21681
0
LINE
8
BLACK
6
CONTINUOUS
10
5.27421
20
-6.21681
11
5.28546
21
-6.21681
0
LINE
8
BLACK
6
CONTINUOUS
10
5.28546
20
-6.21681
11
5.29296
21
-6.22056
0
LINE
8
BLACK
6
CONTINUOUS
10
5.29296
20
-6.22056
11
5.29671
21
-6.22806
0
LINE
8
BLACK
6
CONTINUOUS
10
5.29671
20
-6.22806
11
5.29671
21
-6.2693
0
LINE
8
BLACK
6
CONTINUOUS
10
5.29671
20
-6.22806
11
5.30046
21
-6.22056
0
LINE
8
BLACK
6
CONTINUOUS
10
5.30046
20
-6.22056
11
5.30796
21
-6.21681
0
LINE
8
BLACK
6
CONTINUOUS
10
5.30796
20
-6.21681
11
5.31921
21
-6.21681
0
LINE
8
BLACK
6
CONTINUOUS
10
5.31921
20
-6.21681
11
5.32671
21
-6.22056
0
LINE
8
BLACK
6
CONTINUOUS
10
5.32671
20
-6.22056
11
5.33046
21
-6.22806
0
LINE
8
BLACK
6
CONTINUOUS
10
5.33046
20
-6.22806
11
5.33046
21
-6.2693
0
LINE
8
BLACK
6
CONTINUOUS
10
5.48419
20
-6.18681
11
5.41669
21
-6.28805
0
LINE
8
BLACK
6
CONTINUOUS
10
5.58542
20
-6.19056
11
5.59292
21
-6.19056
0
LINE
8
BLACK
6
CONTINUOUS
10
5.59292
20
-6.19056
11
5.60042
21
-6.19431
0
LINE
8
BLACK
6
CONTINUOUS
10
5.60042
20
-6.19431
11
5.60417
21
-6.19806
0
LINE
8
BLACK
6
CONTINUOUS
10
5.60417
20
-6.19806
11
5.60792
21
-6.20556
0
LINE
8
BLACK
6
CONTINUOUS
10
5.60792
20
-6.20556
11
5.61167
21
-6.22056
0
LINE
8
BLACK
6
CONTINUOUS
10
5.61167
20
-6.22056
11
5.61167
21
-6.2393
0
LINE
8
BLACK
6
CONTINUOUS
10
5.61167
20
-6.2393
11
5.60792
21
-6.2543
0
LINE
8
BLACK
6
CONTINUOUS
10
5.60792
20
-6.2543
11
5.60417
21
-6.2618
0
LINE
8
BLACK
6
CONTINUOUS
10
5.60417
20
-6.2618
11
5.60042
21
-6.26555
0
LINE
8
BLACK
6
CONTINUOUS
10
5.60042
20
-6.26555
11
5.59292
21
-6.2693
0
LINE
8
BLACK
6
CONTINUOUS
10
5.59292
20
-6.2693
11
5.58542
21
-6.2693
0
LINE
8
BLACK
6
CONTINUOUS
10
5.58542
20
-6.2693
11
5.57792
21
-6.26555
0
LINE
8
BLACK
6
CONTINUOUS
10
5.57792
20
-6.26555
11
5.57418
21
-6.2618
0
LINE
8
BLACK
6
CONTINUOUS
10
5.57418
20
-6.2618
11
5.57043
21
-6.2543
0
LINE
8
BLACK
6
CONTINUOUS
10
5.57043
20
-6.2543
11
5.56668
21
-6.2393
0
LINE
8
BLACK
6
CONTINUOUS
10
5.56668
20
-6.2393
11
5.56668
21
-6.22056
0
LINE
8
BLACK
6
CONTINUOUS
10
5.56668
20
-6.22056
11
5.57043
21
-6.20556
0
LINE
8
BLACK
6
CONTINUOUS
10
5.57043
20
-6.20556
11
5.57418
21
-6.19806
0
LINE
8
BLACK
6
CONTINUOUS
10
5.57418
20
-6.19806
11
5.57792
21
-6.19431
0
LINE
8
BLACK
6
CONTINUOUS
10
5.57792
20
-6.19431
11
5.58542
21
-6.19056
0
LINE
8
BLACK
6
CONTINUOUS
10
5.64542
20
-6.2618
11
5.64917
21
-6.26555
0
LINE
8
BLACK
6
CONTINUOUS
10
5.64917
20
-6.26555
11
5.64542
21
-6.2693
0
LINE
8
BLACK
6
CONTINUOUS
10
5.64542
20
-6.2693
11
5.64167
21
-6.26555
0
LINE
8
BLACK
6
CONTINUOUS
10
5.64167
20
-6.26555
11
5.64542
21
-6.2618
0
LINE
8
BLACK
6
CONTINUOUS
10
5.64542
20
-6.2618
11
5.64542
21
-6.2693
0
LINE
8
BLACK
6
CONTINUOUS
10
5.69791
20
-6.19056
11
5.70541
21
-6.19056
0
LINE
8
BLACK
6
CONTINUOUS
10
5.70541
20
-6.19056
11
5.71291
21
-6.19431
0
LINE
8
BLACK
6
CONTINUOUS
10
5.71291
20
-6.19431
11
5.71666
21
-6.19806
0
LINE
8
BLACK
6
CONTINUOUS
10
5.71666
20
-6.19806
11
5.72041
21
-6.20556
0
LINE
8
BLACK
6
CONTINUOUS
10
5.72041
20
-6.20556
11
5.72416
21
-6.22056
0
LINE
8
BLACK
6
CONTINUOUS
10
5.72416
20
-6.22056
11
5.72416
21
-6.2393
0
LINE
8
BLACK
6
CONTINUOUS
10
5.72416
20
-6.2393
11
5.72041
21
-6.2543
0
LINE
8
BLACK
6
CONTINUOUS
10
5.72041
20
-6.2543
11
5.71666
21
-6.2618
0
LINE
8
BLACK
6
CONTINUOUS
10
5.71666
20
-6.2618
11
5.71291
21
-6.26555
0
LINE
8
BLACK
6
CONTINUOUS
10
5.71291
20
-6.26555
11
5.70541
21
-6.2693
0
LINE
8
BLACK
6
CONTINUOUS
10
5.70541
20
-6.2693
11
5.69791
21
-6.2693
0
LINE
8
BLACK
6
CONTINUOUS
10
5.69791
20
-6.2693
11
5.69041
21
-6.26555
0
LINE
8
BLACK
6
CONTINUOUS
10
5.69041
20
-6.26555
11
5.68666
21
-6.2618
0
LINE
8
BLACK
6
CONTINUOUS
10
5.68666
20
-6.2618
11
5.68291
21
-6.2543
0
LINE
8
BLACK
6
CONTINUOUS
10
5.68291
20
-6.2543
11
5.67916
21
-6.2393
0
LINE
8
BLACK
6
CONTINUOUS
10
5.67916
20
-6.2393
11
5.67916
21
-6.22056
0
LINE
8
BLACK
6
CONTINUOUS
10
5.67916
20
-6.22056
11
5.68291
21
-6.20556
0
LINE
8
BLACK
6
CONTINUOUS
10
5.68291
20
-6.20556
11
5.68666
21
-6.19806
0
LINE
8
BLACK
6
CONTINUOUS
10
5.68666
20
-6.19806
11
5.69041
21
-6.19431
0
LINE
8
BLACK
6
CONTINUOUS
10
5.69041
20
-6.19431
11
5.69791
21
-6.19056
0
LINE
8
BLACK
6
CONTINUOUS
10
5.7504
20
-6.19056
11
5.79915
21
-6.19056
0
LINE
8
BLACK
6
CONTINUOUS
10
5.79915
20
-6.19056
11
5.7729
21
-6.22056
0
LINE
8
BLACK
6
CONTINUOUS
10
5.7729
20
-6.22056
11
5.78415
21
-6.22056
0
LINE
8
BLACK
6
CONTINUOUS
10
5.78415
20
-6.22056
11
5.79165
21
-6.22431
0
LINE
8
BLACK
6
CONTINUOUS
10
5.79165
20
-6.22431
11
5.7954
21
-6.22806
0
LINE
8
BLACK
6
CONTINUOUS
10
5.7954
20
-6.22806
11
5.79915
21
-6.23555
0
LINE
8
BLACK
6
CONTINUOUS
10
5.79915
20
-6.23555
11
5.79915
21
-6.2543
0
LINE
8
BLACK
6
CONTINUOUS
10
5.79915
20
-6.2543
11
5.7954
21
-6.2618
0
LINE
8
BLACK
6
CONTINUOUS
10
5.7954
20
-6.2618
11
5.79165
21
-6.26555
0
LINE
8
BLACK
6
CONTINUOUS
10
5.79165
20
-6.26555
11
5.78415
21
-6.2693
0
LINE
8
BLACK
6
CONTINUOUS
10
5.78415
20
-6.2693
11
5.76165
21
-6.2693
0
LINE
8
BLACK
6
CONTINUOUS
10
5.76165
20
-6.2693
11
5.75415
21
-6.26555
0
LINE
8
BLACK
6
CONTINUOUS
10
5.75415
20
-6.26555
11
5.7504
21
-6.2618
0
LINE
8
BLACK
6
CONTINUOUS
10
5.83664
20
-6.2693
11
5.85164
21
-6.2693
0
LINE
8
BLACK
6
CONTINUOUS
10
5.85164
20
-6.2693
11
5.85914
21
-6.26555
0
LINE
8
BLACK
6
CONTINUOUS
10
5.85914
20
-6.26555
11
5.86289
21
-6.2618
0
LINE
8
BLACK
6
CONTINUOUS
10
5.86289
20
-6.2618
11
5.87039
21
-6.25055
0
LINE
8
BLACK
6
CONTINUOUS
10
5.87039
20
-6.25055
11
5.87414
21
-6.23555
0
LINE
8
BLACK
6
CONTINUOUS
10
5.87414
20
-6.23555
11
5.87414
21
-6.20556
0
LINE
8
BLACK
6
CONTINUOUS
10
5.87414
20
-6.20556
11
5.87039
21
-6.19806
0
LINE
8
BLACK
6
CONTINUOUS
10
5.87039
20
-6.19806
11
5.86664
21
-6.19431
0
LINE
8
BLACK
6
CONTINUOUS
10
5.86664
20
-6.19431
11
5.85914
21
-6.19056
0
LINE
8
BLACK
6
CONTINUOUS
10
5.85914
20
-6.19056
11
5.84414
21
-6.19056
0
LINE
8
BLACK
6
CONTINUOUS
10
5.84414
20
-6.19056
11
5.83664
21
-6.19431
0
LINE
8
BLACK
6
CONTINUOUS
10
5.83664
20
-6.19431
11
5.83289
21
-6.19806
0
LINE
8
BLACK
6
CONTINUOUS
10
5.83289
20
-6.19806
11
5.82914
21
-6.20556
0
LINE
8
BLACK
6
CONTINUOUS
10
5.82914
20
-6.20556
11
5.82914
21
-6.22431
0
LINE
8
BLACK
6
CONTINUOUS
10
5.82914
20
-6.22431
11
5.83289
21
-6.23181
0
LINE
8
BLACK
6
CONTINUOUS
10
5.83289
20
-6.23181
11
5.83664
21
-6.23555
0
LINE
8
BLACK
6
CONTINUOUS
10
5.83664
20
-6.23555
11
5.84414
21
-6.2393
0
LINE
8
BLACK
6
CONTINUOUS
10
5.84414
20
-6.2393
11
5.85914
21
-6.2393
0
LINE
8
BLACK
6
CONTINUOUS
10
5.85914
20
-6.2393
11
5.86664
21
-6.23555
0
LINE
8
BLACK
6
CONTINUOUS
10
5.86664
20
-6.23555
11
5.87039
21
-6.23181
0
LINE
8
BLACK
6
CONTINUOUS
10
5.87039
20
-6.23181
11
5.87414
21
-6.22431
0
LINE
8
BLACK
6
CONTINUOUS
10
5.94163
20
-6.21681
11
5.94163
21
-6.2693
0
LINE
8
BLACK
6
CONTINUOUS
10
5.92288
20
-6.18681
11
5.90413
21
-6.24305
0
LINE
8
BLACK
6
CONTINUOUS
10
5.90413
20
-6.24305
11
5.95288
21
-6.24305
0
LINE
8
BLACK
6
CONTINUOUS
10
5.97912
20
-6.19056
11
5.97912
21
-6.20556
0
LINE
8
BLACK
6
CONTINUOUS
10
6.00912
20
-6.19056
11
6.00912
21
-6.20556
0
LINE
8
BLACK
6
CONTINUOUS
10
6.12536
20
-6.2993
11
6.12161
21
-6.29555
0
LINE
8
BLACK
6
CONTINUOUS
10
6.12161
20
-6.29555
11
6.11411
21
-6.2843
0
LINE
8
BLACK
6
CONTINUOUS
10
6.11411
20
-6.2843
11
6.11036
21
-6.2768
0
LINE
8
BLACK
6
CONTINUOUS
10
6.11036
20
-6.2768
11
6.10661
21
-6.26555
0
LINE
8
BLACK
6
CONTINUOUS
10
6.10661
20
-6.26555
11
6.10286
21
-6.2468
0
LINE
8
BLACK
6
CONTINUOUS
10
6.10286
20
-6.2468
11
6.10286
21
-6.23181
0
LINE
8
BLACK
6
CONTINUOUS
10
6.10286
20
-6.23181
11
6.10661
21
-6.21306
0
LINE
8
BLACK
6
CONTINUOUS
10
6.10661
20
-6.21306
11
6.11036
21
-6.20181
0
LINE
8
BLACK
6
CONTINUOUS
10
6.11036
20
-6.20181
11
6.11411
21
-6.19431
0
LINE
8
BLACK
6
CONTINUOUS
10
6.11411
20
-6.19431
11
6.12161
21
-6.18306
0
LINE
8
BLACK
6
CONTINUOUS
10
6.12161
20
-6.18306
11
6.12536
21
-6.17931
0
LINE
8
BLACK
6
CONTINUOUS
10
6.1966
20
-6.2693
11
6.1516
21
-6.2693
0
LINE
8
BLACK
6
CONTINUOUS
10
6.1741
20
-6.2693
11
6.1741
21
-6.19056
0
LINE
8
BLACK
6
CONTINUOUS
10
6.1741
20
-6.19056
11
6.1666
21
-6.20181
0
LINE
8
BLACK
6
CONTINUOUS
10
6.1666
20
-6.20181
11
6.1591
21
-6.20931
0
LINE
8
BLACK
6
CONTINUOUS
10
6.1591
20
-6.20931
11
6.1516
21
-6.21306
0
LINE
8
BLACK
6
CONTINUOUS
10
6.23409
20
-6.2693
11
6.24909
21
-6.2693
0
LINE
8
BLACK
6
CONTINUOUS
10
6.24909
20
-6.2693
11
6.25659
21
-6.26555
0
LINE
8
BLACK
6
CONTINUOUS
10
6.25659
20
-6.26555
11
6.26034
21
-6.2618
0
LINE
8
BLACK
6
CONTINUOUS
10
6.26034
20
-6.2618
11
6.26784
21
-6.25055
0
LINE
8
BLACK
6
CONTINUOUS
10
6.26784
20
-6.25055
11
6.27159
21
-6.23555
0
LINE
8
BLACK
6
CONTINUOUS
10
6.27159
20
-6.23555
11
6.27159
21
-6.20556
0
LINE
8
BLACK
6
CONTINUOUS
10
6.27159
20
-6.20556
11
6.26784
21
-6.19806
0
LINE
8
BLACK
6
CONTINUOUS
10
6.26784
20
-6.19806
11
6.26409
21
-6.19431
0
LINE
8
BLACK
6
CONTINUOUS
10
6.26409
20
-6.19431
11
6.25659
21
-6.19056
0
LINE
8
BLACK
6
CONTINUOUS
10
6.25659
20
-6.19056
11
6.24159
21
-6.19056
0
LINE
8
BLACK
6
CONTINUOUS
10
6.24159
20
-6.19056
11
6.23409
21
-6.19431
0
LINE
8
BLACK
6
CONTINUOUS
10
6.23409
20
-6.19431
11
6.23034
21
-6.19806
0
LINE
8
BLACK
6
CONTINUOUS
10
6.23034
20
-6.19806
11
6.22659
21
-6.20556
0
LINE
8
BLACK
6
CONTINUOUS
10
6.22659
20
-6.20556
11
6.22659
21
-6.22431
0
LINE
8
BLACK
6
CONTINUOUS
10
6.22659
20
-6.22431
11
6.23034
21
-6.23181
0
LINE
8
BLACK
6
CONTINUOUS
10
6.23034
20
-6.23181
11
6.23409
21
-6.23555
0
LINE
8
BLACK
6
CONTINUOUS
10
6.23409
20
-6.23555
11
6.24159
21
-6.2393
0
LINE
8
BLACK
6
CONTINUOUS
10
6.24159
20
-6.2393
11
6.25659
21
-6.2393
0
LINE
8
BLACK
6
CONTINUOUS
10
6.25659
20
-6.2393
11
6.26409
21
-6.23555
0
LINE
8
BLACK
6
CONTINUOUS
10
6.26409
20
-6.23555
11
6.26784
21
-6.23181
0
LINE
8
BLACK
6
CONTINUOUS
10
6.26784
20
-6.23181
11
6.27159
21
-6.22431
0
LINE
8
BLACK
6
CONTINUOUS
10
6.34658
20
-6.2693
11
6.30158
21
-6.2693
0
LINE
8
BLACK
6
CONTINUOUS
10
6.32408
20
-6.2693
11
6.32408
21
-6.19056
0
LINE
8
BLACK
6
CONTINUOUS
10
6.32408
20
-6.19056
11
6.31658
21
-6.20181
0
LINE
8
BLACK
6
CONTINUOUS
10
6.31658
20
-6.20181
11
6.30908
21
-6.20931
0
LINE
8
BLACK
6
CONTINUOUS
10
6.30908
20
-6.20931
11
6.30158
21
-6.21306
0
LINE
8
BLACK
6
CONTINUOUS
10
6.44032
20
-6.2693
11
6.44032
21
-6.19056
0
LINE
8
BLACK
6
CONTINUOUS
10
6.47406
20
-6.2693
11
6.47406
21
-6.22806
0
LINE
8
BLACK
6
CONTINUOUS
10
6.47406
20
-6.22806
11
6.47031
21
-6.22056
0
LINE
8
BLACK
6
CONTINUOUS
10
6.47031
20
-6.22056
11
6.46281
21
-6.21681
0
LINE
8
BLACK
6
CONTINUOUS
10
6.46281
20
-6.21681
11
6.45157
21
-6.21681
0
LINE
8
BLACK
6
CONTINUOUS
10
6.45157
20
-6.21681
11
6.44407
21
-6.22056
0
LINE
8
BLACK
6
CONTINUOUS
10
6.44407
20
-6.22056
11
6.44032
21
-6.22431
0
LINE
8
BLACK
6
CONTINUOUS
10
6.52281
20
-6.2693
11
6.51531
21
-6.26555
0
LINE
8
BLACK
6
CONTINUOUS
10
6.51531
20
-6.26555
11
6.51156
21
-6.2618
0
LINE
8
BLACK
6
CONTINUOUS
10
6.51156
20
-6.2618
11
6.50781
21
-6.2543
0
LINE
8
BLACK
6
CONTINUOUS
10
6.50781
20
-6.2543
11
6.50781
21
-6.23181
0
LINE
8
BLACK
6
CONTINUOUS
10
6.50781
20
-6.23181
11
6.51156
21
-6.22431
0
LINE
8
BLACK
6
CONTINUOUS
10
6.51156
20
-6.22431
11
6.51531
21
-6.22056
0
LINE
8
BLACK
6
CONTINUOUS
10
6.51531
20
-6.22056
11
6.52281
21
-6.21681
0
LINE
8
BLACK
6
CONTINUOUS
10
6.52281
20
-6.21681
11
6.53406
21
-6.21681
0
LINE
8
BLACK
6
CONTINUOUS
10
6.53406
20
-6.21681
11
6.54155
21
-6.22056
0
LINE
8
BLACK
6
CONTINUOUS
10
6.54155
20
-6.22056
11
6.5453
21
-6.22431
0
LINE
8
BLACK
6
CONTINUOUS
10
6.5453
20
-6.22431
11
6.54905
21
-6.23181
0
LINE
8
BLACK
6
CONTINUOUS
10
6.54905
20
-6.23181
11
6.54905
21
-6.2543
0
LINE
8
BLACK
6
CONTINUOUS
10
6.54905
20
-6.2543
11
6.5453
21
-6.2618
0
LINE
8
BLACK
6
CONTINUOUS
10
6.5453
20
-6.2618
11
6.54155
21
-6.26555
0
LINE
8
BLACK
6
CONTINUOUS
10
6.54155
20
-6.26555
11
6.53406
21
-6.2693
0
LINE
8
BLACK
6
CONTINUOUS
10
6.53406
20
-6.2693
11
6.52281
21
-6.2693
0
LINE
8
BLACK
6
CONTINUOUS
10
6.59405
20
-6.2693
11
6.58655
21
-6.26555
0
LINE
8
BLACK
6
CONTINUOUS
10
6.58655
20
-6.26555
11
6.5828
21
-6.25805
0
LINE
8
BLACK
6
CONTINUOUS
10
6.5828
20
-6.25805
11
6.5828
21
-6.19056
0
LINE
8
BLACK
6
CONTINUOUS
10
6.65404
20
-6.26555
11
6.64654
21
-6.2693
0
LINE
8
BLACK
6
CONTINUOUS
10
6.64654
20
-6.2693
11
6.63154
21
-6.2693
0
LINE
8
BLACK
6
CONTINUOUS
10
6.63154
20
-6.2693
11
6.62404
21
-6.26555
0
LINE
8
BLACK
6
CONTINUOUS
10
6.62404
20
-6.26555
11
6.62029
21
-6.25805
0
LINE
8
BLACK
6
CONTINUOUS
10
6.62029
20
-6.25805
11
6.62029
21
-6.22806
0
LINE
8
BLACK
6
CONTINUOUS
10
6.62029
20
-6.22806
11
6.62404
21
-6.22056
0
LINE
8
BLACK
6
CONTINUOUS
10
6.62404
20
-6.22056
11
6.63154
21
-6.21681
0
LINE
8
BLACK
6
CONTINUOUS
10
6.63154
20
-6.21681
11
6.64654
21
-6.21681
0
LINE
8
BLACK
6
CONTINUOUS
10
6.64654
20
-6.21681
11
6.65404
21
-6.22056
0
LINE
8
BLACK
6
CONTINUOUS
10
6.65404
20
-6.22056
11
6.65779
21
-6.22806
0
LINE
8
BLACK
6
CONTINUOUS
10
6.65779
20
-6.22806
11
6.65779
21
-6.23555
0
LINE
8
BLACK
6
CONTINUOUS
10
6.65779
20
-6.23555
11
6.62029
21
-6.24305
0
LINE
8
BLACK
6
CONTINUOUS
10
6.68779
20
-6.26555
11
6.69529
21
-6.2693
0
LINE
8
BLACK
6
CONTINUOUS
10
6.69529
20
-6.2693
11
6.71028
21
-6.2693
0
LINE
8
BLACK
6
CONTINUOUS
10
6.71028
20
-6.2693
11
6.71778
21
-6.26555
0
LINE
8
BLACK
6
CONTINUOUS
10
6.71778
20
-6.26555
11
6.72153
21
-6.25805
0
LINE
8
BLACK
6
CONTINUOUS
10
6.72153
20
-6.25805
11
6.72153
21
-6.2543
0
LINE
8
BLACK
6
CONTINUOUS
10
6.72153
20
-6.2543
11
6.71778
21
-6.2468
0
LINE
8
BLACK
6
CONTINUOUS
10
6.71778
20
-6.2468
11
6.71028
21
-6.24305
0
LINE
8
BLACK
6
CONTINUOUS
10
6.71028
20
-6.24305
11
6.69903
21
-6.24305
0
LINE
8
BLACK
6
CONTINUOUS
10
6.69903
20
-6.24305
11
6.69154
21
-6.2393
0
LINE
8
BLACK
6
CONTINUOUS
10
6.69154
20
-6.2393
11
6.68779
21
-6.23181
0
LINE
8
BLACK
6
CONTINUOUS
10
6.68779
20
-6.23181
11
6.68779
21
-6.22806
0
LINE
8
BLACK
6
CONTINUOUS
10
6.68779
20
-6.22806
11
6.69154
21
-6.22056
0
LINE
8
BLACK
6
CONTINUOUS
10
6.69154
20
-6.22056
11
6.69903
21
-6.21681
0
LINE
8
BLACK
6
CONTINUOUS
10
6.69903
20
-6.21681
11
6.71028
21
-6.21681
0
LINE
8
BLACK
6
CONTINUOUS
10
6.71028
20
-6.21681
11
6.71778
21
-6.22056
0
LINE
8
BLACK
6
CONTINUOUS
10
6.74778
20
-6.2993
11
6.75153
21
-6.29555
0
LINE
8
BLACK
6
CONTINUOUS
10
6.75153
20
-6.29555
11
6.75903
21
-6.2843
0
LINE
8
BLACK
6
CONTINUOUS
10
6.75903
20
-6.2843
11
6.76278
21
-6.2768
0
LINE
8
BLACK
6
CONTINUOUS
10
6.76278
20
-6.2768
11
6.76653
21
-6.26555
0
LINE
8
BLACK
6
CONTINUOUS
10
6.76653
20
-6.26555
11
6.77028
21
-6.2468
0
LINE
8
BLACK
6
CONTINUOUS
10
6.77028
20
-6.2468
11
6.77028
21
-6.23181
0
LINE
8
BLACK
6
CONTINUOUS
10
6.77028
20
-6.23181
11
6.76653
21
-6.21306
0
LINE
8
BLACK
6
CONTINUOUS
10
6.76653
20
-6.21306
11
6.76278
21
-6.20181
0
LINE
8
BLACK
6
CONTINUOUS
10
6.76278
20
-6.20181
11
6.75903
21
-6.19431
0
LINE
8
BLACK
6
CONTINUOUS
10
6.75903
20
-6.19431
11
6.75153
21
-6.18306
0
LINE
8
BLACK
6
CONTINUOUS
10
6.75153
20
-6.18306
11
6.74778
21
-6.17931
  0
ENDSEC
  0
EOF
