G04 #@! TF.GenerationSoftware,KiCad,Pcbnew,7.0.1*
G04 #@! TF.CreationDate,2023-04-30T12:50:43-04:00*
G04 #@! TF.ProjectId,5v levelshifter board,3576206c-6576-4656-9c73-686966746572,rev?*
G04 #@! TF.SameCoordinates,Original*
G04 #@! TF.FileFunction,Paste,Top*
G04 #@! TF.FilePolarity,Positive*
%FSLAX46Y46*%
G04 Gerber Fmt 4.6, Leading zero omitted, Abs format (unit mm)*
G04 Created by KiCad (PCBNEW 7.0.1) date 2023-04-30 12:50:43*
%MOMM*%
%LPD*%
G01*
G04 APERTURE LIST*
G04 Aperture macros list*
%AMRoundRect*
0 Rectangle with rounded corners*
0 $1 Rounding radius*
0 $2 $3 $4 $5 $6 $7 $8 $9 X,Y pos of 4 corners*
0 Add a 4 corners polygon primitive as box body*
4,1,4,$2,$3,$4,$5,$6,$7,$8,$9,$2,$3,0*
0 Add four circle primitives for the rounded corners*
1,1,$1+$1,$2,$3*
1,1,$1+$1,$4,$5*
1,1,$1+$1,$6,$7*
1,1,$1+$1,$8,$9*
0 Add four rect primitives between the rounded corners*
20,1,$1+$1,$2,$3,$4,$5,0*
20,1,$1+$1,$4,$5,$6,$7,0*
20,1,$1+$1,$6,$7,$8,$9,0*
20,1,$1+$1,$8,$9,$2,$3,0*%
G04 Aperture macros list end*
%ADD10RoundRect,0.225000X0.225000X0.250000X-0.225000X0.250000X-0.225000X-0.250000X0.225000X-0.250000X0*%
%ADD11RoundRect,0.225000X-0.225000X-0.250000X0.225000X-0.250000X0.225000X0.250000X-0.225000X0.250000X0*%
%ADD12R,1.475000X0.450000*%
G04 APERTURE END LIST*
D10*
X169050000Y-130810000D03*
X167500000Y-130810000D03*
D11*
X134480000Y-95250000D03*
X136030000Y-95250000D03*
X172580000Y-121285000D03*
X174130000Y-121285000D03*
X134480000Y-115570000D03*
X136030000Y-115570000D03*
D12*
X173753000Y-90555000D03*
X173753000Y-89905000D03*
X173753000Y-89255000D03*
X173753000Y-88605000D03*
X173753000Y-87955000D03*
X173753000Y-87305000D03*
X173753000Y-86655000D03*
X173753000Y-86005000D03*
X173753000Y-85355000D03*
X173753000Y-84705000D03*
X167877000Y-84705000D03*
X167877000Y-85355000D03*
X167877000Y-86005000D03*
X167877000Y-86655000D03*
X167877000Y-87305000D03*
X167877000Y-87955000D03*
X167877000Y-88605000D03*
X167877000Y-89255000D03*
X167877000Y-89905000D03*
X167877000Y-90555000D03*
D10*
X130950000Y-125730000D03*
X129400000Y-125730000D03*
X169050000Y-92075000D03*
X167500000Y-92075000D03*
D11*
X172580000Y-111125000D03*
X174130000Y-111125000D03*
X134480000Y-125730000D03*
X136030000Y-125730000D03*
D10*
X130950000Y-95250000D03*
X129400000Y-95250000D03*
D12*
X129777000Y-97405000D03*
X129777000Y-98055000D03*
X129777000Y-98705000D03*
X129777000Y-99355000D03*
X129777000Y-100005000D03*
X129777000Y-100655000D03*
X129777000Y-101305000D03*
X129777000Y-101955000D03*
X129777000Y-102605000D03*
X129777000Y-103255000D03*
X135653000Y-103255000D03*
X135653000Y-102605000D03*
X135653000Y-101955000D03*
X135653000Y-101305000D03*
X135653000Y-100655000D03*
X135653000Y-100005000D03*
X135653000Y-99355000D03*
X135653000Y-98705000D03*
X135653000Y-98055000D03*
X135653000Y-97405000D03*
D10*
X130950000Y-115570000D03*
X129400000Y-115570000D03*
D12*
X173753000Y-109605000D03*
X173753000Y-108955000D03*
X173753000Y-108305000D03*
X173753000Y-107655000D03*
X173753000Y-107005000D03*
X173753000Y-106355000D03*
X173753000Y-105705000D03*
X173753000Y-105055000D03*
X173753000Y-104405000D03*
X173753000Y-103755000D03*
X167877000Y-103755000D03*
X167877000Y-104405000D03*
X167877000Y-105055000D03*
X167877000Y-105705000D03*
X167877000Y-106355000D03*
X167877000Y-107005000D03*
X167877000Y-107655000D03*
X167877000Y-108305000D03*
X167877000Y-108955000D03*
X167877000Y-109605000D03*
D10*
X169050000Y-111125000D03*
X167500000Y-111125000D03*
D11*
X172580000Y-130810000D03*
X174130000Y-130810000D03*
D12*
X173753000Y-129290000D03*
X173753000Y-128640000D03*
X173753000Y-127990000D03*
X173753000Y-127340000D03*
X173753000Y-126690000D03*
X173753000Y-126040000D03*
X173753000Y-125390000D03*
X173753000Y-124740000D03*
X173753000Y-124090000D03*
X173753000Y-123440000D03*
X167877000Y-123440000D03*
X167877000Y-124090000D03*
X167877000Y-124740000D03*
X167877000Y-125390000D03*
X167877000Y-126040000D03*
X167877000Y-126690000D03*
X167877000Y-127340000D03*
X167877000Y-127990000D03*
X167877000Y-128640000D03*
X167877000Y-129290000D03*
D10*
X169050000Y-121285000D03*
X167500000Y-121285000D03*
D11*
X172720000Y-92710000D03*
X174270000Y-92710000D03*
D12*
X173753000Y-119765000D03*
X173753000Y-119115000D03*
X173753000Y-118465000D03*
X173753000Y-117815000D03*
X173753000Y-117165000D03*
X173753000Y-116515000D03*
X173753000Y-115865000D03*
X173753000Y-115215000D03*
X173753000Y-114565000D03*
X173753000Y-113915000D03*
X167877000Y-113915000D03*
X167877000Y-114565000D03*
X167877000Y-115215000D03*
X167877000Y-115865000D03*
X167877000Y-116515000D03*
X167877000Y-117165000D03*
X167877000Y-117815000D03*
X167877000Y-118465000D03*
X167877000Y-119115000D03*
X167877000Y-119765000D03*
M02*
